SplineFontDB: 3.0
FontName: BowlbyOneSC
FullName: Bowlby One SC
FamilyName: Bowlby One SC
Weight: Book
Copyright: Copyright (c) 2011 by vernon adams. All rights reserved.
Version: 1.000
ItalicAngle: 0
UnderlinePosition: -103
UnderlineWidth: 102
Ascent: 1638
Descent: 410
sfntRevision: 0x00010000
LayerCount: 2
Layer: 0 1 "Back"  1
Layer: 1 1 "Fore"  0
XUID: [1021 759 1887733602 14134422]
FSType: 0
OS2Version: 2
OS2_WeightWidthSlopeOnly: 0
OS2_UseTypoMetrics: 1
CreationTime: 1305632640
ModificationTime: 1305893195
PfmFamily: 17
TTFWeight: 400
TTFWidth: 5
LineGap: 0
VLineGap: 0
Panose: 2 0 5 5 6 0 0 2 0 4
OS2TypoAscent: 608
OS2TypoAOffset: 1
OS2TypoDescent: -467
OS2TypoDOffset: 1
OS2TypoLinegap: 0
OS2WinAscent: 0
OS2WinAOffset: 1
OS2WinDescent: 0
OS2WinDOffset: 1
HheadAscent: 0
HheadAOffset: 1
HheadDescent: 0
HheadDOffset: 1
OS2SubXSize: 1331
OS2SubYSize: 1229
OS2SubXOff: 0
OS2SubYOff: 154
OS2SupXSize: 1331
OS2SupYSize: 1229
OS2SupXOff: 0
OS2SupYOff: 717
OS2StrikeYSize: 102
OS2StrikeYPos: 512
OS2Vendor: 'newt'
OS2CodePages: 00000001.00000000
OS2UnicodeRanges: 800000ef.4000a04b.00000000.00000000
Lookup: 258 0 0 "'kern' Horizontal Kerning in Latin lookup 0"  {"'kern' Horizontal Kerning in Latin lookup 0 subtable"  } ['kern' ('DFLT' <'dflt' > 'latn' <'dflt' > ) ]
MarkAttachClasses: 1
DEI: 91125
TtTable: prep
PUSHW_1
 0
CALL
SVTCA[y-axis]
PUSHW_3
 1
 13
 2
CALL
SVTCA[x-axis]
PUSHW_3
 14
 15
 2
CALL
SVTCA[x-axis]
PUSHW_8
 14
 23
 19
 15
 11
 7
 0
 8
CALL
PUSHW_8
 15
 63
 52
 39
 28
 17
 0
 8
CALL
PUSHW_8
 16
 41
 37
 24
 20
 12
 0
 8
CALL
PUSHW_8
 17
 27
 22
 19
 15
 7
 0
 8
CALL
PUSHW_8
 18
 26
 22
 19
 11
 7
 0
 8
CALL
PUSHW_8
 19
 25
 22
 15
 11
 7
 0
 8
CALL
PUSHW_8
 20
 24
 19
 15
 11
 7
 0
 8
CALL
PUSHW_8
 21
 22
 19
 15
 11
 7
 0
 8
CALL
PUSHW_8
 22
 22
 19
 15
 11
 7
 0
 8
CALL
PUSHW_8
 23
 20
 19
 15
 11
 7
 0
 8
CALL
PUSHW_8
 24
 28
 22
 19
 15
 7
 0
 8
CALL
PUSHW_8
 25
 43
 37
 30
 20
 12
 0
 8
CALL
PUSHW_8
 26
 39
 29
 24
 20
 12
 0
 8
CALL
PUSHW_8
 27
 33
 29

StartChar: exclam
Encoding: 33 33 1
Width: 792
Flags: W
LayerCount: 2
Fore
SplineSet
626 558 m 0,0,1
 624 536 624 536 592 529 c 128,-1,2
 560 522 560 522 516 522 c 0,3,4
 497 522 497 522 477.5 522.5 c 128,-1,5
 458 523 458 523 438 523 c 0,6,7
 398 523 398 523 359.5 522 c 128,-1,8
 321 521 321 521 279 521 c 2,9,-1
 250 521 l 2,10,11
 236 521 236 521 222 520.5 c 128,-1,12
 208 520 208 520 194 520 c 1,13,14
 171 527 171 527 161 549 c 128,-1,15
 151 571 151 571 147 599.5 c 128,-1,16
 143 628 143 628 143.5 658.5 c 128,-1,17
 144 689 144 689 143 713 c 2,18,-1
 123 963 l 1,19,20
 117 1060 117 1060 111 1153.5 c 128,-1,21
 105 1247 105 1247 98 1344 c 1,22,23
 97 1374 97 1374 94 1403 c 128,-1,24
 91 1432 91 1432 91 1462 c 0,25,26
 91 1477 91 1477 115.5 1483.5 c 128,-1,27
 140 1490 140 1490 170.5 1492 c 128,-1,28
 201 1494 201 1494 228.5 1494.5 c 128,-1,29
 256 1495 256 1495 261 1497 c 1,30,-1
 320 1497 l 1,31,-1
 380 1501 l 2,32,33
 435 1505 435 1505 494 1506.5 c 128,-1,34
 553 1508 553 1508 617 1508 c 0,35,36
 654 1508 654 1508 680 1500 c 128,-1,37
 706 1492 706 1492 706 1467 c 2,38,-1
 706 1465 l 1,39,40
 688 1242 688 1242 669.5 1013 c 128,-1,41
 651 784 651 784 626 558 c 0,0,1
657 167 m 0,42,43
 657 125 657 125 657.5 84 c 128,-1,44
 658 43 658 43 661 5 c 1,45,46
 659 -4 659 -4 641.5 -10 c 128,-1,47
 624 -16 624 -16 597.5 -19 c 128,-1,48
 571 -22 571 -22 538 -23.5 c 128,-1,49
 505 -25 505 -25 472.5 -25.5 c 128,-1,50
 440 -26 440 -26 410.5 -26 c 128,-1,51
 381 -26 381 -26 362 -27 c 1,52,53
 308 -27 308 -27 254 -29 c 128,-1,54
 200 -31 200 -31 146 -32 c 1,55,56
 139 -24 139 -24 132 -16 c 128,-1,57
 125 -8 125 -8 119 1 c 2,58,-1
 111 13 l 1,59,60
 112 41 112 41 113 77 c 128,-1,61
 114 113 114 113 115 151 c 128,-1,62
 116 189 116 189 118 225.5 c 128,-1,63
 120 262 120 262 124 291 c 128,-1,64
 128 320 128 320 134 337.5 c 128,-1,65
 140 355 140 355 148 355 c 0,66,67
 262 355 262 355 344.5 355 c 128,-1,68
 427 355 427 355 483.5 354 c 128,-1,69
 540 353 540 353 574.5 350.5 c 128,-1,70
 609 348 609 348 627.5 344 c 128,-1,71
 646 340 646 340 652 334 c 128,-1,72
 658 328 658 328 658 319 c 0,73,74
 658 314 658 314 657 307.5 c 128,-1,75
 656 301 656 301 656 293 c 0,76,77
 657 261 657 261 657 230 c 128,-1,78
 657 199 657 199 657 167 c 0,42,43
EndSplineSet
EndChar

StartChar: quotedbl
Encoding: 34 34 2
Width: 1285
Flags: W
LayerCount: 2
Fore
SplineSet
478 842 m 0,0,1
 412 841 412 841 346 840 c 128,-1,2
 280 839 280 839 214 837 c 1,3,4
 205 845 205 845 196 853.5 c 128,-1,5
 187 862 187 862 179 871 c 1,6,7
 179 906 179 906 180.5 942 c 128,-1,8
 182 978 182 978 184 1013 c 1,9,-1
 189 1254 l 2,10,11
 189 1288 189 1288 190.5 1321.5 c 128,-1,12
 192 1355 192 1355 192 1388 c 0,13,14
 192 1397 192 1397 191.5 1411 c 128,-1,15
 191 1425 191 1425 191 1440 c 0,16,17
 191 1464 191 1464 195 1485 c 128,-1,18
 199 1506 199 1506 214 1510 c 1,19,20
 256 1510 256 1510 297.5 1509.5 c 128,-1,21
 339 1509 339 1509 381 1509 c 0,22,23
 382 1509 382 1509 402 1510 c 128,-1,24
 422 1511 422 1511 451 1511 c 0,25,26
 475 1511 475 1511 501.5 1509.5 c 128,-1,27
 528 1508 528 1508 550 1504.5 c 128,-1,28
 572 1501 572 1501 586.5 1494 c 128,-1,29
 601 1487 601 1487 601 1476 c 1,30,31
 600 1474 600 1474 600 1466 c 0,32,33
 605 1328 605 1328 609 1184.5 c 128,-1,34
 613 1041 613 1041 613 901 c 0,35,36
 613 881 613 881 609 869 c 128,-1,37
 605 857 605 857 596 851 c 128,-1,38
 587 845 587 845 572 843 c 128,-1,39
 557 841 557 841 535 841 c 0,40,41
 523 841 523 841 509 841.5 c 128,-1,42
 495 842 495 842 478 842 c 0,0,1
989 846 m 1,43,44
 925 846 925 846 860.5 843 c 128,-1,45
 796 840 796 840 733 838 c 1,46,47
 725 848 725 848 719 856 c 128,-1,48
 713 864 713 864 708.5 873 c 128,-1,49
 704 882 704 882 702 893.5 c 128,-1,50
 700 905 700 905 700 922 c 0,51,52
 700 942 700 942 700.5 962.5 c 128,-1,53
 701 983 701 983 701 1004 c 2,54,-1
 710 1264 l 2,55,56
 712 1299 712 1299 711.5 1335 c 128,-1,57
 711 1371 711 1371 712 1406 c 0,58,59
 712 1412 712 1412 711.5 1422 c 128,-1,60
 711 1432 711 1432 711 1444 c 0,61,62
 711 1455 711 1455 711.5 1466.5 c 128,-1,63
 712 1478 712 1478 714.5 1487.5 c 128,-1,64
 717 1497 717 1497 721.5 1503.5 c 128,-1,65
 726 1510 726 1510 734 1511 c 1,66,-1
 792 1511 l 2,67,68
 819 1511 819 1511 853.5 1511 c 128,-1,69
 888 1511 888 1511 924 1510 c 128,-1,70
 960 1509 960 1509 994.5 1508 c 128,-1,71
 1029 1507 1029 1507 1056 1505 c 128,-1,72
 1083 1503 1083 1503 1099.5 1500 c 128,-1,73
 1116 1497 1116 1497 1116 1493 c 0,74,75
 1116 1491 1116 1491 1115.5 1487 c 128,-1,76
 1115 1483 1115 1483 1115 1480 c 0,77,78
 1122 1332 1122 1332 1125 1189.5 c 128,-1,79
 1128 1047 1128 1047 1129 896 c 0,80,81
 1129 876 1129 876 1124.5 862.5 c 128,-1,82
 1120 849 1120 849 1103 849 c 0,83,84
 1102 849 1102 849 1101.5 849.5 c 128,-1,85
 1101 850 1101 850 1100 850 c 2,86,-1
 989 846 l 1,43,44
EndSplineSet
EndChar

StartChar: numbersign
Encoding: 35 35 3
Width: 1548
Flags: W
LayerCount: 2
Fore
SplineSet
1162 1104 m 1,0,1
 1172 1104 1172 1104 1181 1103.5 c 128,-1,2
 1190 1103 1190 1103 1199 1103 c 0,3,4
 1220 1103 1220 1103 1241 1104 c 128,-1,5
 1262 1105 1262 1105 1283 1105 c 1,6,7
 1300 1103 1300 1103 1304.5 1080.5 c 128,-1,8
 1309 1058 1309 1058 1309 1032 c 0,9,10
 1309 1018 1309 1018 1308.5 1005 c 128,-1,11
 1308 992 1308 992 1308 981 c 2,12,-1
 1308 929 l 2,13,14
 1308 911 1308 911 1309 894 c 128,-1,15
 1310 877 1310 877 1310 860 c 0,16,17
 1310 839 1310 839 1283.5 830.5 c 128,-1,18
 1257 822 1257 822 1224 820 c 128,-1,19
 1191 818 1191 818 1161.5 820 c 128,-1,20
 1132 822 1132 822 1126 822 c 1,21,22
 1120 783 1120 783 1115.5 743.5 c 128,-1,23
 1111 704 1111 704 1106 665 c 1,24,-1
 1150 665 l 1,25,-1
 1207 665 l 2,26,27
 1212 665 1212 665 1216.5 665 c 128,-1,28
 1221 665 1221 665 1226 666 c 1,29,30
 1248 663 1248 663 1254 645 c 1,31,-1
 1254 497 l 2,32,33
 1254 472 1254 472 1254.5 448.5 c 128,-1,34
 1255 425 1255 425 1255 401 c 1,35,36
 1250 378 1250 378 1228 378 c 0,37,38
 1190 378 1190 378 1152 380 c 128,-1,39
 1114 382 1114 382 1074 382 c 1,40,41
 1068 337 1068 337 1062.5 292 c 128,-1,42
 1057 247 1057 247 1052 199 c 0,43,44
 1050 183 1050 183 1050.5 160 c 128,-1,45
 1051 137 1051 137 1049.5 111.5 c 128,-1,46
 1048 86 1048 86 1043 61.5 c 128,-1,47
 1038 37 1038 37 1025.5 17 c 128,-1,48
 1013 -3 1013 -3 991 -15 c 128,-1,49
 969 -27 969 -27 933 -27 c 0,50,51
 922 -27 922 -27 898.5 -28.5 c 128,-1,52
 875 -30 875 -30 847 -30 c 0,53,54
 824 -30 824 -30 801.5 -28.5 c 128,-1,55
 779 -27 779 -27 761 -22.5 c 128,-1,56
 743 -18 743 -18 731 -11 c 128,-1,57
 719 -4 719 -4 718 8 c 1,58,59
 730 96 730 96 740 187 c 128,-1,60
 750 278 750 278 764 369 c 1,61,62
 744 367 744 367 723.5 366.5 c 128,-1,63
 703 366 703 366 683 361 c 1,64,-1
 651 85 l 2,65,66
 648 63 648 63 646 42 c 128,-1,67
 644 21 644 21 637 4 c 128,-1,68
 630 -13 630 -13 615 -23.5 c 128,-1,69
 600 -34 600 -34 572 -34 c 0,70,71
 515 -34 515 -34 460 -32.5 c 128,-1,72
 405 -31 405 -31 350 -30 c 1,73,74
 342 -19 342 -19 334.5 -7.5 c 128,-1,75
 327 4 327 4 319 15 c 1,76,77
 330 103 330 103 343 188 c 128,-1,78
 356 273 356 273 368 364 c 1,79,-1
 344 364 l 2,80,81
 303 364 303 364 279 365 c 128,-1,82
 255 366 255 366 243 373.5 c 128,-1,83
 231 381 231 381 228 396.5 c 128,-1,84
 225 412 225 412 225 441 c 0,85,86
 225 479 225 479 225.5 530 c 128,-1,87
 226 581 226 581 226 631 c 0,88,89
 226 655 226 655 247.5 662 c 128,-1,90
 269 669 269 669 295 669 c 0,91,92
 327 669 327 669 353.5 668.5 c 128,-1,93
 380 668 380 668 412 668 c 1,94,-1
 432 811 l 1,95,-1
 409 811 l 2,96,97
 388 811 388 811 366.5 811.5 c 128,-1,98
 345 812 345 812 327.5 816 c 128,-1,99
 310 820 310 820 299.5 827.5 c 128,-1,100
 289 835 289 835 289 849 c 0,101,102
 289 906 289 906 290.5 963.5 c 128,-1,103
 292 1021 292 1021 292 1078 c 0,104,105
 292 1089 292 1089 302.5 1096 c 128,-1,106
 313 1103 313 1103 329.5 1107 c 128,-1,107
 346 1111 346 1111 366 1112.5 c 128,-1,108
 386 1114 386 1114 406 1114 c 0,109,110
 428 1114 428 1114 445.5 1113 c 128,-1,111
 463 1112 463 1112 470 1112 c 0,112,113
 472 1112 472 1112 476.5 1137.5 c 128,-1,114
 481 1163 481 1163 487 1201.5 c 128,-1,115
 493 1240 493 1240 500 1286.5 c 128,-1,116
 507 1333 507 1333 513 1375 c 128,-1,117
 519 1417 519 1417 523.5 1448.5 c 128,-1,118
 528 1480 528 1480 530 1489 c 1,119,120
 534 1497 534 1497 557 1501.5 c 128,-1,121
 580 1506 580 1506 612.5 1508 c 128,-1,122
 645 1510 645 1510 681 1510 c 128,-1,123
 717 1510 717 1510 747 1510 c 0,124,125
 778 1510 778 1510 798.5 1504.5 c 128,-1,126
 819 1499 819 1499 826 1479 c 1,127,128
 810 1385 810 1385 798.5 1290.5 c 128,-1,129
 787 1196 787 1196 771 1102 c 1,130,-1
 870 1102 l 1,131,132
 874 1133 874 1133 877.5 1172 c 128,-1,133
 881 1211 881 1211 885 1252.5 c 128,-1,134
 889 1294 889 1294 894 1334.5 c 128,-1,135
 899 1375 899 1375 905 1409.5 c 128,-1,136
 911 1444 911 1444 918.5 1469 c 128,-1,137
 926 1494 926 1494 936 1504 c 1,138,139
 956 1502 956 1502 976 1502 c 128,-1,140
 996 1502 996 1502 1017 1502 c 2,141,-1
 1072 1502 l 1,142,-1
 1177 1502 l 2,143,144
 1192 1502 1192 1502 1201 1498.5 c 128,-1,145
 1210 1495 1210 1495 1210 1478 c 1,146,-1
 1169 1155 l 1,147,-1
 1162 1104 l 1,0,1
702 846 m 1,148,149
 692 795 692 795 684 746.5 c 128,-1,150
 676 698 676 698 668 647 c 1,151,152
 669 634 669 634 673 627.5 c 128,-1,153
 677 621 677 621 689 619 c 0,154,155
 695 619 695 619 700.5 619.5 c 128,-1,156
 706 620 706 620 711 620 c 2,157,-1
 826 626 l 2,158,159
 842 626 842 626 845 641 c 2,160,-1
 880 840 l 1,161,162
 877 867 877 867 851 867 c 2,163,-1
 805 868 l 1,164,165
 782 870 782 870 760.5 871 c 128,-1,166
 739 872 739 872 716 873 c 1,167,-1
 702 846 l 1,148,149
EndSplineSet
EndChar

StartChar: dollar
Encoding: 36 36 4
Width: 1444
Flags: W
LayerCount: 2
Fore
SplineSet
623 1096 m 1,0,1
 624 1069 624 1069 650.5 1051 c 128,-1,2
 677 1033 677 1033 714 1021 c 128,-1,3
 751 1009 751 1009 791.5 1001.5 c 128,-1,4
 832 994 832 994 861 987 c 2,5,-1
 966 962 l 2,6,7
 1047 942 1047 942 1126.5 915.5 c 128,-1,8
 1206 889 1206 889 1273 848 c 1,9,10
 1370 775 1370 775 1416.5 674 c 128,-1,11
 1463 573 1463 573 1463 455 c 0,12,13
 1463 371 1463 371 1440.5 304.5 c 128,-1,14
 1418 238 1418 238 1378.5 185.5 c 128,-1,15
 1339 133 1339 133 1286 94 c 128,-1,16
 1233 55 1233 55 1171 26.5 c 128,-1,17
 1109 -2 1109 -2 1042 -21.5 c 128,-1,18
 975 -41 975 -41 908 -54 c 1,19,-1
 910 -156 l 2,20,21
 910 -173 910 -173 910.5 -189.5 c 128,-1,22
 911 -206 911 -206 911 -223 c 1,23,24
 906 -258 906 -258 869 -259 c 1,25,-1
 867 -259 l 1,26,27
 792 -258 792 -258 720 -257 c 128,-1,28
 648 -256 648 -256 573 -253 c 1,29,30
 562 -244 562 -244 553 -234.5 c 128,-1,31
 544 -225 544 -225 534 -216 c 1,32,33
 535 -199 535 -199 535 -183 c 128,-1,34
 535 -167 535 -167 535 -150 c 0,35,36
 535 -104 535 -104 528.5 -82 c 128,-1,37
 522 -60 522 -60 508 -50.5 c 128,-1,38
 494 -41 494 -41 472 -38 c 128,-1,39
 450 -35 450 -35 419 -27 c 0,40,41
 316 0 316 0 243.5 43.5 c 128,-1,42
 171 87 171 87 123.5 147 c 128,-1,43
 76 207 76 207 52 283.5 c 128,-1,44
 28 360 28 360 22 453 c 1,45,46
 22 477 22 477 42.5 484 c 128,-1,47
 63 491 63 491 90 491 c 0,48,49
 105 491 105 491 120.5 490 c 128,-1,50
 136 489 136 489 149 489 c 2,51,-1
 597 489 l 1,52,53
 612 488 612 488 618.5 476 c 128,-1,54
 625 464 625 464 629 446.5 c 128,-1,55
 633 429 633 429 637 408.5 c 128,-1,56
 641 388 641 388 652 371 c 128,-1,57
 663 354 663 354 684 342.5 c 128,-1,58
 705 331 705 331 742 331 c 0,59,60
 766 331 766 331 788.5 337 c 128,-1,61
 811 343 811 343 828.5 355.5 c 128,-1,62
 846 368 846 368 856.5 387 c 128,-1,63
 867 406 867 406 867 432 c 0,64,65
 867 448 867 448 859 459.5 c 128,-1,66
 851 471 851 471 838 479 c 128,-1,67
 825 487 825 487 810 491 c 128,-1,68
 795 495 795 495 781 495 c 1,69,70
 770 501 770 501 739.5 510 c 128,-1,71
 709 519 709 519 667.5 530 c 128,-1,72
 626 541 626 541 576 553.5 c 128,-1,73
 526 566 526 566 476 581 c 128,-1,74
 426 596 426 596 378.5 612 c 128,-1,75
 331 628 331 628 295 645 c 0,76,77
 231 674 231 674 185.5 714 c 128,-1,78
 140 754 140 754 111 803 c 128,-1,79
 82 852 82 852 68.5 907.5 c 128,-1,80
 55 963 55 963 55 1022 c 0,81,82
 55 1114 55 1114 76.5 1184.5 c 128,-1,83
 98 1255 98 1255 134.5 1307 c 128,-1,84
 171 1359 171 1359 220 1396 c 128,-1,85
 269 1433 269 1433 324 1459 c 128,-1,86
 379 1485 379 1485 436.5 1501.5 c 128,-1,87
 494 1518 494 1518 549 1530 c 1,88,89
 547 1559 547 1559 546.5 1590.5 c 128,-1,90
 546 1622 546 1622 546 1665 c 0,91,92
 546 1690 546 1690 549.5 1710 c 128,-1,93
 553 1730 553 1730 567 1733 c 1,94,95
 587 1732 587 1732 607 1731.5 c 128,-1,96
 627 1731 627 1731 647 1731 c 0,97,98
 698 1731 698 1731 747 1732.5 c 128,-1,99
 796 1734 796 1734 847 1734 c 0,100,101
 860 1734 860 1734 868 1725.5 c 128,-1,102
 876 1717 876 1717 880.5 1703.5 c 128,-1,103
 885 1690 885 1690 886.5 1671.5 c 128,-1,104
 888 1653 888 1653 888 1634 c 0,105,106
 888 1605 888 1605 886 1577 c 128,-1,107
 884 1549 884 1549 884 1529 c 1,108,109
 961 1523 961 1523 1037 1507 c 128,-1,110
 1113 1491 1113 1491 1179 1458 c 128,-1,111
 1245 1425 1245 1425 1296.5 1370.5 c 128,-1,112
 1348 1316 1348 1316 1377 1233 c 0,113,114
 1386 1207 1386 1207 1390 1187.5 c 128,-1,115
 1394 1168 1394 1168 1396.5 1149.5 c 128,-1,116
 1399 1131 1399 1131 1400 1111 c 128,-1,117
 1401 1091 1401 1091 1403 1064 c 1,118,119
 1400 1048 1400 1048 1387 1047 c 0,120,121
 1385 1047 1385 1047 1382 1047.5 c 128,-1,122
 1379 1048 1379 1048 1376 1048 c 0,123,124
 1261 1048 1261 1048 1147.5 1043 c 128,-1,125
 1034 1038 1034 1038 919 1038 c 0,126,127
 896 1038 896 1038 882.5 1040 c 128,-1,128
 869 1042 869 1042 861 1048 c 128,-1,129
 853 1054 853 1054 849 1064.5 c 128,-1,130
 845 1075 845 1075 840 1093 c 0,131,132
 831 1123 831 1123 809.5 1143.5 c 128,-1,133
 788 1164 788 1164 740 1165 c 1,134,135
 721 1160 721 1160 701 1156 c 128,-1,136
 681 1152 681 1152 664 1145.5 c 128,-1,137
 647 1139 647 1139 635.5 1127 c 128,-1,138
 624 1115 624 1115 623 1096 c 1,0,1
EndSplineSet
EndChar

StartChar: percent
Encoding: 37 37 5
Width: 2153
Flags: W
LayerCount: 2
Fore
SplineSet
1237 461 m 0,0,1
 1242 510 1242 510 1248.5 562.5 c 128,-1,2
 1255 615 1255 615 1269.5 664.5 c 128,-1,3
 1284 714 1284 714 1308.5 758.5 c 128,-1,4
 1333 803 1333 803 1373 836 c 0,5,6
 1446 896 1446 896 1521 927 c 128,-1,7
 1596 958 1596 958 1687 958 c 0,8,9
 1718 958 1718 958 1754 954 c 128,-1,10
 1790 950 1790 950 1827 940.5 c 128,-1,11
 1864 931 1864 931 1900 916.5 c 128,-1,12
 1936 902 1936 902 1968 881 c 1,13,14
 1993 863 1993 863 2015 837 c 128,-1,15
 2037 811 2037 811 2054.5 782.5 c 128,-1,16
 2072 754 2072 754 2085.5 724.5 c 128,-1,17
 2099 695 2099 695 2108 669 c 0,18,19
 2124 622 2124 622 2130 570 c 128,-1,20
 2136 518 2136 518 2136 456 c 0,21,22
 2136 327 2136 327 2100 230.5 c 128,-1,23
 2064 134 2064 134 2001 69.5 c 128,-1,24
 1938 5 1938 5 1853 -27.5 c 128,-1,25
 1768 -60 1768 -60 1670 -60 c 0,26,27
 1579 -60 1579 -60 1512 -39 c 128,-1,28
 1445 -18 1445 -18 1396.5 18.5 c 128,-1,29
 1348 55 1348 55 1317 103.5 c 128,-1,30
 1286 152 1286 152 1268 207 c 128,-1,31
 1250 262 1250 262 1243 320 c 128,-1,32
 1236 378 1236 378 1236 434 c 0,33,34
 1236 441 1236 441 1236 447.5 c 128,-1,35
 1236 454 1236 454 1237 461 c 0,0,1
22 1040 m 1,36,37
 26 1088 26 1088 33 1138 c 128,-1,38
 40 1188 40 1188 54.5 1236.5 c 128,-1,39
 69 1285 69 1285 92.5 1329.5 c 128,-1,40
 116 1374 116 1374 152 1410 c 1,41,42
 224 1470 224 1470 303.5 1501.5 c 128,-1,43
 383 1533 383 1533 479 1533 c 0,44,45
 565 1533 565 1533 631 1513.5 c 128,-1,46
 697 1494 697 1494 745 1459.5 c 128,-1,47
 793 1425 793 1425 825.5 1379 c 128,-1,48
 858 1333 858 1333 877.5 1280 c 128,-1,49
 897 1227 897 1227 905 1169.5 c 128,-1,50
 913 1112 913 1112 913 1056 c 0,51,52
 913 951 913 951 890 854.5 c 128,-1,53
 867 758 867 758 813.5 683.5 c 128,-1,54
 760 609 760 609 671.5 564.5 c 128,-1,55
 583 520 583 520 452 520 c 0,56,57
 363 520 363 520 296 540.5 c 128,-1,58
 229 561 229 561 181 596.5 c 128,-1,59
 133 632 133 632 101.5 680 c 128,-1,60
 70 728 70 728 51.5 783.5 c 128,-1,61
 33 839 33 839 25.5 899 c 128,-1,62
 18 959 18 959 18 1019 c 0,63,64
 18 1031 18 1031 22 1040 c 1,36,37
807 -59 m 2,65,66
 799 -76 799 -76 763.5 -81.5 c 128,-1,67
 728 -87 728 -87 680 -87 c 0,68,69
 645 -87 645 -87 612.5 -86 c 128,-1,70
 580 -85 580 -85 555 -84 c 1,71,-1
 527 -14 l 1,72,73
 685 282 685 282 849 573 c 128,-1,74
 1013 864 1013 864 1169 1154 c 1,75,-1
 1284 1363 l 2,76,77
 1307 1406 1307 1406 1330.5 1447 c 128,-1,78
 1354 1488 1354 1488 1376 1530 c 1,79,80
 1383 1538 1383 1538 1391 1543 c 1,81,82
 1416 1543 1416 1543 1455 1543 c 128,-1,83
 1494 1543 1494 1543 1531 1542 c 128,-1,84
 1568 1541 1568 1541 1594.5 1539.5 c 128,-1,85
 1621 1538 1621 1538 1621 1535 c 2,86,-1
 1621 1534 l 1,87,88
 1573 1446 1573 1446 1526 1353.5 c 128,-1,89
 1479 1261 1479 1261 1428 1164 c 1,90,-1
 1343 997 l 2,91,92
 1283 879 1283 879 1221 766 c 128,-1,93
 1159 653 1159 653 1105 535 c 1,94,-1
 1018 366 l 1,95,-1
 807 -59 l 2,65,66
1684 715 m 1,96,97
 1645 715 1645 715 1624 684 c 128,-1,98
 1603 653 1603 653 1594 610 c 128,-1,99
 1585 567 1585 567 1583.5 521 c 128,-1,100
 1582 475 1582 475 1582 446 c 2,101,-1
 1582 412 l 1,102,103
 1583 379 1583 379 1586 337.5 c 128,-1,104
 1589 296 1589 296 1599.5 259.5 c 128,-1,105
 1610 223 1610 223 1631.5 198.5 c 128,-1,106
 1653 174 1653 174 1691 174 c 0,107,108
 1721 174 1721 174 1740 191.5 c 128,-1,109
 1759 209 1759 209 1769 236 c 128,-1,110
 1779 263 1779 263 1782.5 295 c 128,-1,111
 1786 327 1786 327 1786 356 c 256,112,113
 1786 385 1786 385 1785.5 414.5 c 128,-1,114
 1785 444 1785 444 1785 473 c 0,115,116
 1785 483 1785 483 1785.5 498.5 c 128,-1,117
 1786 514 1786 514 1786 533 c 0,118,119
 1786 561 1786 561 1782.5 593.5 c 128,-1,120
 1779 626 1779 626 1768 653 c 128,-1,121
 1757 680 1757 680 1737.5 698 c 128,-1,122
 1718 716 1718 716 1686 716 c 0,123,124
 1684 716 1684 716 1684 715 c 1,96,97
472 1295 m 1,125,126
 432 1293 432 1293 410.5 1262 c 128,-1,127
 389 1231 389 1231 379 1187.5 c 128,-1,128
 369 1144 369 1144 367.5 1098 c 128,-1,129
 366 1052 366 1052 366 1021 c 1,130,131
 367 1002 367 1002 367 975 c 128,-1,132
 367 948 367 948 369.5 918 c 128,-1,133
 372 888 372 888 377.5 858 c 128,-1,134
 383 828 383 828 395 804.5 c 128,-1,135
 407 781 407 781 426 766 c 128,-1,136
 445 751 445 751 475 751 c 2,137,-1
 477 751 l 2,138,139
 508 751 508 751 525.5 772.5 c 128,-1,140
 543 794 543 794 552 824.5 c 128,-1,141
 561 855 561 855 563 888 c 128,-1,142
 565 921 565 921 565 943 c 0,143,144
 565 963 565 963 564.5 983 c 128,-1,145
 564 1003 564 1003 564 1025 c 0,146,147
 564 1045 564 1045 564.5 1065.5 c 128,-1,148
 565 1086 565 1086 565 1107 c 0,149,150
 565 1139 565 1139 562.5 1172.5 c 128,-1,151
 560 1206 560 1206 550.5 1233 c 128,-1,152
 541 1260 541 1260 522.5 1277.5 c 128,-1,153
 504 1295 504 1295 472 1295 c 1,125,126
EndSplineSet
EndChar

StartChar: ampersand
Encoding: 38 38 6
Width: 1815
Flags: W
LayerCount: 2
Fore
SplineSet
1637 798 m 2,0,1
 1659 798 1659 798 1681.5 798 c 128,-1,2
 1704 798 1704 798 1726 799 c 1,3,4
 1740 797 1740 797 1747 790.5 c 128,-1,5
 1754 784 1754 784 1759 765 c 1,6,-1
 1755 726 l 1,7,8
 1756 725 1756 725 1756 724 c 0,9,10
 1751 671 1751 671 1737 616 c 128,-1,11
 1723 561 1723 561 1699.5 507.5 c 128,-1,12
 1676 454 1676 454 1643 404.5 c 128,-1,13
 1610 355 1610 355 1568 313 c 1,14,-1
 1684 195 l 1,15,16
 1710 165 1710 165 1738 136 c 128,-1,17
 1766 107 1766 107 1790 78 c 0,18,19
 1797 70 1797 70 1807 60.5 c 128,-1,20
 1817 51 1817 51 1826 41 c 128,-1,21
 1835 31 1835 31 1841 21 c 128,-1,22
 1847 11 1847 11 1847 1 c 0,23,24
 1847 -26 1847 -26 1810 -31 c 1,25,26
 1725 -31 1725 -31 1642.5 -31.5 c 128,-1,27
 1560 -32 1560 -32 1476 -32 c 0,28,29
 1422 -32 1422 -32 1371 -31 c 128,-1,30
 1320 -30 1320 -30 1266 -28 c 1,31,32
 1240 -16 1240 -16 1218 3.5 c 128,-1,33
 1196 23 1196 23 1173 41 c 1,34,-1
 1133 22 l 1,35,36
 1054 -12 1054 -12 964.5 -36.5 c 128,-1,37
 875 -61 875 -61 784 -67 c 2,38,-1
 739 -70 l 1,39,-1
 695 -70 l 2,40,41
 545 -70 545 -70 420 -36 c 128,-1,42
 295 -2 295 -2 205 58 c 128,-1,43
 115 118 115 118 65 199.5 c 128,-1,44
 15 281 15 281 15 376 c 0,45,46
 15 459 15 459 42.5 525.5 c 128,-1,47
 70 592 70 592 119 644.5 c 128,-1,48
 168 697 168 697 234 736 c 128,-1,49
 300 775 300 775 377 803 c 1,50,51
 334 831 334 831 295 869 c 128,-1,52
 256 907 256 907 227 951.5 c 128,-1,53
 198 996 198 996 180.5 1046 c 128,-1,54
 163 1096 163 1096 163 1149 c 0,55,56
 163 1215 163 1215 191 1279 c 128,-1,57
 219 1343 219 1343 267 1387 c 0,58,59
 295 1413 295 1413 342.5 1438.5 c 128,-1,60
 390 1464 390 1464 452.5 1484.5 c 128,-1,61
 515 1505 515 1505 590 1518 c 128,-1,62
 665 1531 665 1531 748 1531 c 0,63,64
 813 1531 813 1531 881 1525.5 c 128,-1,65
 949 1520 949 1520 1013.5 1507 c 128,-1,66
 1078 1494 1078 1494 1137 1471.5 c 128,-1,67
 1196 1449 1196 1449 1244 1415 c 0,68,69
 1315 1365 1315 1365 1343.5 1299.5 c 128,-1,70
 1372 1234 1372 1234 1372 1164 c 0,71,72
 1372 1102 1372 1102 1351 1048.5 c 128,-1,73
 1330 995 1330 995 1292.5 947 c 128,-1,74
 1255 899 1255 899 1203 854 c 128,-1,75
 1151 809 1151 809 1089 764 c 1,76,77
 1103 750 1103 750 1119 735 c 128,-1,78
 1135 720 1135 720 1151 706 c 2,79,-1
 1239 623 l 1,80,81
 1252 641 1252 641 1260.5 659 c 128,-1,82
 1269 677 1269 677 1274 694 c 0,83,84
 1279 712 1279 712 1279.5 730 c 128,-1,85
 1280 748 1280 748 1286.5 763.5 c 128,-1,86
 1293 779 1293 779 1309.5 789 c 128,-1,87
 1326 799 1326 799 1362 800 c 0,88,89
 1393 801 1393 801 1422.5 801 c 128,-1,90
 1452 801 1452 801 1481 801 c 0,91,92
 1519 801 1519 801 1558 799.5 c 128,-1,93
 1597 798 1597 798 1635 798 c 2,94,-1
 1637 798 l 2,0,1
740 233 m 0,95,96
 800 233 800 233 854 251 c 128,-1,97
 908 269 908 269 959 296 c 1,98,99
 929 329 929 329 899.5 355 c 128,-1,100
 870 381 870 381 840 410 c 2,101,-1
 790 458 l 2,102,103
 778 470 778 470 765 482 c 128,-1,104
 752 494 752 494 739 506 c 0,105,106
 728 516 728 516 713.5 530 c 128,-1,107
 699 544 699 544 685.5 557 c 128,-1,108
 672 570 672 570 660.5 579 c 128,-1,109
 649 588 649 588 643 588 c 1,110,111
 621 578 621 578 599 558 c 128,-1,112
 577 538 577 538 559.5 512 c 128,-1,113
 542 486 542 486 531 457 c 128,-1,114
 520 428 520 428 520 400 c 0,115,116
 520 357 520 357 541 325.5 c 128,-1,117
 562 294 562 294 594.5 273.5 c 128,-1,118
 627 253 627 253 665.5 243 c 128,-1,119
 704 233 704 233 740 233 c 0,95,96
760 975 m 0,120,121
 768 970 768 970 775 970 c 0,122,123
 778 970 778 970 781.5 970.5 c 128,-1,124
 785 971 785 971 789 973 c 0,125,126
 811 990 811 990 836 1010.5 c 128,-1,127
 861 1031 861 1031 881 1054 c 128,-1,128
 901 1077 901 1077 914.5 1103 c 128,-1,129
 928 1129 928 1129 928 1157 c 0,130,131
 928 1191 928 1191 911 1214 c 128,-1,132
 894 1237 894 1237 869 1250.5 c 128,-1,133
 844 1264 844 1264 814.5 1269.5 c 128,-1,134
 785 1275 785 1275 760 1275 c 0,135,136
 732 1275 732 1275 705 1266.5 c 128,-1,137
 678 1258 678 1258 657 1241.5 c 128,-1,138
 636 1225 636 1225 623 1200.5 c 128,-1,139
 610 1176 610 1176 610 1145 c 1,140,141
 613 1117 613 1117 628.5 1092 c 128,-1,142
 644 1067 644 1067 665.5 1045.5 c 128,-1,143
 687 1024 687 1024 712 1006.5 c 128,-1,144
 737 989 737 989 760 975 c 0,120,121
EndSplineSet
EndChar

StartChar: quoteright
Encoding: 8217 8217 7
Width: 725
Flags: W
LayerCount: 2
Fore
SplineSet
472 866 m 1,0,1
 467 857 467 857 447 851.5 c 128,-1,2
 427 846 427 846 398 843.5 c 128,-1,3
 369 841 369 841 334.5 840 c 128,-1,4
 300 839 300 839 267 839 c 2,5,-1
 180 839 l 2,6,7
 167 839 167 839 155 838.5 c 128,-1,8
 143 838 143 838 130 838 c 0,9,10
 110 838 110 838 90 838.5 c 128,-1,11
 70 839 70 839 51 840 c 1,12,-1
 34 855 l 1,13,-1
 20 877 l 1,14,15
 32 925 32 925 43 971.5 c 128,-1,16
 54 1018 54 1018 67 1064 c 1,17,18
 66 1062 66 1062 73 1094 c 128,-1,19
 80 1126 80 1126 91.5 1174.5 c 128,-1,20
 103 1223 103 1223 117.5 1280.5 c 128,-1,21
 132 1338 132 1338 147.5 1388 c 128,-1,22
 163 1438 163 1438 177 1471.5 c 128,-1,23
 191 1505 191 1505 201 1506 c 0,24,25
 217 1508 217 1508 233.5 1508 c 128,-1,26
 250 1508 250 1508 267 1508 c 2,27,-1
 313 1508 l 1,28,-1
 379 1508 l 2,29,30
 402 1508 402 1508 440.5 1509 c 128,-1,31
 479 1510 479 1510 521 1510 c 0,32,33
 552 1510 552 1510 582 1509 c 128,-1,34
 612 1508 612 1508 635.5 1504.5 c 128,-1,35
 659 1501 659 1501 673.5 1495 c 128,-1,36
 688 1489 688 1489 688 1480 c 0,37,38
 688 1477 688 1477 687 1473.5 c 128,-1,39
 686 1470 686 1470 686 1467 c 1,40,41
 660 1396 660 1396 633.5 1320 c 128,-1,42
 607 1244 607 1244 580.5 1167.5 c 128,-1,43
 554 1091 554 1091 527 1014.5 c 128,-1,44
 500 938 500 938 472 866 c 1,0,1
EndSplineSet
EndChar

StartChar: parenleft
Encoding: 40 40 8
Width: 832
Flags: W
LayerCount: 2
Fore
SplineSet
770 -323 m 1,0,-1
 712 -323 l 2,1,2
 628 -323 628 -323 547.5 -319.5 c 128,-1,3
 467 -316 467 -316 385 -316 c 1,4,5
 373 -312 373 -312 359.5 -290 c 128,-1,6
 346 -268 346 -268 332 -236 c 128,-1,7
 318 -204 318 -204 304.5 -165.5 c 128,-1,8
 291 -127 291 -127 279 -90.5 c 128,-1,9
 267 -54 267 -54 257.5 -22.5 c 128,-1,10
 248 9 248 9 242 27 c 0,11,12
 190 166 190 166 159.5 309 c 128,-1,13
 129 452 129 452 124 614 c 1,14,15
 128 666 128 666 139 731.5 c 128,-1,16
 150 797 150 797 165.5 868.5 c 128,-1,17
 181 940 181 940 200 1014 c 128,-1,18
 219 1088 219 1088 239.5 1158 c 128,-1,19
 260 1228 260 1228 280.5 1289.5 c 128,-1,20
 301 1351 301 1351 319.5 1397 c 128,-1,21
 338 1443 338 1443 353.5 1471 c 128,-1,22
 369 1499 369 1499 379 1501 c 1,23,24
 383 1503 383 1503 391 1503 c 0,25,26
 485 1508 485 1508 578.5 1509 c 128,-1,27
 672 1510 672 1510 766 1512 c 1,28,29
 780 1510 780 1510 786 1502.5 c 128,-1,30
 792 1495 792 1495 796 1481 c 1,31,32
 783 1430 783 1430 769.5 1379.5 c 128,-1,33
 756 1329 756 1329 742 1277 c 1,34,35
 716 1191 716 1191 694 1104.5 c 128,-1,36
 672 1018 672 1018 655.5 932.5 c 128,-1,37
 639 847 639 847 629.5 764 c 128,-1,38
 620 681 620 681 620 602 c 1,39,40
 626 440 626 440 660 269 c 128,-1,41
 694 98 694 98 748 -76 c 1,42,-1
 805 -277 l 1,43,44
 800 -284 800 -284 796 -290 c 128,-1,45
 792 -296 792 -296 786 -301 c 1,46,-1
 770 -323 l 1,0,-1
EndSplineSet
EndChar

StartChar: parenright
Encoding: 41 41 9
Width: 835
Flags: W
LayerCount: 2
Fore
SplineSet
447 -304 m 0,0,1
 446 -305 446 -305 444 -305 c 0,2,3
 441 -305 441 -305 441 -303 c 1,4,5
 402 -305 402 -305 361.5 -306.5 c 128,-1,6
 321 -308 321 -308 281 -308 c 0,7,8
 251 -308 251 -308 221 -307.5 c 128,-1,9
 191 -307 191 -307 162 -307 c 0,10,11
 136 -307 136 -307 111 -307.5 c 128,-1,12
 86 -308 86 -308 61 -310 c 1,13,14
 44 -305 44 -305 44 -297 c 0,15,16
 44 -287 44 -287 50 -272.5 c 128,-1,17
 56 -258 56 -258 59 -248 c 0,18,19
 83 -166 83 -166 109.5 -65.5 c 128,-1,20
 136 35 136 35 158.5 144.5 c 128,-1,21
 181 254 181 254 195.5 368 c 128,-1,22
 210 482 210 482 210 590 c 0,23,24
 210 668 210 668 199.5 753 c 128,-1,25
 189 838 189 838 172 924 c 128,-1,26
 155 1010 155 1010 133 1095 c 128,-1,27
 111 1180 111 1180 89 1259 c 2,28,-1
 25 1484 l 1,29,30
 32 1495 32 1495 40.5 1504.5 c 128,-1,31
 49 1514 49 1514 59 1523 c 1,32,-1
 199 1523 l 2,33,34
 259 1523 259 1523 315.5 1523.5 c 128,-1,35
 372 1524 372 1524 432 1524 c 0,36,37
 458 1524 458 1524 476 1493 c 1,38,39
 513 1387 513 1387 554.5 1277.5 c 128,-1,40
 596 1168 596 1168 630.5 1055 c 128,-1,41
 665 942 665 942 687.5 826.5 c 128,-1,42
 710 711 710 711 710 593 c 1,43,44
 708 512 708 512 695 430 c 128,-1,45
 682 348 682 348 660 267 c 0,46,47
 653 241 653 241 637 189.5 c 128,-1,48
 621 138 621 138 601 75 c 128,-1,49
 581 12 581 12 558 -54 c 128,-1,50
 535 -120 535 -120 513.5 -175 c 128,-1,51
 492 -230 492 -230 474.5 -266 c 128,-1,52
 457 -302 457 -302 447 -304 c 0,0,1
EndSplineSet
EndChar

StartChar: asterisk
Encoding: 42 42 10
Width: 930
Flags: W
LayerCount: 2
Fore
SplineSet
197 840 m 2,0,1
 190 844 190 844 184 845 c 128,-1,2
 178 846 178 846 178 854 c 0,3,4
 178 863 178 863 187 882.5 c 128,-1,5
 196 902 196 902 208.5 925 c 128,-1,6
 221 948 221 948 234.5 970.5 c 128,-1,7
 248 993 248 993 257 1008 c 1,8,9
 242 1008 242 1008 218.5 1007 c 128,-1,10
 195 1006 195 1006 181 1006 c 0,11,12
 164 1006 164 1006 145.5 1006 c 128,-1,13
 127 1006 127 1006 110 1007 c 1,14,15
 98 1017 98 1017 91.5 1027 c 128,-1,16
 85 1037 85 1037 81 1051.5 c 128,-1,17
 77 1066 77 1066 76 1087.5 c 128,-1,18
 75 1109 75 1109 75 1141 c 0,19,20
 75 1180 75 1180 82.5 1210 c 128,-1,21
 90 1240 90 1240 107 1247 c 1,22,23
 142 1247 142 1247 187 1246.5 c 128,-1,24
 232 1246 232 1246 269 1244 c 1,25,-1
 236 1295 l 1,26,-1
 237 1294 l 1,27,28
 228 1307 228 1307 219 1323 c 128,-1,29
 210 1339 210 1339 202 1354 c 128,-1,30
 194 1369 194 1369 188.5 1383 c 128,-1,31
 183 1397 183 1397 182 1408 c 0,32,33
 182 1419 182 1419 197.5 1428.5 c 128,-1,34
 213 1438 213 1438 229 1443 c 1,35,-1
 252 1459 l 2,36,37
 264 1467 264 1467 279.5 1477.5 c 128,-1,38
 295 1488 295 1488 311 1497 c 128,-1,39
 327 1506 327 1506 341.5 1512 c 128,-1,40
 356 1518 356 1518 367 1518 c 0,41,42
 373 1518 373 1518 381.5 1507.5 c 128,-1,43
 390 1497 390 1497 399.5 1481.5 c 128,-1,44
 409 1466 409 1466 419.5 1447 c 128,-1,45
 430 1428 430 1428 439 1410 c 1,46,-1
 439 1411 l 1,47,-1
 472 1349 l 1,48,49
 477 1362 477 1362 483 1376.5 c 128,-1,50
 489 1391 489 1391 495 1403 c 2,51,-1
 506 1426 l 2,52,53
 510 1435 510 1435 518 1450 c 128,-1,54
 526 1465 526 1465 535 1480 c 128,-1,55
 544 1495 544 1495 553.5 1506.5 c 128,-1,56
 563 1518 563 1518 569 1520 c 1,57,-1
 584 1512 l 2,58,59
 601 1504 601 1504 628.5 1491 c 128,-1,60
 656 1478 656 1478 682.5 1463.5 c 128,-1,61
 709 1449 709 1449 728 1435 c 128,-1,62
 747 1421 747 1421 747 1411 c 0,63,64
 747 1395 747 1395 740.5 1382 c 128,-1,65
 734 1369 734 1369 722.5 1351.5 c 128,-1,66
 711 1334 711 1334 694.5 1308.5 c 128,-1,67
 678 1283 678 1283 658 1241 c 1,68,-1
 685 1244 l 1,69,70
 706 1248 706 1248 729 1248.5 c 128,-1,71
 752 1249 752 1249 775 1249 c 2,72,-1
 788 1249 l 2,73,74
 802 1249 802 1249 817.5 1246 c 128,-1,75
 833 1243 833 1243 846 1243 c 1,76,77
 852 1238 852 1238 854 1214.5 c 128,-1,78
 856 1191 856 1191 856 1162 c 256,79,80
 856 1133 856 1133 850 1103 c 1,81,-1
 850 1051 l 2,82,83
 850 1043 850 1043 831.5 1038.5 c 128,-1,84
 813 1034 813 1034 785.5 1032 c 128,-1,85
 758 1030 758 1030 726 1029 c 128,-1,86
 694 1028 694 1028 667 1028 c 1,87,-1
 688 994 l 2,88,89
 696 981 696 981 702.5 969.5 c 128,-1,90
 709 958 709 958 714 944 c 1,91,-1
 732 913 l 2,92,93
 735 909 735 909 739.5 901 c 128,-1,94
 744 893 744 893 748.5 884 c 128,-1,95
 753 875 753 875 756 866 c 128,-1,96
 759 857 759 857 759 853 c 0,97,98
 759 846 759 846 758 843 c 1,99,100
 758 846 758 846 755 851 c 1,101,-1
 621 767 l 1,102,-1
 621 768 l 1,103,-1
 586 747 l 1,104,-1
 587 747 l 1,105,106
 585 746 585 746 583 745.5 c 128,-1,107
 581 745 581 745 578 745 c 0,108,109
 570 745 570 745 556.5 762.5 c 128,-1,110
 543 780 543 780 528 804 c 128,-1,111
 513 828 513 828 498 853 c 128,-1,112
 483 878 483 878 474 894 c 1,113,-1
 452 850 l 2,114,115
 443 833 443 833 433 813.5 c 128,-1,116
 423 794 423 794 413 777.5 c 128,-1,117
 403 761 403 761 393 750 c 128,-1,118
 383 739 383 739 376 739 c 0,119,120
 367 739 367 739 351.5 746 c 128,-1,121
 336 753 336 753 318 763.5 c 128,-1,122
 300 774 300 774 280.5 786.5 c 128,-1,123
 261 799 261 799 244 810 c 2,124,-1
 197 840 l 2,0,1
EndSplineSet
EndChar

StartChar: plus
Encoding: 43 43 11
Width: 1271
Flags: W
LayerCount: 2
Fore
SplineSet
1030 375 m 2,0,1
 969 375 969 375 910 375.5 c 128,-1,2
 851 376 851 376 790 376 c 1,3,4
 794 291 794 291 794 207.5 c 128,-1,5
 794 124 794 124 794 39 c 0,6,7
 794 22 794 22 790.5 12 c 128,-1,8
 787 2 787 2 778.5 -3 c 128,-1,9
 770 -8 770 -8 755.5 -9.5 c 128,-1,10
 741 -11 741 -11 720 -11 c 0,11,12
 665 -11 665 -11 617.5 -12 c 128,-1,13
 570 -13 570 -13 516 -13 c 0,14,15
 497 -13 497 -13 486.5 -9 c 128,-1,16
 476 -5 476 -5 476 7 c 0,17,18
 476 10 476 10 477 11 c 1,19,-1
 471 358 l 1,20,21
 460 358 460 358 449.5 357.5 c 128,-1,22
 439 357 439 357 428 357 c 0,23,24
 407 357 407 357 386.5 357.5 c 128,-1,25
 366 358 366 358 344 358 c 0,26,27
 325 358 325 358 306.5 357.5 c 128,-1,28
 288 357 288 357 269 357 c 0,29,30
 231 357 231 357 193.5 357.5 c 128,-1,31
 156 358 156 358 118 358 c 1,32,33
 96 363 96 363 90.5 390 c 128,-1,34
 85 417 85 417 85 449 c 0,35,36
 85 463 85 463 85.5 476.5 c 128,-1,37
 86 490 86 490 86 501 c 0,38,39
 86 532 86 532 85.5 562.5 c 128,-1,40
 85 593 85 593 85 624 c 0,41,42
 85 645 85 645 86 658.5 c 128,-1,43
 87 672 87 672 92.5 680 c 128,-1,44
 98 688 98 688 109.5 691.5 c 128,-1,45
 121 695 121 695 141 695 c 0,46,47
 222 695 222 695 301.5 695.5 c 128,-1,48
 381 696 381 696 462 697 c 1,49,50
 463 770 463 770 464 841 c 128,-1,51
 465 912 465 912 465 985 c 2,52,-1
 465 1017 l 2,53,54
 465 1033 465 1033 466.5 1044 c 128,-1,55
 468 1055 468 1055 473.5 1062 c 128,-1,56
 479 1069 479 1069 490.5 1072.5 c 128,-1,57
 502 1076 502 1076 522 1076 c 0,58,59
 540 1076 540 1076 558.5 1075.5 c 128,-1,60
 577 1075 577 1075 595 1075 c 2,61,-1
 644 1075 l 2,62,63
 649 1075 649 1075 665.5 1076 c 128,-1,64
 682 1077 682 1077 702 1077 c 0,65,66
 718 1077 718 1077 735 1076 c 128,-1,67
 752 1075 752 1075 765.5 1071.5 c 128,-1,68
 779 1068 779 1068 788 1062 c 128,-1,69
 797 1056 797 1056 798 1047 c 1,70,71
 798 956 798 956 796.5 867.5 c 128,-1,72
 795 779 795 779 795 688 c 1,73,-1
 1148 690 l 1,74,75
 1165 688 1165 688 1170 676 c 128,-1,76
 1175 664 1175 664 1175 642 c 0,77,78
 1176 597 1176 597 1175 554.5 c 128,-1,79
 1174 512 1174 512 1174 467 c 2,80,-1
 1174 434 l 2,81,82
 1174 413 1174 413 1171.5 394.5 c 128,-1,83
 1169 376 1169 376 1159 375 c 0,84,85
 1153 375 1153 375 1151 376 c 1,86,87
 1139 375 1139 375 1127.5 375 c 128,-1,88
 1116 375 1116 375 1103 375 c 2,89,-1
 1030 375 l 2,0,1
EndSplineSet
EndChar

StartChar: comma
Encoding: 44 44 12
Width: 735
Flags: W
LayerCount: 2
Fore
SplineSet
532 -33 m 0,0,1
 518 -79 518 -79 501 -124 c 128,-1,2
 484 -169 484 -169 467 -214 c 1,3,4
 462 -222 462 -222 442 -227 c 128,-1,5
 422 -232 422 -232 392.5 -235 c 128,-1,6
 363 -238 363 -238 327 -239 c 128,-1,7
 291 -240 291 -240 254 -240 c 256,8,9
 217 -240 217 -240 182.5 -239.5 c 128,-1,10
 148 -239 148 -239 121 -239 c 2,11,-1
 96 -239 l 1,12,-1
 66 -239 l 2,13,14
 55 -239 55 -239 45 -239 c 128,-1,15
 35 -239 35 -239 24 -237 c 1,16,-1
 -9 -206 l 1,17,18
 -1 -174 -1 -174 12 -114 c 128,-1,19
 25 -54 25 -54 40.5 17.5 c 128,-1,20
 56 89 56 89 73 163.5 c 128,-1,21
 90 238 90 238 106.5 299 c 128,-1,22
 123 360 123 360 138 400 c 128,-1,23
 153 440 153 440 164 441 c 0,24,25
 195 443 195 443 226 443 c 128,-1,26
 257 443 257 443 289 443 c 2,27,-1
 375 443 l 2,28,29
 398 443 398 443 438 444.5 c 128,-1,30
 478 446 478 446 520 446 c 0,31,32
 549 446 549 446 576.5 444.5 c 128,-1,33
 604 443 604 443 625 439.5 c 128,-1,34
 646 436 646 436 658.5 430 c 128,-1,35
 671 424 671 424 671 415 c 0,36,37
 671 413 671 413 670.5 410.5 c 128,-1,38
 670 408 670 408 670 405 c 0,39,40
 633 300 633 300 600 189.5 c 128,-1,41
 567 79 567 79 532 -33 c 0,0,1
EndSplineSet
EndChar

StartChar: hyphen
Encoding: 45 45 13
Width: 859
Flags: W
LayerCount: 2
Fore
SplineSet
807 396 m 1,0,1
 805 382 805 382 800 371.5 c 128,-1,2
 795 361 795 361 781 361 c 0,3,4
 602 361 602 361 425.5 351 c 128,-1,5
 249 341 249 341 71 341 c 1,6,7
 62 350 62 350 53 359 c 128,-1,8
 44 368 44 368 36 379 c 1,9,10
 37 425 37 425 38 472 c 128,-1,11
 39 519 39 519 39 565 c 0,12,13
 39 581 39 581 38 601 c 128,-1,14
 37 621 37 621 37 642 c 0,15,16
 37 661 37 661 38 679.5 c 128,-1,17
 39 698 39 698 42.5 712 c 128,-1,18
 46 726 46 726 52 735 c 128,-1,19
 58 744 58 744 68 744 c 0,20,21
 211 745 211 745 352.5 744.5 c 128,-1,22
 494 744 494 744 640 746 c 0,23,24
 675 746 675 746 710.5 745.5 c 128,-1,25
 746 745 746 745 781 745 c 1,26,27
 792 743 792 743 797.5 722.5 c 128,-1,28
 803 702 803 702 805.5 672.5 c 128,-1,29
 808 643 808 643 808 609.5 c 128,-1,30
 808 576 808 576 808 548 c 0,31,32
 808 508 808 508 807.5 470.5 c 128,-1,33
 807 433 807 433 807 396 c 1,0,1
EndSplineSet
EndChar

StartChar: period
Encoding: 46 46 14
Width: 775
Flags: W
LayerCount: 2
Fore
SplineSet
657 118 m 1,0,-1
 657 84 l 2,1,2
 657 74 657 74 657.5 62.5 c 128,-1,3
 658 51 658 51 658 39 c 0,4,5
 658 17 658 17 653.5 -0.5 c 128,-1,6
 649 -18 649 -18 635 -18 c 0,7,8
 633 -18 633 -18 632 -17.5 c 128,-1,9
 631 -17 631 -17 629 -17 c 0,10,11
 532 -22 532 -22 436 -25.5 c 128,-1,12
 340 -29 340 -29 240 -31 c 2,13,-1
 144 -33 l 1,14,-1
 112 14 l 1,15,16
 111 22 111 22 111 29 c 128,-1,17
 111 36 111 36 111 44 c 0,18,19
 111 68 111 68 112.5 92.5 c 128,-1,20
 114 117 114 117 114 143 c 2,21,-1
 114 195 l 2,22,23
 114 230 114 230 115 272.5 c 128,-1,24
 116 315 116 315 119 352 c 128,-1,25
 122 389 122 389 128.5 414.5 c 128,-1,26
 135 440 135 440 146 441 c 1,27,28
 231 440 231 440 315.5 439.5 c 128,-1,29
 400 439 400 439 488 439 c 0,30,31
 501 439 501 439 518 439.5 c 128,-1,32
 535 440 535 440 555 440 c 0,33,34
 573 440 573 440 590 439 c 128,-1,35
 607 438 607 438 620.5 435 c 128,-1,36
 634 432 634 432 642.5 426 c 128,-1,37
 651 420 651 420 651 411 c 0,38,39
 653 339 653 339 654 264.5 c 128,-1,40
 655 190 655 190 657 118 c 1,0,-1
EndSplineSet
EndChar

StartChar: slash
Encoding: 47 47 15
Width: 804
Flags: W
LayerCount: 2
Fore
SplineSet
153 -68 m 1,0,1
 126 -72 126 -72 99.5 -72.5 c 128,-1,2
 73 -73 73 -73 47 -73 c 2,3,-1
 -14 -73 l 1,4,5
 -24 -53 -24 -53 -32.5 -33 c 128,-1,6
 -41 -13 -41 -13 -49 8 c 1,7,8
 -43 29 -43 29 -34.5 50.5 c 128,-1,9
 -26 72 -26 72 -18 93 c 0,10,11
 105 430 105 430 230 767.5 c 128,-1,12
 355 1105 355 1105 485 1446 c 2,13,-1
 518 1533 l 1,14,15
 523 1541 523 1541 550.5 1544 c 128,-1,16
 578 1547 578 1547 613 1547 c 0,17,18
 652 1547 652 1547 689.5 1545.5 c 128,-1,19
 727 1544 727 1544 746 1544 c 0,20,21
 754 1544 754 1544 762.5 1544.5 c 128,-1,22
 771 1545 771 1545 780 1545 c 0,23,24
 803 1545 803 1545 821.5 1540 c 128,-1,25
 840 1535 840 1535 840 1515 c 0,26,27
 840 1494 840 1494 833 1468.5 c 128,-1,28
 826 1443 826 1443 816 1415.5 c 128,-1,29
 806 1388 806 1388 795 1361 c 128,-1,30
 784 1334 784 1334 777 1310 c 1,31,32
 724 1161 724 1161 673 1009 c 128,-1,33
 622 857 622 857 571 703.5 c 128,-1,34
 520 550 520 550 467 396 c 128,-1,35
 414 242 414 242 357 90 c 0,36,37
 345 60 345 60 338 32 c 128,-1,38
 331 4 331 4 316.5 -17.5 c 128,-1,39
 302 -39 302 -39 274 -52.5 c 128,-1,40
 246 -66 246 -66 192 -68 c 1,41,-1
 153 -68 l 1,0,1
EndSplineSet
EndChar

StartChar: zero
Encoding: 48 48 16
Width: 1462
Flags: W
LayerCount: 2
Fore
SplineSet
733 1189 m 0,0,1
 687 1189 687 1189 656.5 1166.5 c 128,-1,2
 626 1144 626 1144 606 1105.5 c 128,-1,3
 586 1067 586 1067 575.5 1017 c 128,-1,4
 565 967 565 967 560.5 912 c 128,-1,5
 556 857 556 857 555.5 801.5 c 128,-1,6
 555 746 555 746 555 696 c 0,7,8
 555 659 555 659 556.5 615 c 128,-1,9
 558 571 558 571 563 527 c 128,-1,10
 568 483 568 483 578.5 442 c 128,-1,11
 589 401 589 401 606.5 369 c 128,-1,12
 624 337 624 337 650 318 c 128,-1,13
 676 299 676 299 713 299 c 0,14,15
 757 299 757 299 786 319 c 128,-1,16
 815 339 815 339 833 372.5 c 128,-1,17
 851 406 851 406 860 448 c 128,-1,18
 869 490 869 490 873 534.5 c 128,-1,19
 877 579 877 579 877.5 622 c 128,-1,20
 878 665 878 665 879 699 c 1,21,22
 882 743 882 743 882.5 788.5 c 128,-1,23
 883 834 883 834 883 882 c 0,24,25
 883 911 883 911 881.5 945 c 128,-1,26
 880 979 880 979 875.5 1013 c 128,-1,27
 871 1047 871 1047 861 1079 c 128,-1,28
 851 1111 851 1111 834.5 1135.5 c 128,-1,29
 818 1160 818 1160 793 1174.5 c 128,-1,30
 768 1189 768 1189 733 1189 c 0,0,1
1347 346 m 1,31,32
 1307 241 1307 241 1242.5 165 c 128,-1,33
 1178 89 1178 89 1095 40 c 128,-1,34
 1012 -9 1012 -9 913.5 -32.5 c 128,-1,35
 815 -56 815 -56 707 -57 c 1,36,37
 548 -57 548 -57 431 -11.5 c 128,-1,38
 314 34 314 34 234 111 c 128,-1,39
 154 188 154 188 107.5 289 c 128,-1,40
 61 390 61 390 42 500 c 0,41,42
 30 569 30 569 26.5 629.5 c 128,-1,43
 23 690 23 690 20 735 c 1,44,45
 20 948 20 948 72.5 1097 c 128,-1,46
 125 1246 125 1246 218 1343 c 128,-1,47
 311 1440 311 1440 439.5 1489 c 128,-1,48
 568 1538 568 1538 721 1550 c 1,49,-1
 736 1550 l 2,50,51
 881 1550 881 1550 988 1513.5 c 128,-1,52
 1095 1477 1095 1477 1171 1415 c 128,-1,53
 1247 1353 1247 1353 1295 1270.5 c 128,-1,54
 1343 1188 1343 1188 1370.5 1095.5 c 128,-1,55
 1398 1003 1398 1003 1408 906 c 128,-1,56
 1418 809 1418 809 1418 719 c 256,57,58
 1418 629 1418 629 1401 534.5 c 128,-1,59
 1384 440 1384 440 1347 346 c 1,31,32
EndSplineSet
EndChar

StartChar: one
Encoding: 49 49 17
Width: 1579
Flags: W
LayerCount: 2
Fore
SplineSet
1112 606 m 1,0,1
 1112 456 1112 456 1115.5 305.5 c 128,-1,2
 1119 155 1119 155 1119 5 c 1,3,4
 1117 -7 1117 -7 1104 -14 c 128,-1,5
 1091 -21 1091 -21 1071 -25 c 128,-1,6
 1051 -29 1051 -29 1026 -30.5 c 128,-1,7
 1001 -32 1001 -32 976 -32 c 0,8,9
 948 -32 948 -32 922 -31 c 128,-1,10
 896 -30 896 -30 877 -30 c 0,11,12
 838 -30 838 -30 799.5 -31 c 128,-1,13
 761 -32 761 -32 722 -32 c 0,14,15
 629 -32 629 -32 536 -29 c 1,16,-1
 518 -4 l 2,17,18
 513 2 513 2 509.5 6.5 c 128,-1,19
 506 11 506 11 504 16.5 c 128,-1,20
 502 22 502 22 501 29.5 c 128,-1,21
 500 37 500 37 500 48 c 0,22,23
 500 163 500 163 501 272 c 128,-1,24
 502 381 502 381 504 488 c 128,-1,25
 506 595 506 595 508 703 c 128,-1,26
 510 811 510 811 512 924 c 1,27,28
 446 879 446 879 377 845 c 128,-1,29
 308 811 308 811 230 787 c 1,30,31
 215 787 215 787 206.5 793 c 128,-1,32
 198 799 198 799 196 816 c 1,33,34
 196 846 196 846 195.5 883.5 c 128,-1,35
 195 921 195 921 195 961 c 0,36,37
 195 1010 195 1010 195.5 1058.5 c 128,-1,38
 196 1107 196 1107 197.5 1146 c 128,-1,39
 199 1185 199 1185 201.5 1209 c 128,-1,40
 204 1233 204 1233 209 1234 c 1,41,42
 241 1251 241 1251 272 1264 c 128,-1,43
 303 1277 303 1277 336 1294 c 0,44,45
 354 1303 354 1303 396.5 1322 c 128,-1,46
 439 1341 439 1341 487.5 1369 c 128,-1,47
 536 1397 536 1397 580.5 1431.5 c 128,-1,48
 625 1466 625 1466 647 1505 c 1,49,50
 725 1503 725 1503 801 1501.5 c 128,-1,51
 877 1500 877 1500 955 1500 c 0,52,53
 988 1500 988 1500 1021 1500.5 c 128,-1,54
 1054 1501 1054 1501 1086 1503 c 1,55,56
 1101 1501 1101 1501 1105 1484 c 128,-1,57
 1109 1467 1109 1467 1109 1430 c 2,58,-1
 1109 1389 l 1,59,-1
 1108 1317 l 2,60,61
 1107 1260 1107 1260 1107 1204.5 c 128,-1,62
 1107 1149 1107 1149 1107 1092 c 0,63,64
 1107 969 1107 969 1108 849 c 128,-1,65
 1109 729 1109 729 1112 606 c 1,0,1
EndSplineSet
EndChar

StartChar: two
Encoding: 50 50 18
Width: 1458
Flags: W
LayerCount: 2
Fore
SplineSet
1296 -22 m 1,0,1
 1205 -22 1205 -22 1122.5 -18.5 c 128,-1,2
 1040 -15 1040 -15 973 -15 c 0,3,4
 752 -15 752 -15 535.5 -20 c 128,-1,5
 319 -25 319 -25 98 -33 c 1,6,-1
 83 -12 l 1,7,8
 71 -3 71 -3 66 22 c 128,-1,9
 61 47 61 47 60.5 78 c 128,-1,10
 60 109 60 109 61.5 140.5 c 128,-1,11
 63 172 63 172 63 195 c 0,12,13
 63 241 63 241 63.5 286 c 128,-1,14
 64 331 64 331 64 377 c 0,15,16
 64 389 64 389 80 404 c 128,-1,17
 96 419 96 419 132 444.5 c 128,-1,18
 168 470 168 470 226 508.5 c 128,-1,19
 284 547 284 547 368 604 c 0,20,21
 417 638 417 638 455 664 c 128,-1,22
 493 690 493 690 525.5 714 c 128,-1,23
 558 738 558 738 588 762.5 c 128,-1,24
 618 787 618 787 652 818 c 0,25,26
 675 839 675 839 702 866.5 c 128,-1,27
 729 894 729 894 751.5 925.5 c 128,-1,28
 774 957 774 957 789 992 c 128,-1,29
 804 1027 804 1027 804 1062 c 0,30,31
 804 1104 804 1104 779 1127.5 c 128,-1,32
 754 1151 754 1151 714 1151 c 0,33,34
 682 1151 682 1151 664.5 1140 c 128,-1,35
 647 1129 647 1129 637.5 1111.5 c 128,-1,36
 628 1094 628 1094 624 1074 c 128,-1,37
 620 1054 620 1054 615.5 1035.5 c 128,-1,38
 611 1017 611 1017 603.5 1004 c 128,-1,39
 596 991 596 991 580 988 c 1,40,41
 557 987 557 987 535 987 c 128,-1,42
 513 987 513 987 490 987 c 2,43,-1
 332 987 l 2,44,45
 287 987 287 987 243 987.5 c 128,-1,46
 199 988 199 988 154 988 c 2,47,-1
 117 988 l 2,48,49
 95 988 95 988 78 993 c 128,-1,50
 61 998 61 998 60 1018 c 1,51,52
 63 1063 63 1063 67.5 1105.5 c 128,-1,53
 72 1148 72 1148 85 1193 c 0,54,55
 112 1292 112 1292 178.5 1359 c 128,-1,56
 245 1426 245 1426 334.5 1467 c 128,-1,57
 424 1508 424 1508 528 1525.5 c 128,-1,58
 632 1543 632 1543 734 1543 c 0,59,60
 819 1543 819 1543 902 1531.5 c 128,-1,61
 985 1520 985 1520 1058.5 1496 c 128,-1,62
 1132 1472 1132 1472 1194.5 1434.5 c 128,-1,63
 1257 1397 1257 1397 1302.5 1345.5 c 128,-1,64
 1348 1294 1348 1294 1373.5 1227 c 128,-1,65
 1399 1160 1399 1160 1399 1077 c 0,66,67
 1399 964 1399 964 1357 871.5 c 128,-1,68
 1315 779 1315 779 1246 701 c 128,-1,69
 1177 623 1177 623 1089 557 c 128,-1,70
 1001 491 1001 491 908 431 c 1,71,72
 899 423 899 423 890.5 417 c 128,-1,73
 882 411 882 411 874 403 c 1,74,75
 977 403 977 403 1083 407 c 128,-1,76
 1189 411 1189 411 1295 411 c 0,77,78
 1333 411 1333 411 1356.5 398 c 128,-1,79
 1380 385 1380 385 1392.5 361 c 128,-1,80
 1405 337 1405 337 1409.5 304 c 128,-1,81
 1414 271 1414 271 1414 231 c 0,82,83
 1414 189 1414 189 1411.5 141 c 128,-1,84
 1409 93 1409 93 1409 42 c 2,85,-1
 1409 23 l 2,86,87
 1409 3 1409 3 1403 -9 c 128,-1,88
 1397 -21 1397 -21 1369 -24 c 1,89,-1
 1296 -22 l 1,0,1
EndSplineSet
EndChar

StartChar: three
Encoding: 51 51 19
Width: 1454
Flags: W
LayerCount: 2
Fore
SplineSet
853 -50 m 1,0,1
 808 -55 808 -55 767.5 -56.5 c 128,-1,2
 727 -58 727 -58 692 -58 c 0,3,4
 605 -58 605 -58 526 -49.5 c 128,-1,5
 447 -41 447 -41 376 -20.5 c 128,-1,6
 305 0 305 0 243 34.5 c 128,-1,7
 181 69 181 69 127 122 c 1,8,9
 97 148 97 148 77 184.5 c 128,-1,10
 57 221 57 221 44 264 c 128,-1,11
 31 307 31 307 24.5 354 c 128,-1,12
 18 401 18 401 16 448 c 0,13,14
 16 462 16 462 23.5 471.5 c 128,-1,15
 31 481 31 481 47 481 c 2,16,-1
 524 489 l 2,17,18
 554 489 554 489 559 458 c 1,19,-1
 559 456 l 1,20,21
 562 426 562 426 570 402 c 128,-1,22
 578 378 578 378 592.5 361 c 128,-1,23
 607 344 607 344 629 334.5 c 128,-1,24
 651 325 651 325 682 325 c 2,25,-1
 685 325 l 2,26,27
 739 325 739 325 768 357 c 128,-1,28
 797 389 797 389 797 437 c 0,29,30
 797 488 797 488 777.5 517.5 c 128,-1,31
 758 547 758 547 727.5 562 c 128,-1,32
 697 577 697 577 660.5 581 c 128,-1,33
 624 585 624 585 590 585 c 1,34,35
 579 583 579 583 568 583 c 128,-1,36
 557 583 557 583 546 583 c 0,37,38
 518 583 518 583 504 594.5 c 128,-1,39
 490 606 490 606 484 627 c 128,-1,40
 478 648 478 648 478 677.5 c 128,-1,41
 478 707 478 707 478 742 c 0,42,43
 478 817 478 817 488 860.5 c 128,-1,44
 498 904 498 904 533 904 c 0,45,46
 553 904 553 904 571.5 903.5 c 128,-1,47
 590 903 590 903 611 903 c 0,48,49
 647 903 647 903 678 910 c 128,-1,50
 709 917 709 917 732 935 c 128,-1,51
 755 953 755 953 768 983.5 c 128,-1,52
 781 1014 781 1014 781 1061 c 0,53,54
 781 1103 781 1103 757 1132.5 c 128,-1,55
 733 1162 733 1162 687 1162 c 0,56,57
 653 1162 653 1162 634.5 1151 c 128,-1,58
 616 1140 616 1140 606.5 1123.5 c 128,-1,59
 597 1107 597 1107 593 1087 c 128,-1,60
 589 1067 589 1067 585 1048 c 128,-1,61
 581 1029 581 1029 573.5 1014 c 128,-1,62
 566 999 566 999 548 993 c 1,63,64
 359 993 359 993 170 999 c 0,65,66
 159 999 159 999 145.5 998.5 c 128,-1,67
 132 998 132 998 118 998 c 0,68,69
 86 998 86 998 63.5 1004.5 c 128,-1,70
 41 1011 41 1011 41 1037 c 1,71,72
 44 1079 44 1079 47.5 1121 c 128,-1,73
 51 1163 51 1163 66 1206 c 0,74,75
 71 1221 71 1221 82.5 1250 c 128,-1,76
 94 1279 94 1279 115 1314 c 128,-1,77
 136 1349 136 1349 168 1384.5 c 128,-1,78
 200 1420 200 1420 248 1449 c 0,79,80
 305 1483 305 1483 369.5 1502 c 128,-1,81
 434 1521 434 1521 502.5 1530.5 c 128,-1,82
 571 1540 571 1540 640.5 1542.5 c 128,-1,83
 710 1545 710 1545 777 1545 c 0,84,85
 837 1545 837 1545 903.5 1533.5 c 128,-1,86
 970 1522 970 1522 1034 1499 c 128,-1,87
 1098 1476 1098 1476 1156 1440.5 c 128,-1,88
 1214 1405 1214 1405 1258 1357 c 128,-1,89
 1302 1309 1302 1309 1328 1247.5 c 128,-1,90
 1354 1186 1354 1186 1354 1112 c 0,91,92
 1354 1032 1354 1032 1332.5 977.5 c 128,-1,93
 1311 923 1311 923 1276 886 c 128,-1,94
 1241 849 1241 849 1195.5 826 c 128,-1,95
 1150 803 1150 803 1101 787 c 1,96,97
 1180 762 1180 762 1234.5 729.5 c 128,-1,98
 1289 697 1289 697 1323 655 c 128,-1,99
 1357 613 1357 613 1372 559.5 c 128,-1,100
 1387 506 1387 506 1387 439 c 0,101,102
 1387 348 1387 348 1364 279 c 128,-1,103
 1341 210 1341 210 1301.5 158.5 c 128,-1,104
 1262 107 1262 107 1209.5 71 c 128,-1,105
 1157 35 1157 35 1097.5 10.5 c 128,-1,106
 1038 -14 1038 -14 975 -28 c 128,-1,107
 912 -42 912 -42 853 -50 c 1,0,1
EndSplineSet
EndChar

StartChar: four
Encoding: 52 52 20
Width: 1433
Flags: W
LayerCount: 2
Fore
SplineSet
1428 573 m 1,0,1
 1428 565 1428 565 1429 542 c 128,-1,2
 1430 519 1430 519 1431 486.5 c 128,-1,3
 1432 454 1432 454 1433 414.5 c 128,-1,4
 1434 375 1434 375 1434 335 c 0,5,6
 1434 301 1434 301 1433 278 c 128,-1,7
 1432 255 1432 255 1428.5 240.5 c 128,-1,8
 1425 226 1425 226 1418.5 219.5 c 128,-1,9
 1412 213 1412 213 1400 213 c 2,10,-1
 1344 213 l 2,11,12
 1323 213 1323 213 1302 212.5 c 128,-1,13
 1281 212 1281 212 1260 212 c 1,14,15
 1263 122 1263 122 1263 33 c 0,16,17
 1263 4 1263 4 1257.5 -11 c 128,-1,18
 1252 -26 1252 -26 1225 -29 c 1,19,20
 1176 -28 1176 -28 1127.5 -27.5 c 128,-1,21
 1079 -27 1079 -27 1030 -27 c 0,22,23
 949 -27 949 -27 869.5 -28 c 128,-1,24
 790 -29 790 -29 706 -34 c 1,25,26
 697 -23 697 -23 688 -12.5 c 128,-1,27
 679 -2 679 -2 671 9 c 1,28,29
 671 72 671 72 672 128 c 128,-1,30
 673 184 673 184 673 224 c 0,31,32
 673 236 673 236 660 240.5 c 128,-1,33
 647 245 647 245 627 245 c 0,34,35
 610 245 610 245 589.5 242.5 c 128,-1,36
 569 240 569 240 548.5 236 c 128,-1,37
 528 232 528 232 509 226.5 c 128,-1,38
 490 221 490 221 477 216 c 1,39,-1
 227 213 l 2,40,41
 192 212 192 212 157 211.5 c 128,-1,42
 122 211 122 211 87 211 c 0,43,44
 71 211 71 211 57.5 210.5 c 128,-1,45
 44 210 44 210 32.5 213 c 128,-1,46
 21 216 21 216 10.5 224 c 128,-1,47
 0 232 0 232 -9 249 c 1,48,49
 -9 308 -9 308 -9 355 c 128,-1,50
 -9 402 -9 402 -8 443.5 c 128,-1,51
 -7 485 -7 485 -6 524 c 128,-1,52
 -5 563 -5 563 -3 605 c 1,53,54
 27 682 27 682 59 747.5 c 128,-1,55
 91 813 91 813 127 874.5 c 128,-1,56
 163 936 163 936 203 998.5 c 128,-1,57
 243 1061 243 1061 290 1132 c 128,-1,58
 337 1203 337 1203 390.5 1286.5 c 128,-1,59
 444 1370 444 1370 507 1475 c 0,60,61
 513 1484 513 1484 529 1488 c 128,-1,62
 545 1492 545 1492 564.5 1493 c 128,-1,63
 584 1494 584 1494 604 1494 c 128,-1,64
 624 1494 624 1494 638 1495 c 2,65,-1
 727 1498 l 2,66,67
 808 1500 808 1500 886.5 1502 c 128,-1,68
 965 1504 965 1504 1046 1504 c 2,69,-1
 1095 1504 l 1,70,-1
 1227 1504 l 1,71,72
 1237 1502 1237 1502 1244.5 1498.5 c 128,-1,73
 1252 1495 1252 1495 1260 1493 c 1,74,-1
 1260 1433 l 2,75,76
 1260 1293 1260 1293 1256.5 1155.5 c 128,-1,77
 1253 1018 1253 1018 1253 878 c 0,78,79
 1253 855 1253 855 1253 831.5 c 128,-1,80
 1253 808 1253 808 1254 785 c 1,81,-1
 1254 777 l 2,82,83
 1254 761 1254 761 1253 743.5 c 128,-1,84
 1252 726 1252 726 1252 709 c 0,85,86
 1252 695 1252 695 1253.5 681.5 c 128,-1,87
 1255 668 1255 668 1260 657.5 c 128,-1,88
 1265 647 1265 647 1273.5 640.5 c 128,-1,89
 1282 634 1282 634 1296 634 c 0,90,91
 1317 634 1317 634 1338 634.5 c 128,-1,92
 1359 635 1359 635 1380 635 c 0,93,94
 1395 635 1395 635 1405 633 c 128,-1,95
 1415 631 1415 631 1421 625 c 128,-1,96
 1427 619 1427 619 1429.5 607.5 c 128,-1,97
 1432 596 1432 596 1432 577 c 0,98,99
 1432 573 1432 573 1428 573 c 1,0,1
448 577 m 2,100,101
 515 577 515 577 581.5 579.5 c 128,-1,102
 648 582 648 582 714 582 c 1,103,104
 728 588 728 588 734.5 596 c 128,-1,105
 741 604 741 604 743 618 c 1,106,107
 743 637 743 637 742.5 655.5 c 128,-1,108
 742 674 742 674 742 693 c 0,109,110
 742 695 742 695 742.5 708.5 c 128,-1,111
 743 722 743 722 743.5 744 c 128,-1,112
 744 766 744 766 744.5 794 c 128,-1,113
 745 822 745 822 745 854 c 0,114,115
 745 902 745 902 743.5 952 c 128,-1,116
 742 1002 742 1002 737.5 1043.5 c 128,-1,117
 733 1085 733 1085 725 1112 c 128,-1,118
 717 1139 717 1139 704 1140 c 1,119,120
 691 1133 691 1133 685 1124 c 0,121,122
 615 998 615 998 545 876 c 128,-1,123
 475 754 475 754 406 628 c 1,124,125
 412 615 412 615 417.5 602.5 c 128,-1,126
 423 590 423 590 430 577 c 1,127,-1
 448 577 l 2,100,101
EndSplineSet
EndChar

StartChar: five
Encoding: 53 53 21
Width: 1469
Flags: W
LayerCount: 2
Fore
SplineSet
641 616 m 0,0,1
 638 607 638 607 638 596.5 c 128,-1,2
 638 586 638 586 635 576.5 c 128,-1,3
 632 567 632 567 623.5 560 c 128,-1,4
 615 553 615 553 595 551 c 1,5,6
 507 554 507 554 421.5 554 c 128,-1,7
 336 554 336 554 247 554 c 0,8,9
 222 554 222 554 198.5 554 c 128,-1,10
 175 554 175 554 151 552 c 1,11,12
 137 571 137 571 131 591.5 c 128,-1,13
 125 612 125 612 123 633 c 128,-1,14
 121 654 121 654 121.5 676 c 128,-1,15
 122 698 122 698 122 721 c 2,16,-1
 119 932 l 2,17,18
 117 1012 117 1012 117 1091.5 c 128,-1,19
 117 1171 117 1171 117 1252 c 0,20,21
 117 1287 117 1287 117 1320.5 c 128,-1,22
 117 1354 117 1354 119 1389 c 1,23,-1
 119 1422 l 2,24,25
 119 1449 119 1449 123 1475 c 128,-1,26
 127 1501 127 1501 146 1520 c 1,27,28
 203 1518 203 1518 259 1518.5 c 128,-1,29
 315 1519 315 1519 372 1518 c 2,30,-1
 1205 1509 l 2,31,32
 1212 1509 1212 1509 1223 1509.5 c 128,-1,33
 1234 1510 1234 1510 1246 1510 c 0,34,35
 1266 1510 1266 1510 1285 1505 c 128,-1,36
 1304 1500 1304 1500 1309 1483 c 1,37,-1
 1309 1290 l 2,38,39
 1309 1229 1309 1229 1308.5 1194.5 c 128,-1,40
 1308 1160 1308 1160 1304 1143 c 128,-1,41
 1300 1126 1300 1126 1291 1122 c 128,-1,42
 1282 1118 1282 1118 1266 1118 c 2,43,-1
 1247 1118 l 2,44,45
 1092 1118 1092 1118 941 1117 c 128,-1,46
 790 1116 790 1116 634 1114 c 1,47,48
 631 1068 631 1068 627 1022.5 c 128,-1,49
 623 977 623 977 620 931 c 1,50,51
 648 950 648 950 682 964 c 128,-1,52
 716 978 716 978 752.5 987.5 c 128,-1,53
 789 997 789 997 827.5 1002 c 128,-1,54
 866 1007 866 1007 902 1007 c 0,55,56
 1014 1007 1014 1007 1104.5 971 c 128,-1,57
 1195 935 1195 935 1259 870.5 c 128,-1,58
 1323 806 1323 806 1357.5 717.5 c 128,-1,59
 1392 629 1392 629 1392 525 c 0,60,61
 1392 416 1392 416 1364.5 330 c 128,-1,62
 1337 244 1337 244 1289 179.5 c 128,-1,63
 1241 115 1241 115 1176.5 69.5 c 128,-1,64
 1112 24 1112 24 1037 -4 c 128,-1,65
 962 -32 962 -32 881 -45 c 128,-1,66
 800 -58 800 -58 720 -58 c 0,67,68
 643 -58 643 -58 562 -49.5 c 128,-1,69
 481 -41 481 -41 405 -17.5 c 128,-1,70
 329 6 329 6 262.5 48 c 128,-1,71
 196 90 196 90 147 157 c 0,72,73
 110 208 110 208 93.5 267.5 c 128,-1,74
 77 327 77 327 68 399 c 1,75,76
 68 411 68 411 76.5 418.5 c 128,-1,77
 85 426 85 426 99.5 429.5 c 128,-1,78
 114 433 114 433 132 434.5 c 128,-1,79
 150 436 150 436 169 436 c 0,80,81
 189 436 189 436 208 435.5 c 128,-1,82
 227 435 227 435 241 435 c 2,83,-1
 351 435 l 2,84,85
 418 435 418 435 482 432.5 c 128,-1,86
 546 430 546 430 616 430 c 1,87,88
 635 428 635 428 641.5 411.5 c 128,-1,89
 648 395 648 395 653 375.5 c 128,-1,90
 658 356 658 356 668.5 340 c 128,-1,91
 679 324 679 324 707 324 c 0,92,93
 741 324 741 324 760.5 341 c 128,-1,94
 780 358 780 358 790.5 383 c 128,-1,95
 801 408 801 408 804 437 c 128,-1,96
 807 466 807 466 807 491 c 0,97,98
 807 522 807 522 804.5 553.5 c 128,-1,99
 802 585 802 585 792.5 611 c 128,-1,100
 783 637 783 637 764 653.5 c 128,-1,101
 745 670 745 670 712 670 c 256,102,103
 679 670 679 670 663.5 656 c 128,-1,104
 648 642 648 642 641 616 c 0,0,1
EndSplineSet
EndChar

StartChar: six
Encoding: 54 54 22
Width: 1457
Flags: W
LayerCount: 2
Fore
SplineSet
763 692 m 1,0,1
 711 692 711 692 678.5 673 c 128,-1,2
 646 654 646 654 627.5 622.5 c 128,-1,3
 609 591 609 591 602.5 550 c 128,-1,4
 596 509 596 509 596 466 c 0,5,6
 596 442 596 442 599.5 417 c 128,-1,7
 603 392 603 392 611.5 368.5 c 128,-1,8
 620 345 620 345 634 325.5 c 128,-1,9
 648 306 648 306 669 293 c 1,10,11
 668 294 668 294 679 289.5 c 128,-1,12
 690 285 690 285 705 279.5 c 128,-1,13
 720 274 720 274 734.5 269.5 c 128,-1,14
 749 265 749 265 756 265 c 0,15,16
 761 265 761 265 761 267 c 1,17,18
 812 271 812 271 844 291 c 128,-1,19
 876 311 876 311 895 341.5 c 128,-1,20
 914 372 914 372 921 410.5 c 128,-1,21
 928 449 928 449 928 490 c 1,22,23
 926 536 926 536 917.5 573 c 128,-1,24
 909 610 909 610 890 636 c 128,-1,25
 871 662 871 662 840 676.5 c 128,-1,26
 809 691 809 691 763 692 c 1,0,1
822 1127 m 1,27,-1
 820 1143 l 1,28,29
 810 1162 810 1162 762 1162 c 0,30,31
 715 1162 715 1162 686 1136.5 c 128,-1,32
 657 1111 657 1111 640.5 1072 c 128,-1,33
 624 1033 624 1033 618 987 c 128,-1,34
 612 941 612 941 612 901 c 0,35,36
 612 896 612 896 612.5 892.5 c 128,-1,37
 613 889 613 889 613 884 c 1,38,39
 639 914 639 914 672.5 934 c 128,-1,40
 706 954 706 954 743.5 966.5 c 128,-1,41
 781 979 781 979 821.5 984.5 c 128,-1,42
 862 990 862 990 901 990 c 0,43,44
 1010 990 1010 990 1104 954 c 128,-1,45
 1198 918 1198 918 1266.5 854.5 c 128,-1,46
 1335 791 1335 791 1374 703 c 128,-1,47
 1413 615 1413 615 1413 512 c 256,48,49
 1413 409 1413 409 1386.5 328.5 c 128,-1,50
 1360 248 1360 248 1314 186 c 128,-1,51
 1268 124 1268 124 1207 80 c 128,-1,52
 1146 36 1146 36 1076 7.5 c 128,-1,53
 1006 -21 1006 -21 932 -35.5 c 128,-1,54
 858 -50 858 -50 787 -52 c 1,55,56
 734 -52 734 -52 668 -48.5 c 128,-1,57
 602 -45 602 -45 535 -32 c 128,-1,58
 468 -19 468 -19 405.5 6.5 c 128,-1,59
 343 32 343 32 297 76 c 0,60,61
 249 122 249 122 213.5 163.5 c 128,-1,62
 178 205 178 205 152 248 c 128,-1,63
 126 291 126 291 107.5 339.5 c 128,-1,64
 89 388 89 388 75 448 c 0,65,66
 66 486 66 486 60 526 c 128,-1,67
 54 566 54 566 51 605.5 c 128,-1,68
 48 645 48 645 46.5 682.5 c 128,-1,69
 45 720 45 720 45 753 c 0,70,71
 46 929 46 929 96 1076 c 128,-1,72
 146 1223 146 1223 239 1329 c 128,-1,73
 332 1435 332 1435 466.5 1494.5 c 128,-1,74
 601 1554 601 1554 772 1556 c 1,75,76
 889 1556 889 1556 976 1539 c 128,-1,77
 1063 1522 1063 1522 1125.5 1491.5 c 128,-1,78
 1188 1461 1188 1461 1229 1419.5 c 128,-1,79
 1270 1378 1270 1378 1294.5 1329 c 128,-1,80
 1319 1280 1319 1280 1331 1226.5 c 128,-1,81
 1343 1173 1343 1173 1348 1118 c 0,82,83
 1348 1108 1348 1108 1345.5 1104.5 c 128,-1,84
 1343 1101 1343 1101 1333 1095 c 1,85,86
 1319 1091 1319 1091 1279 1088 c 128,-1,87
 1239 1085 1239 1085 1187 1083 c 128,-1,88
 1135 1081 1135 1081 1078.5 1079.5 c 128,-1,89
 1022 1078 1022 1078 974.5 1077.5 c 128,-1,90
 927 1077 927 1077 895.5 1076.5 c 128,-1,91
 864 1076 864 1076 862 1076 c 0,92,93
 847 1076 847 1076 834.5 1079 c 128,-1,94
 822 1082 822 1082 822 1091 c 2,95,-1
 822 1127 l 1,27,-1
EndSplineSet
EndChar

StartChar: seven
Encoding: 55 55 23
Width: 1462
Flags: W
LayerCount: 2
Fore
SplineSet
804 -5 m 0,0,1
 799 -16 799 -16 793 -23 c 128,-1,2
 787 -30 787 -30 771 -30 c 0,3,4
 723 -30 723 -30 675.5 -29 c 128,-1,5
 628 -28 628 -28 580 -28 c 0,6,7
 561 -28 561 -28 521 -28.5 c 128,-1,8
 481 -29 481 -29 432 -29 c 0,9,10
 388 -29 388 -29 343.5 -27.5 c 128,-1,11
 299 -26 299 -26 262 -22 c 128,-1,12
 225 -18 225 -18 202 -10.5 c 128,-1,13
 179 -3 179 -3 179 9 c 0,14,15
 179 25 179 25 188.5 43 c 128,-1,16
 198 61 198 61 207 78 c 2,17,-1
 542 745 l 2,18,19
 581 823 581 823 620.5 904.5 c 128,-1,20
 660 986 660 986 705 1070 c 1,21,22
 618 1069 618 1069 534 1068.5 c 128,-1,23
 450 1068 450 1068 365 1066 c 1,24,-1
 134 1066 l 2,25,26
 124 1066 124 1066 116.5 1067.5 c 128,-1,27
 109 1069 109 1069 101.5 1073.5 c 128,-1,28
 94 1078 94 1078 86 1087.5 c 128,-1,29
 78 1097 78 1097 68 1113 c 1,30,-1
 68 1381 l 1,31,32
 67 1389 67 1389 65.5 1407.5 c 128,-1,33
 64 1426 64 1426 64 1447 c 0,34,35
 64 1460 64 1460 65.5 1474.5 c 128,-1,36
 67 1489 67 1489 71.5 1500.5 c 128,-1,37
 76 1512 76 1512 85 1519.5 c 128,-1,38
 94 1527 94 1527 109 1527 c 0,39,40
 417 1527 417 1527 722 1521 c 128,-1,41
 1027 1515 1027 1515 1331 1509 c 0,42,43
 1345 1509 1345 1509 1353.5 1494.5 c 128,-1,44
 1362 1480 1362 1480 1366.5 1457.5 c 128,-1,45
 1371 1435 1371 1435 1372.5 1407.5 c 128,-1,46
 1374 1380 1374 1380 1374 1353 c 128,-1,47
 1374 1326 1374 1326 1373.5 1302.5 c 128,-1,48
 1373 1279 1373 1279 1373 1265 c 0,49,50
 1373 1236 1373 1236 1372.5 1210 c 128,-1,51
 1372 1184 1372 1184 1370 1161 c 0,52,53
 1365 1114 1365 1114 1358 1079.5 c 128,-1,54
 1351 1045 1351 1045 1339 1012.5 c 128,-1,55
 1327 980 1327 980 1307.5 944 c 128,-1,56
 1288 908 1288 908 1259 857.5 c 128,-1,57
 1230 807 1230 807 1189.5 736 c 128,-1,58
 1149 665 1149 665 1093.5 563 c 128,-1,59
 1038 461 1038 461 966.5 321.5 c 128,-1,60
 895 182 895 182 804 -5 c 0,0,1
EndSplineSet
EndChar

StartChar: eight
Encoding: 56 56 24
Width: 1451
Flags: W
LayerCount: 2
Fore
SplineSet
1366 213 m 0,0,1
 1347 171 1347 171 1313.5 133 c 128,-1,2
 1280 95 1280 95 1236.5 64 c 128,-1,3
 1193 33 1193 33 1141.5 9.5 c 128,-1,4
 1090 -14 1090 -14 1035 -27 c 1,5,6
 994 -38 994 -38 949.5 -44 c 128,-1,7
 905 -50 905 -50 860 -53 c 128,-1,8
 815 -56 815 -56 771.5 -56.5 c 128,-1,9
 728 -57 728 -57 689 -57 c 0,10,11
 595 -57 595 -57 502.5 -46 c 128,-1,12
 410 -35 410 -35 325 -1 c 0,13,14
 236 34 236 34 181 76.5 c 128,-1,15
 126 119 126 119 94.5 168.5 c 128,-1,16
 63 218 63 218 49.5 274.5 c 128,-1,17
 36 331 36 331 29 395 c 1,18,19
 33 455 33 455 47 507 c 128,-1,20
 61 559 61 559 88.5 603.5 c 128,-1,21
 116 648 116 648 158.5 685.5 c 128,-1,22
 201 723 201 723 263 754 c 1,23,24
 167 799 167 799 120.5 880 c 128,-1,25
 74 961 74 961 74 1069 c 0,26,27
 74 1159 74 1159 101.5 1229 c 128,-1,28
 129 1299 129 1299 176 1352.5 c 128,-1,29
 223 1406 223 1406 286 1443 c 128,-1,30
 349 1480 349 1480 419.5 1503 c 128,-1,31
 490 1526 490 1526 564.5 1536.5 c 128,-1,32
 639 1547 639 1547 709 1547 c 0,33,34
 808 1547 808 1547 910 1529.5 c 128,-1,35
 1012 1512 1012 1512 1106 1470 c 0,36,37
 1239 1412 1239 1412 1302.5 1314.5 c 128,-1,38
 1366 1217 1366 1217 1366 1066 c 0,39,40
 1366 951 1366 951 1312.5 875 c 128,-1,41
 1259 799 1259 799 1160 764 c 1,42,43
 1207 741 1207 741 1249.5 715 c 128,-1,44
 1292 689 1292 689 1323 648 c 1,45,46
 1368 594 1368 594 1388.5 530 c 128,-1,47
 1409 466 1409 466 1409 397 c 0,48,49
 1409 349 1409 349 1397.5 302 c 128,-1,50
 1386 255 1386 255 1366 213 c 0,0,1
718 621 m 0,51,52
 682 621 682 621 652.5 606.5 c 128,-1,53
 623 592 623 592 602 567 c 128,-1,54
 581 542 581 542 569.5 509.5 c 128,-1,55
 558 477 558 477 558 440 c 1,56,57
 562 403 562 403 574 372.5 c 128,-1,58
 586 342 586 342 606 319.5 c 128,-1,59
 626 297 626 297 654 284.5 c 128,-1,60
 682 272 682 272 719 272 c 0,61,62
 794 272 794 272 834.5 317.5 c 128,-1,63
 875 363 875 363 875 433 c 0,64,65
 875 521 875 521 837 571 c 128,-1,66
 799 621 799 621 718 621 c 0,51,52
714 1213 m 0,67,68
 679 1213 679 1213 654.5 1196.5 c 128,-1,69
 630 1180 630 1180 614.5 1155.5 c 128,-1,70
 599 1131 599 1131 592 1102 c 128,-1,71
 585 1073 585 1073 585 1049 c 0,72,73
 585 1019 585 1019 591 989.5 c 128,-1,74
 597 960 597 960 612 937.5 c 128,-1,75
 627 915 627 915 653.5 901 c 128,-1,76
 680 887 680 887 722 887 c 0,77,78
 759 887 759 887 784 901 c 128,-1,79
 809 915 809 915 824.5 938.5 c 128,-1,80
 840 962 840 962 847 991.5 c 128,-1,81
 854 1021 854 1021 854 1052 c 0,82,83
 854 1087 854 1087 847 1116.5 c 128,-1,84
 840 1146 840 1146 823.5 1167.5 c 128,-1,85
 807 1189 807 1189 780.5 1201 c 128,-1,86
 754 1213 754 1213 714 1213 c 0,67,68
EndSplineSet
EndChar

StartChar: nine
Encoding: 57 57 25
Width: 1456
Flags: W
LayerCount: 2
Fore
SplineSet
633 369 m 1,0,1
 639 352 639 352 651.5 339 c 128,-1,2
 664 326 664 326 700 326 c 0,3,4
 749 326 749 326 776 352.5 c 128,-1,5
 803 379 803 379 816.5 419 c 128,-1,6
 830 459 830 459 834.5 504.5 c 128,-1,7
 839 550 839 550 842 588 c 1,8,9
 816 571 816 571 785.5 559 c 128,-1,10
 755 547 755 547 722 539.5 c 128,-1,11
 689 532 689 532 655.5 528 c 128,-1,12
 622 524 622 524 591 523 c 1,13,14
 492 523 492 523 394 549 c 128,-1,15
 296 575 296 575 217.5 630.5 c 128,-1,16
 139 686 139 686 90.5 773.5 c 128,-1,17
 42 861 42 861 42 983 c 1,18,19
 43 1083 43 1083 71 1163 c 128,-1,20
 99 1243 99 1243 147 1305 c 128,-1,21
 195 1367 195 1367 259.5 1411.5 c 128,-1,22
 324 1456 324 1456 398 1484.5 c 128,-1,23
 472 1513 472 1513 552.5 1526.5 c 128,-1,24
 633 1540 633 1540 712 1540 c 0,25,26
 782 1540 782 1540 853 1531 c 128,-1,27
 924 1522 924 1522 991.5 1499.5 c 128,-1,28
 1059 1477 1059 1477 1121 1438.5 c 128,-1,29
 1183 1400 1183 1400 1234 1341 c 1,30,31
 1284 1278 1284 1278 1317.5 1212.5 c 128,-1,32
 1351 1147 1351 1147 1371 1077.5 c 128,-1,33
 1391 1008 1391 1008 1399.5 934.5 c 128,-1,34
 1408 861 1408 861 1408 782 c 0,35,36
 1408 704 1408 704 1401 626.5 c 128,-1,37
 1394 549 1394 549 1376.5 474 c 128,-1,38
 1359 399 1359 399 1329.5 328 c 128,-1,39
 1300 257 1300 257 1254 191 c 1,40,41
 1198 108 1198 108 1118 57 c 128,-1,42
 1038 6 1038 6 950 -21.5 c 128,-1,43
 862 -49 862 -49 773.5 -58 c 128,-1,44
 685 -67 685 -67 611 -67 c 0,45,46
 511 -67 511 -67 420.5 -41 c 128,-1,47
 330 -15 330 -15 249 51 c 1,48,49
 208 81 208 81 181 120.5 c 128,-1,50
 154 160 154 160 137 204.5 c 128,-1,51
 120 249 120 249 112.5 296.5 c 128,-1,52
 105 344 105 344 103 390 c 1,53,54
 112 401 112 401 121 411.5 c 128,-1,55
 130 422 130 422 139 434 c 1,56,-1
 593 427 l 2,57,58
 605 426 605 426 612 420.5 c 128,-1,59
 619 415 619 415 623 407 c 128,-1,60
 627 399 627 399 629 389 c 128,-1,61
 631 379 631 379 633 369 c 1,0,1
693 1212 m 0,62,63
 644 1212 644 1212 610.5 1192 c 128,-1,64
 577 1172 577 1172 557 1139.5 c 128,-1,65
 537 1107 537 1107 528 1067 c 128,-1,66
 519 1027 519 1027 519 988 c 1,67,68
 522 943 522 943 533.5 908 c 128,-1,69
 545 873 545 873 566 848 c 128,-1,70
 587 823 587 823 618 810 c 128,-1,71
 649 797 649 797 692 797 c 0,72,73
 741 797 741 797 772 815 c 128,-1,74
 803 833 803 833 821 861.5 c 128,-1,75
 839 890 839 890 845.5 925.5 c 128,-1,76
 852 961 852 961 852 997 c 0,77,78
 852 1037 852 1037 846 1075.5 c 128,-1,79
 840 1114 840 1114 822.5 1144.5 c 128,-1,80
 805 1175 805 1175 774 1193.5 c 128,-1,81
 743 1212 743 1212 693 1212 c 0,62,63
EndSplineSet
EndChar

StartChar: colon
Encoding: 58 58 26
Width: 771
Flags: W
LayerCount: 2
Fore
SplineSet
649 139 m 2,0,1
 650 104 650 104 649.5 70.5 c 128,-1,2
 649 37 649 37 650 3 c 1,3,4
 647 -9 647 -9 612.5 -16 c 128,-1,5
 578 -23 578 -23 528 -26.5 c 128,-1,6
 478 -30 478 -30 421 -31.5 c 128,-1,7
 364 -33 364 -33 317 -33 c 0,8,9
 278 -33 278 -33 251 -32.5 c 128,-1,10
 224 -32 224 -32 219 -32 c 0,11,12
 199 -32 199 -32 178.5 -32 c 128,-1,13
 158 -32 158 -32 138 -33 c 1,14,-1
 107 10 l 1,15,16
 107 21 107 21 106.5 31.5 c 128,-1,17
 106 42 106 42 106 53 c 0,18,19
 106 138 106 138 109 230.5 c 128,-1,20
 112 323 112 323 117 414 c 0,21,22
 117 424 117 424 138 429.5 c 128,-1,23
 159 435 159 435 190.5 438 c 128,-1,24
 222 441 222 441 258.5 442 c 128,-1,25
 295 443 295 443 327 443 c 0,26,27
 354 443 354 443 374.5 443 c 128,-1,28
 395 443 395 443 412.5 442.5 c 128,-1,29
 430 442 430 442 447 442 c 128,-1,30
 464 442 464 442 484 442 c 2,31,-1
 527 442 l 2,32,33
 547 442 547 442 567.5 441 c 128,-1,34
 588 440 588 440 605 437 c 128,-1,35
 622 434 622 434 633.5 428.5 c 128,-1,36
 645 423 645 423 647 414 c 1,37,-1
 647 230 l 1,38,-1
 649 139 l 2,0,1
654 784 m 1,39,-1
 647 739 l 1,40,41
 652 719 652 719 654 703 c 128,-1,42
 656 687 656 687 656 667 c 256,43,44
 656 647 656 647 650 631.5 c 128,-1,45
 644 616 644 616 624 616 c 0,46,47
 503 611 503 611 383.5 608 c 128,-1,48
 264 605 264 605 143 602 c 1,49,-1
 111 649 l 1,50,51
 110 664 110 664 110 679 c 128,-1,52
 110 694 110 694 110 709 c 0,53,54
 110 730 110 730 111 751.5 c 128,-1,55
 112 773 112 773 112 795 c 2,56,-1
 112 853 l 2,57,58
 112 886 112 886 113 924.5 c 128,-1,59
 114 963 114 963 117 996.5 c 128,-1,60
 120 1030 120 1030 126 1052.5 c 128,-1,61
 132 1075 132 1075 143 1076 c 1,62,63
 170 1075 170 1075 197.5 1075 c 128,-1,64
 225 1075 225 1075 253 1075 c 0,65,66
 323 1075 323 1075 389 1076 c 128,-1,67
 455 1077 455 1077 527 1077 c 0,68,69
 549 1077 549 1077 570.5 1076 c 128,-1,70
 592 1075 592 1075 609 1071.5 c 128,-1,71
 626 1068 626 1068 637 1062 c 128,-1,72
 648 1056 648 1056 648 1046 c 0,73,74
 650 983 650 983 651 916.5 c 128,-1,75
 652 850 652 850 654 784 c 1,39,-1
EndSplineSet
EndChar

StartChar: semicolon
Encoding: 59 59 27
Width: 733
Flags: W
LayerCount: 2
Fore
SplineSet
518 -47 m 1,0,1
 504 -83 504 -83 490 -117.5 c 128,-1,2
 476 -152 476 -152 462 -184 c 1,3,4
 457 -192 457 -192 436 -197.5 c 128,-1,5
 415 -203 415 -203 384 -206 c 128,-1,6
 353 -209 353 -209 314 -210 c 128,-1,7
 275 -211 275 -211 234 -211 c 0,8,9
 182 -211 182 -211 132.5 -210 c 128,-1,10
 83 -209 83 -209 48 -209 c 2,11,-1
 26 -209 l 1,12,13
 9 -196 9 -196 -7 -179 c 1,14,15
 1 -137 1 -137 9 -97 c 128,-1,16
 17 -57 17 -57 27 -15 c 0,17,18
 27 -14 27 -14 31 7 c 128,-1,19
 35 28 35 28 42 61.5 c 128,-1,20
 49 95 49 95 59 137.5 c 128,-1,21
 69 180 69 180 79.5 224.5 c 128,-1,22
 90 269 90 269 102 311.5 c 128,-1,23
 114 354 114 354 125 387 c 128,-1,24
 136 420 136 420 146.5 440 c 128,-1,25
 157 460 157 460 165 460 c 0,26,27
 194 460 194 460 224.5 459.5 c 128,-1,28
 255 459 255 459 284 459 c 0,29,30
 315 459 315 459 340.5 459.5 c 128,-1,31
 366 460 366 460 392.5 460.5 c 128,-1,32
 419 461 419 461 450.5 461.5 c 128,-1,33
 482 462 482 462 524 462 c 0,34,35
 551 462 551 462 577 461 c 128,-1,36
 603 460 603 460 623.5 456.5 c 128,-1,37
 644 453 644 453 657 447.5 c 128,-1,38
 670 442 670 442 670 433 c 2,39,-1
 670 421 l 1,40,41
 635 319 635 319 601.5 213.5 c 128,-1,42
 568 108 568 108 533 -1 c 2,43,-1
 518 -47 l 1,0,1
656 591 m 1,44,45
 655 590 655 590 649 590 c 0,46,47
 528 585 528 585 407 581 c 128,-1,48
 286 577 286 577 163 572 c 1,49,-1
 130 614 l 1,50,51
 128 626 128 626 127 638.5 c 128,-1,52
 126 651 126 651 126 665 c 0,53,54
 126 670 126 670 126.5 674 c 128,-1,55
 127 678 127 678 127 683 c 2,56,-1
 130 772 l 2,57,58
 131 783 131 783 131.5 808 c 128,-1,59
 132 833 132 833 132.5 864 c 128,-1,60
 133 895 133 895 134 928 c 128,-1,61
 135 961 135 961 138 989 c 128,-1,62
 141 1017 141 1017 146.5 1036 c 128,-1,63
 152 1055 152 1055 161 1057 c 1,64,-1
 202 1057 l 2,65,66
 274 1057 274 1057 345 1058 c 128,-1,67
 416 1059 416 1059 491 1059 c 0,68,69
 522 1059 522 1059 553.5 1058.5 c 128,-1,70
 585 1058 585 1058 610 1055.5 c 128,-1,71
 635 1053 635 1053 650.5 1048.5 c 128,-1,72
 666 1044 666 1044 666 1037 c 0,73,74
 669 935 669 935 671 839 c 128,-1,75
 673 743 673 743 673 643 c 0,76,77
 673 624 673 624 670 609 c 128,-1,78
 667 594 667 594 658 591 c 1,79,-1
 656 591 l 1,44,45
EndSplineSet
EndChar

StartChar: less
Encoding: 60 60 28
Width: 1271
Flags: W
LayerCount: 2
Fore
SplineSet
1177 8 m 1,0,1
 1177 -9 1177 -9 1171.5 -22.5 c 128,-1,2
 1166 -36 1166 -36 1146 -36 c 0,3,4
 1143 -36 1143 -36 1133 -34 c 1,5,6
 906 57 906 57 679.5 145.5 c 128,-1,7
 453 234 453 234 220 325 c 0,8,9
 197 334 197 334 172 341 c 128,-1,10
 147 348 147 348 126 361 c 128,-1,11
 105 374 105 374 91.5 395 c 128,-1,12
 78 416 78 416 78 454 c 0,13,14
 78 473 78 473 78.5 492 c 128,-1,15
 79 511 79 511 79 531 c 0,16,17
 79 545 79 545 78.5 560 c 128,-1,18
 78 575 78 575 78 590 c 0,19,20
 78 620 78 620 84.5 649 c 128,-1,21
 91 678 91 678 115 701 c 1,22,-1
 1006 1039 l 2,23,24
 1040 1052 1040 1052 1074 1064.5 c 128,-1,25
 1108 1077 1108 1077 1142 1089 c 1,26,-1
 1146 1089 l 2,27,28
 1163 1089 1163 1089 1170.5 1075 c 128,-1,29
 1178 1061 1178 1061 1180 1037.5 c 128,-1,30
 1182 1014 1182 1014 1181 984.5 c 128,-1,31
 1180 955 1180 955 1180 924 c 0,32,33
 1180 900 1180 900 1179.5 876.5 c 128,-1,34
 1179 853 1179 853 1176.5 833.5 c 128,-1,35
 1174 814 1174 814 1170.5 800 c 128,-1,36
 1167 786 1167 786 1161 780 c 1,37,38
 996 717 996 717 836 653.5 c 128,-1,39
 676 590 676 590 512 524 c 1,40,41
 666 464 666 464 817 406.5 c 128,-1,42
 968 349 968 349 1123 291 c 0,43,44
 1141 284 1141 284 1153 278 c 128,-1,45
 1165 272 1165 272 1172 258.5 c 128,-1,46
 1179 245 1179 245 1182 219.5 c 128,-1,47
 1185 194 1185 194 1185 149 c 0,48,49
 1185 109 1185 109 1182.5 70.5 c 128,-1,50
 1180 32 1180 32 1177 8 c 1,0,1
EndSplineSet
EndChar

StartChar: equal
Encoding: 61 61 29
Width: 1273
Flags: W
LayerCount: 2
Fore
SplineSet
1142 120 m 2,0,-1
 868 116 l 2,1,2
 678 113 678 113 493 108 c 128,-1,3
 308 103 308 103 118 101 c 1,4,-1
 85 137 l 1,5,6
 82 185 82 185 82 238 c 0,7,8
 82 255 82 255 83 273 c 128,-1,9
 84 291 84 291 84 308 c 0,10,11
 84 321 84 321 83.5 334 c 128,-1,12
 83 347 83 347 83 361 c 0,13,14
 83 387 83 387 87 411 c 128,-1,15
 91 435 91 435 106 455 c 1,16,17
 115 454 115 454 123.5 454.5 c 128,-1,18
 132 455 132 455 142 454 c 0,19,20
 326 443 326 443 506 435 c 128,-1,21
 686 427 686 427 869 427 c 1,22,-1
 905 428 l 2,23,24
 968 430 968 430 1027.5 430.5 c 128,-1,25
 1087 431 1087 431 1148 436 c 1,26,27
 1156 435 1156 435 1161 421 c 128,-1,28
 1166 407 1166 407 1168.5 385.5 c 128,-1,29
 1171 364 1171 364 1172 337.5 c 128,-1,30
 1173 311 1173 311 1173 286 c 2,31,-1
 1173 219 l 2,32,33
 1173 209 1173 209 1173.5 197.5 c 128,-1,34
 1174 186 1174 186 1174 174 c 0,35,36
 1174 153 1174 153 1168 136.5 c 128,-1,37
 1162 120 1162 120 1142 120 c 2,0,-1
1161 625 m 0,38,39
 1153 625 1153 625 1142 636 c 1,40,-1
 876 627 l 1,41,42
 684 618 684 618 496.5 613 c 128,-1,43
 309 608 309 608 117 599 c 1,44,-1
 85 636 l 1,45,46
 84 653 84 653 83.5 670 c 128,-1,47
 83 687 83 687 83 705 c 0,48,49
 83 731 83 731 83.5 758.5 c 128,-1,50
 84 786 84 786 84 813 c 0,51,52
 84 824 84 824 83.5 836.5 c 128,-1,53
 83 849 83 849 83 861 c 0,54,55
 83 891 83 891 88.5 914 c 128,-1,56
 94 937 94 937 115 937 c 2,57,-1
 213 937 l 2,58,59
 449 937 449 937 681 935 c 128,-1,60
 913 933 913 933 1149 933 c 1,61,62
 1156 932 1156 932 1160.5 917 c 128,-1,63
 1165 902 1165 902 1167.5 879 c 128,-1,64
 1170 856 1170 856 1170.5 828.5 c 128,-1,65
 1171 801 1171 801 1171 776 c 2,66,-1
 1171 694 l 1,67,-1
 1171 667 l 2,68,69
 1171 651 1171 651 1169.5 638 c 128,-1,70
 1168 625 1168 625 1161 625 c 0,38,39
EndSplineSet
EndChar

StartChar: greater
Encoding: 62 62 30
Width: 1269
Flags: W
LayerCount: 2
Fore
SplineSet
1176 394 m 0,0,1
 1168 387 1168 387 1162 381.5 c 128,-1,2
 1156 376 1156 376 1154 376 c 1,3,-1
 1154 377 l 1,4,5
 952 295 952 295 757 214 c 128,-1,6
 562 133 562 133 363 51 c 0,7,8
 303 26 303 26 243 2.5 c 128,-1,9
 183 -21 183 -21 122 -42 c 1,10,11
 110 -31 110 -31 99.5 -19 c 128,-1,12
 89 -7 89 -7 78 4 c 1,13,14
 78 67 78 67 80 128 c 128,-1,15
 82 189 82 189 87 252 c 0,16,17
 88 266 88 266 127 288 c 128,-1,18
 166 310 166 310 226.5 336.5 c 128,-1,19
 287 363 287 363 361.5 392 c 128,-1,20
 436 421 436 421 507 447.5 c 128,-1,21
 578 474 578 474 638.5 496 c 128,-1,22
 699 518 699 518 731 532 c 1,23,24
 654 562 654 562 576.5 595 c 128,-1,25
 499 628 499 628 421 660.5 c 128,-1,26
 343 693 343 693 263.5 724.5 c 128,-1,27
 184 756 184 756 104 783 c 1,28,29
 96 788 96 788 93.5 802 c 128,-1,30
 91 816 91 816 91 831 c 0,31,32
 91 839 91 839 91.5 846 c 128,-1,33
 92 853 92 853 92 860 c 0,34,35
 92 871 92 871 91 897.5 c 128,-1,36
 90 924 90 924 90 956 c 0,37,38
 90 979 90 979 91 1001.5 c 128,-1,39
 92 1024 92 1024 94 1042 c 128,-1,40
 96 1060 96 1060 99.5 1071 c 128,-1,41
 103 1082 103 1082 109 1082 c 0,42,43
 113 1082 113 1082 115.5 1080.5 c 128,-1,44
 118 1079 118 1079 122 1078 c 0,45,46
 352 986 352 986 583 900 c 128,-1,47
 814 814 814 814 1043 723 c 1,48,-1
 1162 674 l 2,49,50
 1171 670 1171 670 1175.5 646 c 128,-1,51
 1180 622 1180 622 1181.5 589 c 128,-1,52
 1183 556 1183 556 1183.5 520 c 128,-1,53
 1184 484 1184 484 1184 456 c 0,54,55
 1184 433 1184 433 1182.5 416 c 128,-1,56
 1181 399 1181 399 1176 394 c 0,0,1
EndSplineSet
EndChar

StartChar: question
Encoding: 63 63 31
Width: 1121
Flags: W
LayerCount: 2
Fore
SplineSet
1043 1305 m 2,0,1
 1054 1283 1054 1283 1062.5 1261 c 128,-1,2
 1071 1239 1071 1239 1076 1215 c 0,3,4
 1081 1189 1081 1189 1083 1164.5 c 128,-1,5
 1085 1140 1085 1140 1093 1120 c 1,6,7
 1091 1069 1091 1069 1078.5 1012.5 c 128,-1,8
 1066 956 1066 956 1031 908 c 1,9,10
 996 864 996 864 959 831.5 c 128,-1,11
 922 799 922 799 887 773.5 c 128,-1,12
 852 748 852 748 821 727.5 c 128,-1,13
 790 707 790 707 766 686 c 128,-1,14
 742 665 742 665 727 641.5 c 128,-1,15
 712 618 712 618 710 588 c 1,16,17
 715 566 715 566 716 541 c 128,-1,18
 717 516 717 516 719 492 c 1,19,20
 718 485 718 485 715.5 479.5 c 128,-1,21
 713 474 713 474 707 474 c 1,22,-1
 700 471 l 2,23,24
 689 467 689 467 673 467 c 2,25,-1
 558 465 l 1,26,27
 468 465 468 465 380.5 462.5 c 128,-1,28
 293 460 293 460 205 457 c 1,29,30
 195 458 195 458 189 466 c 128,-1,31
 183 474 183 474 180 486 c 128,-1,32
 177 498 177 498 176 511 c 128,-1,33
 175 524 175 524 175 536 c 0,34,35
 175 565 175 565 176.5 588 c 128,-1,36
 178 611 178 611 186 638 c 1,37,38
 196 677 196 677 219 710.5 c 128,-1,39
 242 744 242 744 271.5 775 c 128,-1,40
 301 806 301 806 332.5 835.5 c 128,-1,41
 364 865 364 865 392.5 895.5 c 128,-1,42
 421 926 421 926 442 959 c 128,-1,43
 463 992 463 992 470 1030 c 1,44,45
 467 1052 467 1052 456.5 1065 c 128,-1,46
 446 1078 446 1078 431 1085 c 128,-1,47
 416 1092 416 1092 398 1094.5 c 128,-1,48
 380 1097 380 1097 362 1097 c 2,49,-1
 359 1097 l 1,50,51
 358 1096 358 1096 354 1096 c 0,52,53
 282 1094 282 1094 218.5 1078 c 128,-1,54
 155 1062 155 1062 89 1035 c 1,55,-1
 42 1074 l 1,56,57
 43 1168 43 1168 43.5 1257 c 128,-1,58
 44 1346 44 1346 44 1442 c 0,59,60
 44 1465 44 1465 66.5 1481.5 c 128,-1,61
 89 1498 89 1498 125 1509 c 128,-1,62
 161 1520 161 1520 206.5 1527 c 128,-1,63
 252 1534 252 1534 299 1538 c 128,-1,64
 346 1542 346 1542 390 1544.5 c 128,-1,65
 434 1547 434 1547 466 1549 c 1,66,67
 581 1549 581 1549 678.5 1532 c 128,-1,68
 776 1515 776 1515 858 1477 c 1,69,-1
 901 1454 l 1,70,71
 939 1429 939 1429 972.5 1399 c 128,-1,72
 1006 1369 1006 1369 1030 1331 c 1,73,-1
 1043 1305 l 2,0,1
714 4 m 1,74,75
 711 -15 711 -15 691 -15 c 0,76,77
 688 -15 688 -15 688 -12 c 1,78,79
 603 -14 603 -14 520 -19.5 c 128,-1,80
 437 -25 437 -25 352 -28 c 2,81,-1
 202 -33 l 1,82,-1
 171 7 l 1,83,84
 170 21 170 21 170 33.5 c 128,-1,85
 170 46 170 46 170 60 c 0,86,87
 170 78 170 78 170.5 96 c 128,-1,88
 171 114 171 114 171 133 c 2,89,-1
 171 167 l 2,90,91
 171 180 171 180 170.5 197 c 128,-1,92
 170 214 170 214 170 233 c 0,93,94
 170 253 170 253 171 274.5 c 128,-1,95
 172 296 172 296 175.5 314.5 c 128,-1,96
 179 333 179 333 185 347.5 c 128,-1,97
 191 362 191 362 201 368 c 1,98,99
 280 366 280 366 358.5 363 c 128,-1,100
 437 360 437 360 518 360 c 1,101,102
 584 358 584 358 622.5 355.5 c 128,-1,103
 661 353 661 353 680.5 345.5 c 128,-1,104
 700 338 700 338 705.5 324 c 128,-1,105
 711 310 711 310 711 286 c 2,106,-1
 711 218 l 1,107,-1
 713 186 l 1,108,109
 713 155 713 155 713.5 125 c 128,-1,110
 714 95 714 95 714 64 c 2,111,-1
 714 4 l 1,74,75
EndSplineSet
EndChar

StartChar: at
Encoding: 64 64 32
Width: 1671
Flags: W
LayerCount: 2
Fore
SplineSet
425 676 m 2,0,1
 425 752 425 752 452.5 827.5 c 128,-1,2
 480 903 480 903 532.5 962 c 128,-1,3
 585 1021 585 1021 661 1058 c 128,-1,4
 737 1095 737 1095 833 1095 c 2,5,-1
 834 1095 l 2,6,7
 895 1095 895 1095 950 1075 c 128,-1,8
 1005 1055 1005 1055 1045 1015 c 1,9,-1
 1091 945 l 1,10,11
 1112 1015 1112 1015 1130 1086 c 1,12,-1
 1251 1083 l 1,13,-1
 1181 695 l 2,14,15
 1178 678 1178 678 1172 644.5 c 128,-1,16
 1166 611 1166 611 1166 578 c 0,17,18
 1166 555 1166 555 1169.5 535 c 128,-1,19
 1173 515 1173 515 1182 500 c 128,-1,20
 1191 485 1191 485 1207 476 c 128,-1,21
 1223 467 1223 467 1248 467 c 1,22,23
 1299 489 1299 489 1333 528 c 128,-1,24
 1367 567 1367 567 1387.5 615 c 128,-1,25
 1408 663 1408 663 1416.5 715 c 128,-1,26
 1425 767 1425 767 1425 815 c 0,27,28
 1425 914 1425 914 1404 991.5 c 128,-1,29
 1383 1069 1383 1069 1345.5 1127.5 c 128,-1,30
 1308 1186 1308 1186 1256 1226.5 c 128,-1,31
 1204 1267 1204 1267 1143 1292 c 128,-1,32
 1082 1317 1082 1317 1013.5 1328.5 c 128,-1,33
 945 1340 945 1340 874 1340 c 0,34,35
 754 1340 754 1340 643.5 1300 c 128,-1,36
 533 1260 533 1260 448.5 1180.5 c 128,-1,37
 364 1101 364 1101 313 982.5 c 128,-1,38
 262 864 262 864 262 708 c 0,39,40
 262 582 262 582 312.5 479.5 c 128,-1,41
 363 377 363 377 447.5 304.5 c 128,-1,42
 532 232 532 232 642 192.5 c 128,-1,43
 752 153 752 153 871 153 c 0,44,45
 996 153 996 153 1107 186 c 1,46,47
 1120 150 1120 150 1131.5 113.5 c 128,-1,48
 1143 77 1143 77 1155 41 c 1,49,50
 1073 10 1073 10 990.5 -1 c 128,-1,51
 908 -12 908 -12 811 -12 c 0,52,53
 713 -12 713 -12 620.5 13 c 128,-1,54
 528 38 528 38 446 85 c 128,-1,55
 364 132 364 132 295.5 198 c 128,-1,56
 227 264 227 264 177.5 345.5 c 128,-1,57
 128 427 128 427 100.5 522.5 c 128,-1,58
 73 618 73 618 73 723 c 0,59,60
 73 845 73 845 103.5 950 c 128,-1,61
 134 1055 134 1055 188 1141.5 c 128,-1,62
 242 1228 242 1228 315.5 1295 c 128,-1,63
 389 1362 389 1362 476 1408 c 128,-1,64
 563 1454 563 1454 659.5 1478 c 128,-1,65
 756 1502 756 1502 855 1502 c 0,66,67
 997 1502 997 1502 1129.5 1461.5 c 128,-1,68
 1262 1421 1262 1421 1365 1344.5 c 128,-1,69
 1468 1268 1468 1268 1530 1156.5 c 128,-1,70
 1592 1045 1592 1045 1592 903 c 0,71,72
 1592 827 1592 827 1577.5 754.5 c 128,-1,73
 1563 682 1563 682 1536.5 616.5 c 128,-1,74
 1510 551 1510 551 1474.5 496 c 128,-1,75
 1439 441 1439 441 1397 401.5 c 128,-1,76
 1355 362 1355 362 1308.5 339.5 c 128,-1,77
 1262 317 1262 317 1214 317 c 1,78,79
 1156 319 1156 319 1108.5 357 c 128,-1,80
 1061 395 1061 395 1029 479 c 1,81,-1
 1021 479 l 1,82,83
 995 447 995 447 967 420.5 c 128,-1,84
 939 394 939 394 905 375 c 128,-1,85
 871 356 871 356 829 345.5 c 128,-1,86
 787 335 787 335 733 335 c 0,87,88
 671 335 671 335 615 359 c 128,-1,89
 559 383 559 383 517 424.5 c 128,-1,90
 475 466 475 466 450 521.5 c 128,-1,91
 425 577 425 577 425 641 c 2,92,-1
 425 676 l 2,0,1
982 853 m 0,93,94
 934 913 934 913 858 913 c 0,95,96
 807 913 807 913 767.5 894.5 c 128,-1,97
 728 876 728 876 700 845.5 c 128,-1,98
 672 815 672 815 655 775.5 c 128,-1,99
 638 736 638 736 632 693 c 1,100,101
 632 649 632 649 642.5 614.5 c 128,-1,102
 653 580 653 580 671 556.5 c 128,-1,103
 689 533 689 533 712.5 520.5 c 128,-1,104
 736 508 736 508 763 507 c 1,105,106
 821 507 821 507 868 527.5 c 128,-1,107
 915 548 915 548 947 582 c 128,-1,108
 979 616 979 616 996.5 659.5 c 128,-1,109
 1014 703 1014 703 1014 748 c 0,110,111
 1014 780 1014 780 1005.5 806.5 c 128,-1,112
 997 833 997 833 982 853 c 0,93,94
EndSplineSet
EndChar

StartChar: A
Encoding: 65 65 33
Width: 1639
Flags: W
LayerCount: 2
Fore
SplineSet
1520 -24 m 2,0,1
 1460 -24 1460 -24 1401 -25 c 128,-1,2
 1342 -26 1342 -26 1282 -26 c 0,3,4
 1228 -26 1228 -26 1174.5 -24.5 c 128,-1,5
 1121 -23 1121 -23 1067 -19 c 1,6,7
 1056 -16 1056 -16 1051.5 -10.5 c 128,-1,8
 1047 -5 1047 -5 1044 8 c 0,9,10
 1042 16 1042 16 1038.5 34 c 128,-1,11
 1035 52 1035 52 1030.5 74 c 128,-1,12
 1026 96 1026 96 1019.5 120 c 128,-1,13
 1013 144 1013 144 1003.5 163 c 128,-1,14
 994 182 994 182 982.5 194.5 c 128,-1,15
 971 207 971 207 956 207 c 2,16,-1
 612 203 l 1,17,-1
 559 -5 l 1,18,19
 552 -21 552 -21 519 -25 c 128,-1,20
 486 -29 486 -29 447 -29 c 0,21,22
 425 -29 425 -29 404.5 -28.5 c 128,-1,23
 384 -28 384 -28 367 -28 c 0,24,25
 304 -28 304 -28 240.5 -31 c 128,-1,26
 177 -34 177 -34 113 -34 c 2,27,-1
 83 -34 l 2,28,29
 57 -34 57 -34 32 -34.5 c 128,-1,30
 7 -35 7 -35 -19 -35 c 1,31,32
 -27 -27 -27 -27 -34 -18.5 c 128,-1,33
 -41 -10 -41 -10 -48 0 c 1,34,35
 6 188 6 188 65 373.5 c 128,-1,36
 124 559 124 559 184.5 743.5 c 128,-1,37
 245 928 245 928 306.5 1112.5 c 128,-1,38
 368 1297 368 1297 427 1485 c 0,39,40
 430 1494 430 1494 434 1498.5 c 128,-1,41
 438 1503 438 1503 443 1507 c 1,42,-1
 612 1507 l 2,43,44
 699 1507 699 1507 785 1509.5 c 128,-1,45
 871 1512 871 1512 959 1512 c 1,46,-1
 1051 1507 l 2,47,48
 1062 1506 1062 1506 1083.5 1509 c 128,-1,49
 1105 1512 1105 1512 1128 1512 c 0,50,51
 1158 1512 1158 1512 1182 1503.5 c 128,-1,52
 1206 1495 1206 1495 1206 1468 c 1,53,54
 1330 1126 1330 1126 1436 788.5 c 128,-1,55
 1542 451 1542 451 1649 120 c 0,56,57
 1657 93 1657 93 1665 66 c 128,-1,58
 1673 39 1673 39 1683 13 c 1,59,60
 1683 -2 1683 -2 1676 -10 c 128,-1,61
 1669 -18 1669 -18 1653 -21 c 128,-1,62
 1637 -24 1637 -24 1612.5 -24 c 128,-1,63
 1588 -24 1588 -24 1554 -24 c 2,64,-1
 1520 -24 l 2,0,1
834 1132 m 1,65,66
 830 1143 830 1143 826.5 1153.5 c 128,-1,67
 823 1164 823 1164 808 1171 c 1,68,69
 795 1170 795 1170 781.5 1140 c 128,-1,70
 768 1110 768 1110 754 1062 c 128,-1,71
 740 1014 740 1014 725.5 953.5 c 128,-1,72
 711 893 711 893 697 830.5 c 128,-1,73
 683 768 683 768 670 709.5 c 128,-1,74
 657 651 657 651 645 607 c 1,75,-1
 674 561 l 1,76,77
 677 561 677 561 695.5 560.5 c 128,-1,78
 714 560 714 560 740 560 c 0,79,80
 771 560 771 560 807.5 561.5 c 128,-1,81
 844 563 844 563 875.5 567 c 128,-1,82
 907 571 907 571 929 579 c 128,-1,83
 951 587 951 587 952 601 c 1,84,85
 951 636 951 636 939.5 675 c 128,-1,86
 928 714 928 714 920 749 c 0,87,88
 898 846 898 846 876.5 940.5 c 128,-1,89
 855 1035 855 1035 834 1132 c 1,65,66
EndSplineSet
EndChar

StartChar: B
Encoding: 66 66 34
Width: 1571
Flags: W
LayerCount: 2
Fore
SplineSet
1315 62 m 0,0,1
 1223 9 1223 9 1125.5 -9.5 c 128,-1,2
 1028 -28 1028 -28 928 -28 c 0,3,4
 855 -28 855 -28 783 -26 c 128,-1,5
 711 -24 711 -24 638 -24 c 0,6,7
 509 -24 509 -24 383.5 -26.5 c 128,-1,8
 258 -29 258 -29 128 -33 c 1,9,10
 109 -1 109 -1 104 40.5 c 128,-1,11
 99 82 99 82 98 136 c 0,12,13
 96 221 96 221 94 306 c 128,-1,14
 92 391 92 391 92 476 c 0,15,16
 92 635 92 635 93 790.5 c 128,-1,17
 94 946 94 946 97 1106 c 0,18,19
 97 1126 97 1126 96.5 1146 c 128,-1,20
 96 1166 96 1166 96 1186 c 0,21,22
 96 1256 96 1256 97.5 1326.5 c 128,-1,23
 99 1397 99 1397 101 1469 c 1,24,25
 100 1470 100 1470 100 1472 c 0,26,27
 100 1496 100 1496 118 1496 c 2,28,-1
 127 1496 l 1,29,30
 221 1502 221 1502 313.5 1507.5 c 128,-1,31
 406 1513 406 1513 502 1513 c 2,32,-1
 694 1513 l 1,33,-1
 956 1513 l 2,34,35
 1009 1513 1009 1513 1061.5 1508.5 c 128,-1,36
 1114 1504 1114 1504 1164 1493 c 128,-1,37
 1214 1482 1214 1482 1261.5 1462.5 c 128,-1,38
 1309 1443 1309 1443 1353 1412 c 0,39,40
 1386 1388 1386 1388 1411 1355 c 128,-1,41
 1436 1322 1436 1322 1452.5 1283 c 128,-1,42
 1469 1244 1469 1244 1477 1200.5 c 128,-1,43
 1485 1157 1485 1157 1485 1113 c 0,44,45
 1485 1047 1485 1047 1469.5 995.5 c 128,-1,46
 1454 944 1454 944 1425.5 903.5 c 128,-1,47
 1397 863 1397 863 1356 831.5 c 128,-1,48
 1315 800 1315 800 1263 773 c 1,49,50
 1390 738 1390 738 1458.5 648 c 128,-1,51
 1527 558 1527 558 1527 423 c 0,52,53
 1527 357 1527 357 1511 302.5 c 128,-1,54
 1495 248 1495 248 1467 203.5 c 128,-1,55
 1439 159 1439 159 1400 124 c 128,-1,56
 1361 89 1361 89 1315 62 c 0,0,1
692 596 m 1,57,58
 689 553 689 553 687 510 c 128,-1,59
 685 467 685 467 685 422 c 0,60,61
 685 405 685 405 685 386 c 128,-1,62
 685 367 685 367 686 351.5 c 128,-1,63
 687 336 687 336 688 324.5 c 128,-1,64
 689 313 689 313 692 311 c 1,65,-1
 723 311 l 2,66,67
 765 311 765 311 806.5 316 c 128,-1,68
 848 321 848 321 881 339 c 128,-1,69
 914 357 914 357 934 390.5 c 128,-1,70
 954 424 954 424 954 481 c 0,71,72
 954 539 954 539 928.5 569.5 c 128,-1,73
 903 600 903 600 865 614 c 128,-1,74
 827 628 827 628 783.5 630.5 c 128,-1,75
 740 633 740 633 704 634 c 1,76,-1
 692 596 l 1,57,58
847 1163 m 1,77,78
 821 1174 821 1174 785 1179.5 c 128,-1,79
 749 1185 749 1185 722 1185 c 1,80,81
 694 1180 694 1180 680 1174.5 c 128,-1,82
 666 1169 666 1169 666 1147 c 0,83,84
 666 1078 666 1078 668.5 1012.5 c 128,-1,85
 671 947 671 947 673 881 c 0,86,87
 673 862 673 862 697 858 c 1,88,89
 719 862 719 862 745.5 864.5 c 128,-1,90
 772 867 772 867 798 872.5 c 128,-1,91
 824 878 824 878 848 887.5 c 128,-1,92
 872 897 872 897 891 915 c 128,-1,93
 910 933 910 933 921 961.5 c 128,-1,94
 932 990 932 990 932 1033 c 0,95,96
 932 1087 932 1087 908.5 1118 c 128,-1,97
 885 1149 885 1149 847 1163 c 1,77,78
EndSplineSet
EndChar

StartChar: C
Encoding: 67 67 35
Width: 1556
Flags: W
LayerCount: 2
Fore
SplineSet
1520 932 m 1,0,1
 1519 922 1519 922 1499.5 915.5 c 128,-1,2
 1480 909 1480 909 1448.5 905.5 c 128,-1,3
 1417 902 1417 902 1376 900.5 c 128,-1,4
 1335 899 1335 899 1291 899 c 0,5,6
 1219 899 1219 899 1148 901 c 128,-1,7
 1077 903 1077 903 1026 903 c 0,8,9
 1018 903 1018 903 1010.5 902.5 c 128,-1,10
 1003 902 1003 902 996 902 c 0,11,12
 972 902 972 902 960.5 917.5 c 128,-1,13
 949 933 949 933 943.5 956.5 c 128,-1,14
 938 980 938 980 934 1007.5 c 128,-1,15
 930 1035 930 1035 921 1058.5 c 128,-1,16
 912 1082 912 1082 894.5 1097.5 c 128,-1,17
 877 1113 877 1113 844 1113 c 0,18,19
 801 1113 801 1113 773 1095 c 128,-1,20
 745 1077 745 1077 728 1047.5 c 128,-1,21
 711 1018 711 1018 702.5 978.5 c 128,-1,22
 694 939 694 939 690.5 896.5 c 128,-1,23
 687 854 687 854 687 810.5 c 128,-1,24
 687 767 687 767 686 729 c 0,25,26
 685 709 685 709 683.5 684.5 c 128,-1,27
 682 660 682 660 682 632 c 0,28,29
 682 592 682 592 686.5 548 c 128,-1,30
 691 504 691 504 705 466.5 c 128,-1,31
 719 429 719 429 745 403.5 c 128,-1,32
 771 378 771 378 814 376 c 1,33,34
 853 376 853 376 873 401.5 c 128,-1,35
 893 427 893 427 904.5 461 c 128,-1,36
 916 495 916 495 924.5 528.5 c 128,-1,37
 933 562 933 562 949 578 c 1,38,39
 995 578 995 578 1040 577.5 c 128,-1,40
 1085 577 1085 577 1131 577 c 0,41,42
 1154 577 1154 577 1176.5 577.5 c 128,-1,43
 1199 578 1199 578 1222 578 c 0,44,45
 1291 578 1291 578 1357 576.5 c 128,-1,46
 1423 575 1423 575 1492 576 c 1,47,48
 1524 573 1524 573 1528 536 c 1,49,50
 1525 503 1525 503 1523 477.5 c 128,-1,51
 1521 452 1521 452 1517.5 428.5 c 128,-1,52
 1514 405 1514 405 1506.5 380.5 c 128,-1,53
 1499 356 1499 356 1485 325 c 1,54,55
 1446 220 1446 220 1373 146 c 128,-1,56
 1300 72 1300 72 1207.5 25.5 c 128,-1,57
 1115 -21 1115 -21 1009.5 -42 c 128,-1,58
 904 -63 904 -63 801 -63 c 0,59,60
 638 -63 638 -63 518 -24 c 128,-1,61
 398 15 398 15 313.5 80.5 c 128,-1,62
 229 146 229 146 175.5 232.5 c 128,-1,63
 122 319 122 319 91.5 414.5 c 128,-1,64
 61 510 61 510 50 608 c 128,-1,65
 39 706 39 706 39 795 c 1,66,67
 44 841 44 841 49 884.5 c 128,-1,68
 54 928 54 928 62 971 c 128,-1,69
 70 1014 70 1014 84 1057.5 c 128,-1,70
 98 1101 98 1101 121 1148 c 0,71,72
 176 1262 176 1262 257 1337.5 c 128,-1,73
 338 1413 338 1413 434 1457.5 c 128,-1,74
 530 1502 530 1502 636 1520 c 128,-1,75
 742 1538 742 1538 847 1538 c 0,76,77
 1012 1538 1012 1538 1132 1499 c 128,-1,78
 1252 1460 1252 1460 1333 1391.5 c 128,-1,79
 1414 1323 1414 1323 1457 1229.5 c 128,-1,80
 1500 1136 1500 1136 1511 1027 c 2,81,-1
 1520 932 l 1,0,1
EndSplineSet
EndChar

StartChar: D
Encoding: 68 68 36
Width: 1648
Flags: W
LayerCount: 2
Fore
SplineSet
871 -27 m 1,0,-1
 841 -27 l 2,1,2
 777 -27 777 -27 713 -25.5 c 128,-1,3
 649 -24 649 -24 583 -24 c 0,4,5
 468 -24 468 -24 356.5 -26.5 c 128,-1,6
 245 -29 245 -29 130 -33 c 1,7,8
 121 -17 121 -17 116 -6 c 128,-1,9
 111 5 111 5 108.5 15 c 128,-1,10
 106 25 106 25 105.5 34 c 128,-1,11
 105 43 105 43 105 55 c 0,12,13
 105 106 105 106 104.5 156.5 c 128,-1,14
 104 207 104 207 104 258 c 0,15,16
 104 330 104 330 105 401.5 c 128,-1,17
 106 473 106 473 106 545 c 2,18,-1
 106 830 l 1,19,20
 105 876 105 876 104.5 920.5 c 128,-1,21
 104 965 104 965 104 1013 c 2,22,-1
 104 1105 l 2,23,24
 104 1128 104 1128 104.5 1150 c 128,-1,25
 105 1172 105 1172 105 1195 c 2,26,-1
 105 1468 l 1,27,28
 104 1469 104 1469 104 1472 c 0,29,30
 104 1487 104 1487 109.5 1491.5 c 128,-1,31
 115 1496 115 1496 132 1498 c 0,32,33
 198 1504 198 1504 264.5 1508 c 128,-1,34
 331 1512 331 1512 400 1512 c 2,35,-1
 512 1512 l 2,36,37
 560 1512 560 1512 604 1513.5 c 128,-1,38
 648 1515 648 1515 693 1515 c 0,39,40
 763 1515 763 1515 835.5 1512 c 128,-1,41
 908 1509 908 1509 993 1499 c 0,42,43
 1048 1493 1048 1493 1101.5 1480 c 128,-1,44
 1155 1467 1155 1467 1204 1448.5 c 128,-1,45
 1253 1430 1253 1430 1296 1406 c 128,-1,46
 1339 1382 1339 1382 1374 1353 c 0,47,48
 1391 1338 1391 1338 1410.5 1321 c 128,-1,49
 1430 1304 1430 1304 1452.5 1275 c 128,-1,50
 1475 1246 1475 1246 1500.5 1199 c 128,-1,51
 1526 1152 1526 1152 1555 1079 c 0,52,53
 1580 1016 1580 1016 1596.5 936 c 128,-1,54
 1613 856 1613 856 1613 759 c 0,55,56
 1613 634 1613 634 1585.5 527.5 c 128,-1,57
 1558 421 1558 421 1508 334.5 c 128,-1,58
 1458 248 1458 248 1389.5 181.5 c 128,-1,59
 1321 115 1321 115 1239.5 70 c 128,-1,60
 1158 25 1158 25 1066 1.5 c 128,-1,61
 974 -22 974 -22 878 -23 c 1,62,63
 875 -26 875 -26 871 -27 c 1,0,-1
906 1146 m 1,64,65
 882 1162 882 1162 855.5 1169.5 c 128,-1,66
 829 1177 829 1177 801.5 1180 c 128,-1,67
 774 1183 774 1183 745.5 1183 c 128,-1,68
 717 1183 717 1183 690 1184 c 1,69,70
 681 1169 681 1169 673.5 1154 c 128,-1,71
 666 1139 666 1139 658 1125 c 1,72,-1
 658 1075 l 2,73,74
 658 889 658 889 663.5 707.5 c 128,-1,75
 669 526 669 526 672 341 c 1,76,77
 675 323 675 323 694 320 c 1,78,79
 734 321 734 321 774 324 c 128,-1,80
 814 327 814 327 852 336 c 1,81,82
 889 349 889 349 916 377 c 128,-1,83
 943 405 943 405 961.5 442 c 128,-1,84
 980 479 980 479 991 521.5 c 128,-1,85
 1002 564 1002 564 1008 607 c 128,-1,86
 1014 650 1014 650 1016 689 c 128,-1,87
 1018 728 1018 728 1018 758 c 0,88,89
 1018 786 1018 786 1018 820 c 128,-1,90
 1018 854 1018 854 1015 890.5 c 128,-1,91
 1012 927 1012 927 1005.5 963.5 c 128,-1,92
 999 1000 999 1000 986.5 1033.5 c 128,-1,93
 974 1067 974 1067 954.5 1096 c 128,-1,94
 935 1125 935 1125 906 1146 c 1,64,65
EndSplineSet
EndChar

StartChar: E
Encoding: 69 69 37
Width: 1306
Flags: W
LayerCount: 2
Fore
SplineSet
1261 1109 m 1,0,1
 1258 1098 1258 1098 1250 1092 c 128,-1,2
 1242 1086 1242 1086 1230.5 1083.5 c 128,-1,3
 1219 1081 1219 1081 1205 1081 c 128,-1,4
 1191 1081 1191 1081 1177 1081 c 0,5,6
 1057 1081 1057 1081 940 1083 c 128,-1,7
 823 1085 823 1085 703 1089 c 1,8,9
 700 1049 700 1049 694.5 1009.5 c 128,-1,10
 689 970 689 970 689 930 c 1,11,-1
 963 937 l 2,12,13
 1014 939 1014 939 1063.5 939 c 128,-1,14
 1113 939 1113 939 1164 939 c 0,15,16
 1197 939 1197 939 1205.5 925.5 c 128,-1,17
 1214 912 1214 912 1214 895 c 0,18,19
 1214 887 1214 887 1213.5 880 c 128,-1,20
 1213 873 1213 873 1213 865 c 0,21,22
 1213 793 1213 793 1215.5 722.5 c 128,-1,23
 1218 652 1218 652 1218 580 c 1,24,25
 1215 562 1215 562 1202 561 c 0,26,27
 1199 561 1199 561 1193 564 c 1,28,29
 1075 558 1075 558 959 553.5 c 128,-1,30
 843 549 843 549 725 549 c 2,31,-1
 698 549 l 1,32,-1
 698 403 l 1,33,34
 829 403 829 403 954 411.5 c 128,-1,35
 1079 420 1079 420 1207 420 c 0,36,37
 1231 420 1231 420 1254.5 414.5 c 128,-1,38
 1278 409 1278 409 1284 391 c 1,39,40
 1283 372 1283 372 1283 353 c 128,-1,41
 1283 334 1283 334 1283 315 c 0,42,43
 1283 243 1283 243 1285.5 173 c 128,-1,44
 1288 103 1288 103 1288 31 c 0,45,46
 1288 12 1288 12 1280.5 -2 c 128,-1,47
 1273 -16 1273 -16 1249 -18 c 1,48,49
 1168 -18 1168 -18 1087 -16.5 c 128,-1,50
 1006 -15 1006 -15 924 -15 c 0,51,52
 722 -15 722 -15 523 -22.5 c 128,-1,53
 324 -30 324 -30 125 -32 c 1,54,55
 117 -24 117 -24 109.5 -16.5 c 128,-1,56
 102 -9 102 -9 95 -1 c 1,57,58
 93 19 93 19 93 37 c 128,-1,59
 93 55 93 55 93 74 c 0,60,61
 93 330 93 330 95.5 580 c 128,-1,62
 98 830 98 830 99 1085 c 1,63,-1
 100 1182 l 2,64,65
 100 1187 100 1187 99.5 1219.5 c 128,-1,66
 99 1252 99 1252 99 1297 c 0,67,68
 99 1331 99 1331 99.5 1367 c 128,-1,69
 100 1403 100 1403 101.5 1433 c 128,-1,70
 103 1463 103 1463 106.5 1482 c 128,-1,71
 110 1501 110 1501 115 1501 c 256,72,73
 120 1501 120 1501 126 1498 c 1,74,75
 404 1503 404 1503 679.5 1507.5 c 128,-1,76
 955 1512 955 1512 1238 1512 c 1,77,78
 1262 1509 1262 1509 1263 1488 c 1,79,-1
 1263 1313 l 1,80,-1
 1263 1231 l 2,81,82
 1263 1200 1263 1200 1263 1170 c 128,-1,83
 1263 1140 1263 1140 1261 1109 c 1,0,1
EndSplineSet
EndChar

StartChar: F
Encoding: 70 70 38
Width: 1265
Flags: W
LayerCount: 2
Fore
SplineSet
1261 1107 m 1,0,1
 1258 1094 1258 1094 1249 1094 c 0,2,3
 1246 1094 1246 1094 1243 1097 c 1,4,5
 1146 1088 1146 1088 1052 1087.5 c 128,-1,6
 958 1087 958 1087 862 1086 c 2,7,-1
 724 1085 l 1,8,9
 723 1058 723 1058 722.5 1032 c 128,-1,10
 722 1006 722 1006 722 977 c 0,11,12
 722 969 722 969 722 962.5 c 128,-1,13
 722 956 722 956 723 948 c 1,14,15
 777 952 777 952 822.5 955 c 128,-1,16
 868 958 868 958 913 960.5 c 128,-1,17
 958 963 958 963 1005 964 c 128,-1,18
 1052 965 1052 965 1109 965 c 0,19,20
 1130 965 1130 965 1151 963 c 128,-1,21
 1172 961 1172 961 1188.5 957.5 c 128,-1,22
 1205 954 1205 954 1216 948.5 c 128,-1,23
 1227 943 1227 943 1229 936 c 1,24,-1
 1229 602 l 2,25,26
 1229 578 1229 578 1224 564 c 128,-1,27
 1219 550 1219 550 1210 542 c 128,-1,28
 1201 534 1201 534 1187.5 531.5 c 128,-1,29
 1174 529 1174 529 1158 529 c 0,30,31
 1144 529 1144 529 1128 530 c 128,-1,32
 1112 531 1112 531 1095 531 c 1,33,34
 910 520 910 520 726 516 c 1,35,36
 726 425 726 425 729.5 332 c 128,-1,37
 733 239 733 239 733 148 c 0,38,39
 733 116 733 116 732.5 85 c 128,-1,40
 732 54 732 54 732 24 c 0,41,42
 732 -3 732 -3 726 -14 c 128,-1,43
 720 -25 720 -25 695 -28 c 1,44,45
 551 -29 551 -29 412 -31 c 128,-1,46
 273 -33 273 -33 129 -33 c 1,47,48
 122 -23 122 -23 116 -12.5 c 128,-1,49
 110 -2 110 -2 103 8 c 1,50,51
 101 40 101 40 100.5 73 c 128,-1,52
 100 106 100 106 99 140 c 1,53,-1
 105 1477 l 2,54,55
 105 1487 105 1487 118.5 1493.5 c 128,-1,56
 132 1500 132 1500 153.5 1504 c 128,-1,57
 175 1508 175 1508 202 1509 c 128,-1,58
 229 1510 229 1510 257 1510 c 0,59,60
 282 1510 282 1510 305 1509.5 c 128,-1,61
 328 1509 328 1509 348 1509 c 0,62,63
 466 1509 466 1509 583.5 1511.5 c 128,-1,64
 701 1514 701 1514 819 1514 c 0,65,66
 904 1514 904 1514 984 1512 c 128,-1,67
 1064 1510 1064 1510 1152 1510 c 0,68,69
 1163 1510 1163 1510 1174.5 1510.5 c 128,-1,70
 1186 1511 1186 1511 1199 1511 c 0,71,72
 1224 1511 1224 1511 1243.5 1503.5 c 128,-1,73
 1263 1496 1263 1496 1264 1467 c 0,74,75
 1265 1439 1265 1439 1265 1410.5 c 128,-1,76
 1265 1382 1265 1382 1265 1354 c 0,77,78
 1265 1291 1265 1291 1264 1229.5 c 128,-1,79
 1263 1168 1263 1168 1261 1107 c 1,0,1
EndSplineSet
EndChar

StartChar: G
Encoding: 71 71 39
Width: 1681
Flags: W
LayerCount: 2
Fore
SplineSet
1602 70 m 1,0,1
 1600 64 1600 64 1599 58.5 c 128,-1,2
 1598 53 1598 53 1596 48 c 1,3,4
 1583 34 1583 34 1548.5 21 c 128,-1,5
 1514 8 1514 8 1467 -3 c 128,-1,6
 1420 -14 1420 -14 1364.5 -23.5 c 128,-1,7
 1309 -33 1309 -33 1254 -39.5 c 128,-1,8
 1199 -46 1199 -46 1149 -49.5 c 128,-1,9
 1099 -53 1099 -53 1063 -53 c 0,10,11
 1056 -53 1056 -53 1049.5 -53 c 128,-1,12
 1043 -53 1043 -53 1038 -52 c 1,13,14
 996 -54 996 -54 955 -57 c 128,-1,15
 914 -60 914 -60 872 -60 c 0,16,17
 666 -60 666 -60 511 -3 c 128,-1,18
 356 54 356 54 251.5 159 c 128,-1,19
 147 264 147 264 94.5 413.5 c 128,-1,20
 42 563 42 563 42 748 c 0,21,22
 42 914 42 914 83 1037 c 128,-1,23
 124 1160 124 1160 192.5 1248 c 128,-1,24
 261 1336 261 1336 351 1392.5 c 128,-1,25
 441 1449 441 1449 538 1481.5 c 128,-1,26
 635 1514 635 1514 732.5 1526.5 c 128,-1,27
 830 1539 830 1539 915 1539 c 0,28,29
 946 1539 946 1539 990.5 1536.5 c 128,-1,30
 1035 1534 1035 1534 1085 1527.5 c 128,-1,31
 1135 1521 1135 1521 1187.5 1510 c 128,-1,32
 1240 1499 1240 1499 1286 1482 c 0,33,34
 1392 1442 1392 1442 1462.5 1364 c 128,-1,35
 1533 1286 1533 1286 1557 1185 c 1,36,37
 1564 1142 1564 1142 1568 1101.5 c 128,-1,38
 1572 1061 1572 1061 1577 1021 c 1,39,40
 1572 1000 1572 1000 1553 995 c 128,-1,41
 1534 990 1534 990 1513 990 c 0,42,43
 1386 990 1386 990 1263.5 994 c 128,-1,44
 1141 998 1141 998 1015 998 c 1,45,46
 1003 1003 1003 1003 997.5 1014.5 c 128,-1,47
 992 1026 992 1026 988.5 1040.5 c 128,-1,48
 985 1055 985 1055 980 1070.5 c 128,-1,49
 975 1086 975 1086 964.5 1098.5 c 128,-1,50
 954 1111 954 1111 934.5 1119 c 128,-1,51
 915 1127 915 1127 882 1127 c 0,52,53
 819 1127 819 1127 780.5 1100 c 128,-1,54
 742 1073 742 1073 720.5 1030 c 128,-1,55
 699 987 699 987 692 934 c 128,-1,56
 685 881 685 881 685 829 c 1,57,58
 682 792 682 792 681 765 c 128,-1,59
 680 738 680 738 679.5 718 c 128,-1,60
 679 698 679 698 679 682.5 c 128,-1,61
 679 667 679 667 679 652 c 0,62,63
 679 623 679 623 680.5 590.5 c 128,-1,64
 682 558 682 558 688.5 525.5 c 128,-1,65
 695 493 695 493 708.5 464 c 128,-1,66
 722 435 722 435 746 412.5 c 128,-1,67
 770 390 770 390 806 376.5 c 128,-1,68
 842 363 842 363 894 363 c 256,69,70
 946 363 946 363 989.5 367.5 c 128,-1,71
 1033 372 1033 372 1076 386 c 1,72,-1
 1081 507 l 1,73,-1
 1031 511 l 1,74,-1
 1021 506 l 1,75,-1
 959 506 l 2,76,77
 945 506 945 506 930 505.5 c 128,-1,78
 915 505 915 505 898 505 c 1,79,80
 890 515 890 515 881 524.5 c 128,-1,81
 872 534 872 534 864 545 c 1,82,83
 862 569 862 569 862 593 c 128,-1,84
 862 617 862 617 862 642 c 2,85,-1
 862 709 l 1,86,-1
 862 821 l 2,87,88
 862 838 862 838 870 849.5 c 128,-1,89
 878 861 878 861 898 875 c 1,90,-1
 970 875 l 2,91,92
 1024 875 1024 875 1068 874.5 c 128,-1,93
 1112 874 1112 874 1152.5 873 c 128,-1,94
 1193 872 1193 872 1232 871.5 c 128,-1,95
 1271 871 1271 871 1315 871 c 0,96,97
 1334 871 1334 871 1354 871.5 c 128,-1,98
 1374 872 1374 872 1396 872 c 0,99,100
 1428 872 1428 872 1463 871.5 c 128,-1,101
 1498 871 1498 871 1529 867.5 c 128,-1,102
 1560 864 1560 864 1582.5 857 c 128,-1,103
 1605 850 1605 850 1613 837 c 1,104,105
 1612 646 1612 646 1606.5 455.5 c 128,-1,106
 1601 265 1601 265 1601 90 c 0,107,108
 1601 85 1601 85 1601.5 80 c 128,-1,109
 1602 75 1602 75 1602 70 c 1,0,1
EndSplineSet
EndChar

StartChar: H
Encoding: 72 72 40
Width: 1654
Flags: W
LayerCount: 2
Fore
SplineSet
1552 457 m 2,0,1
 1552 433 1552 433 1552.5 409 c 128,-1,2
 1553 385 1553 385 1554 359 c 1,3,-1
 1554 352 l 2,4,5
 1554 345 1554 345 1554 338.5 c 128,-1,6
 1554 332 1554 332 1553 326 c 1,7,8
 1553 247 1553 247 1553.5 166 c 128,-1,9
 1554 85 1554 85 1555 4 c 1,10,11
 1553 -8 1553 -8 1536 -15 c 128,-1,12
 1519 -22 1519 -22 1492.5 -26 c 128,-1,13
 1466 -30 1466 -30 1432.5 -31.5 c 128,-1,14
 1399 -33 1399 -33 1364 -33 c 0,15,16
 1291 -33 1291 -33 1236 -33 c 128,-1,17
 1181 -33 1181 -33 1134 -32 c 128,-1,18
 1087 -31 1087 -31 1043 -30 c 128,-1,19
 999 -29 999 -29 948 -27 c 1,20,-1
 918 10 l 1,21,-1
 918 75 l 2,22,23
 918 175 918 175 919 273.5 c 128,-1,24
 920 372 920 372 920 473 c 0,25,26
 920 489 920 489 918.5 497 c 128,-1,27
 917 505 917 505 911 508.5 c 128,-1,28
 905 512 905 512 892 512 c 128,-1,29
 879 512 879 512 857 512 c 0,30,31
 825 512 825 512 793.5 511 c 128,-1,32
 762 510 762 510 731 505 c 1,33,34
 731 380 731 380 730 255 c 128,-1,35
 729 130 729 130 729 4 c 1,36,37
 726 -9 726 -9 688 -15.5 c 128,-1,38
 650 -22 650 -22 595.5 -24 c 128,-1,39
 541 -26 541 -26 477.5 -26 c 128,-1,40
 414 -26 414 -26 360 -26 c 0,41,42
 294 -26 294 -26 238 -25 c 128,-1,43
 182 -24 182 -24 125 -20 c 1,44,45
 114 -17 114 -17 107.5 -3 c 128,-1,46
 101 11 101 11 97 32.5 c 128,-1,47
 93 54 93 54 91.5 81 c 128,-1,48
 90 108 90 108 90 138 c 0,49,50
 90 195 90 195 93 253 c 128,-1,51
 96 311 96 311 96 353 c 0,52,53
 96 597 96 597 100 823.5 c 128,-1,54
 104 1050 104 1050 106 1275 c 0,55,56
 107 1299 107 1299 107 1336 c 128,-1,57
 107 1373 107 1373 108.5 1408.5 c 128,-1,58
 110 1444 110 1444 114.5 1471.5 c 128,-1,59
 119 1499 119 1499 129 1505 c 1,60,61
 155 1504 155 1504 182 1503.5 c 128,-1,62
 209 1503 209 1503 236 1503 c 2,63,-1
 346 1503 l 2,64,65
 386 1503 386 1503 424 1504 c 128,-1,66
 462 1505 462 1505 501 1505 c 0,67,68
 576 1505 576 1505 620.5 1499 c 128,-1,69
 665 1493 665 1493 688.5 1479.5 c 128,-1,70
 712 1466 712 1466 719.5 1443.5 c 128,-1,71
 727 1421 727 1421 727 1388 c 0,72,73
 727 1363 727 1363 725.5 1333 c 128,-1,74
 724 1303 724 1303 724 1266 c 2,75,-1
 724 1221 l 2,76,77
 724 1172 724 1172 721 1124 c 128,-1,78
 718 1076 718 1076 718 1027 c 0,79,80
 718 1018 718 1018 718 1009 c 128,-1,81
 718 1000 718 1000 719 991 c 1,82,-1
 761 991 l 2,83,84
 787 991 787 991 812.5 990.5 c 128,-1,85
 838 990 838 990 864 990 c 0,86,87
 881 990 881 990 898 991.5 c 128,-1,88
 915 993 915 993 932 995 c 1,89,90
 932 1067 932 1067 932.5 1137.5 c 128,-1,91
 933 1208 933 1208 933 1280 c 2,92,-1
 933 1347 l 2,93,94
 933 1364 933 1364 932.5 1379.5 c 128,-1,95
 932 1395 932 1395 932 1412 c 0,96,97
 932 1449 932 1449 934 1470 c 128,-1,98
 936 1491 936 1491 941.5 1501 c 128,-1,99
 947 1511 947 1511 957 1513 c 128,-1,100
 967 1515 967 1515 984 1515 c 0,101,102
 1005 1515 1005 1515 1025.5 1514.5 c 128,-1,103
 1046 1514 1046 1514 1067 1514 c 0,104,105
 1074 1514 1074 1514 1094 1515 c 128,-1,106
 1114 1516 1114 1516 1142 1517 c 128,-1,107
 1170 1518 1170 1518 1205 1519 c 128,-1,108
 1240 1520 1240 1520 1277 1520 c 0,109,110
 1326 1520 1326 1520 1374.5 1517.5 c 128,-1,111
 1423 1515 1423 1515 1462 1508.5 c 128,-1,112
 1501 1502 1501 1502 1525 1490 c 128,-1,113
 1549 1478 1549 1478 1549 1460 c 0,114,115
 1549 1437 1549 1437 1549.5 1414 c 128,-1,116
 1550 1391 1550 1391 1550 1368 c 0,117,118
 1550 1317 1550 1317 1549.5 1266.5 c 128,-1,119
 1549 1216 1549 1216 1549 1165 c 0,120,121
 1549 1008 1549 1008 1551.5 855 c 128,-1,122
 1554 702 1554 702 1554 545 c 0,123,124
 1554 534 1554 534 1553.5 523.5 c 128,-1,125
 1553 513 1553 513 1552 503 c 1,126,-1
 1552 457 l 2,0,1
EndSplineSet
EndChar

StartChar: I
Encoding: 73 73 41
Width: 842
Flags: W
LayerCount: 2
Fore
SplineSet
722 1172 m 1,0,-1
 722 1116 l 2,1,2
 722 916 722 916 725.5 720 c 128,-1,3
 729 524 729 524 729 324 c 1,4,5
 730 316 730 316 732.5 309 c 128,-1,6
 735 302 735 302 735 294 c 2,7,-1
 743 6 l 1,8,9
 740 -11 740 -11 730.5 -17.5 c 128,-1,10
 721 -24 721 -24 707 -26 c 1,11,-1
 673 -26 l 2,12,13
 534 -26 534 -26 398 -30.5 c 128,-1,14
 262 -35 262 -35 123 -35 c 1,15,16
 112 -30 112 -30 101.5 -23.5 c 128,-1,17
 91 -17 91 -17 82 -9 c 1,18,19
 84 96 84 96 86.5 197 c 128,-1,20
 89 298 89 298 96 401 c 1,21,22
 96 821 96 821 108 1252 c 1,23,24
 105 1315 105 1315 105 1377 c 2,25,-1
 105 1406 l 1,26,27
 103 1423 103 1423 102 1441 c 128,-1,28
 101 1459 101 1459 101 1478 c 256,29,30
 101 1497 101 1497 118 1512 c 1,31,32
 226 1505 226 1505 333 1502 c 128,-1,33
 440 1499 440 1499 554 1499 c 0,34,35
 595 1499 595 1499 634 1500 c 128,-1,36
 673 1501 673 1501 710 1505 c 1,37,38
 721 1503 721 1503 725 1493.5 c 128,-1,39
 729 1484 729 1484 729 1457 c 0,40,41
 729 1453 729 1453 727 1453 c 1,42,-1
 722 1172 l 1,0,-1
EndSplineSet
EndChar

StartChar: J
Encoding: 74 74 42
Width: 1383
Flags: W
LayerCount: 2
Fore
SplineSet
1289 1334 m 2,0,1
 1284 1196 1284 1196 1283 1061.5 c 128,-1,2
 1282 927 1282 927 1282 786 c 2,3,-1
 1282 678 l 2,4,5
 1282 624 1282 624 1282 574 c 128,-1,6
 1282 524 1282 524 1281 473 c 0,7,8
 1280 367 1280 367 1248.5 287 c 128,-1,9
 1217 207 1217 207 1164.5 148 c 128,-1,10
 1112 89 1112 89 1044.5 50 c 128,-1,11
 977 11 977 11 904 -12.5 c 128,-1,12
 831 -36 831 -36 758.5 -46 c 128,-1,13
 686 -56 686 -56 623 -56 c 0,14,15
 551 -56 551 -56 480.5 -49.5 c 128,-1,16
 410 -43 410 -43 341 -23 c 1,17,18
 285 -8 285 -8 221 25.5 c 128,-1,19
 157 59 157 59 103 114.5 c 128,-1,20
 49 170 49 170 13.5 248.5 c 128,-1,21
 -22 327 -22 327 -22 432 c 0,22,23
 -22 440 -22 440 -22.5 449.5 c 128,-1,24
 -23 459 -23 459 -23 470 c 0,25,26
 -23 492 -23 492 -17.5 509.5 c 128,-1,27
 -12 527 -12 527 9 527 c 0,28,29
 40 527 40 527 72 525 c 128,-1,30
 104 523 104 523 135 523 c 0,31,32
 155 523 155 523 176 523 c 128,-1,33
 197 523 197 523 217 524 c 1,34,35
 225 523 225 523 234 522.5 c 128,-1,36
 243 522 243 522 252 522 c 0,37,38
 263 522 263 522 274.5 522.5 c 128,-1,39
 286 523 286 523 298 523 c 2,40,-1
 464 520 l 2,41,42
 493 519 493 519 506 508 c 128,-1,43
 519 497 519 497 524 481 c 128,-1,44
 529 465 529 465 530 446.5 c 128,-1,45
 531 428 531 428 535 412.5 c 128,-1,46
 539 397 539 397 550.5 386.5 c 128,-1,47
 562 376 562 376 589 376 c 0,48,49
 614 376 614 376 628.5 391 c 128,-1,50
 643 406 643 406 650.5 428.5 c 128,-1,51
 658 451 658 451 659.5 477.5 c 128,-1,52
 661 504 661 504 661 528 c 2,53,-1
 661 540 l 1,54,55
 660 538 660 538 659 537.5 c 128,-1,56
 658 537 658 537 657 536 c 1,57,58
 655 681 655 681 652 831.5 c 128,-1,59
 649 982 649 982 649 1136 c 0,60,61
 649 1221 649 1221 650 1301.5 c 128,-1,62
 651 1382 651 1382 654 1467 c 1,63,64
 653 1469 653 1469 653 1476 c 0,65,66
 653 1498 653 1498 675 1508 c 1,67,-1
 692 1510 l 1,68,69
 740 1510 740 1510 787.5 1509.5 c 128,-1,70
 835 1509 835 1509 883 1509 c 0,71,72
 955 1509 955 1509 1025 1509.5 c 128,-1,73
 1095 1510 1095 1510 1167 1510 c 2,74,-1
 1262 1510 l 2,75,76
 1284 1510 1284 1510 1294 1482 c 1,77,78
 1292 1457 1292 1457 1292 1432.5 c 128,-1,79
 1292 1408 1292 1408 1291 1384 c 2,80,-1
 1289 1334 l 2,0,1
EndSplineSet
EndChar

StartChar: K
Encoding: 75 75 43
Width: 1646
Flags: W
LayerCount: 2
Fore
SplineSet
1242 759 m 1,0,1
 1253 745 1253 745 1263.5 731 c 128,-1,2
 1274 717 1274 717 1283 703 c 0,3,4
 1368 564 1368 564 1446.5 425 c 128,-1,5
 1525 286 1525 286 1610 145 c 0,6,7
 1617 132 1617 132 1629 113 c 128,-1,8
 1641 94 1641 94 1652 75 c 128,-1,9
 1663 56 1663 56 1671.5 39 c 128,-1,10
 1680 22 1680 22 1680 12 c 0,11,12
 1680 -6 1680 -6 1662 -21 c 1,13,14
 1638 -20 1638 -20 1614.5 -19.5 c 128,-1,15
 1591 -19 1591 -19 1567 -19 c 256,16,17
 1543 -19 1543 -19 1519 -19.5 c 128,-1,18
 1495 -20 1495 -20 1471 -21 c 1,19,-1
 1025 -21 l 2,20,21
 1021 -21 1021 -21 1021 -19 c 0,22,23
 949 122 949 122 876 259.5 c 128,-1,24
 803 397 803 397 734 538 c 1,25,26
 726 466 726 466 724.5 390.5 c 128,-1,27
 723 315 723 315 719 240 c 1,28,29
 720 180 720 180 720.5 122.5 c 128,-1,30
 721 65 721 65 721 5 c 1,31,32
 719 -7 719 -7 708.5 -14.5 c 128,-1,33
 698 -22 698 -22 681 -25.5 c 128,-1,34
 664 -29 664 -29 643 -30.5 c 128,-1,35
 622 -32 622 -32 599 -32 c 0,36,37
 579 -32 579 -32 560.5 -31.5 c 128,-1,38
 542 -31 542 -31 526 -31 c 0,39,40
 433 -31 433 -31 342.5 -32 c 128,-1,41
 252 -33 252 -33 161 -33 c 0,42,43
 144 -33 144 -33 134.5 -30.5 c 128,-1,44
 125 -28 125 -28 119 -23 c 128,-1,45
 113 -18 113 -18 109 -11 c 128,-1,46
 105 -4 105 -4 99 6 c 1,47,48
 99 84 99 84 99.5 159 c 128,-1,49
 100 234 100 234 100 312 c 2,50,-1
 100 863 l 1,51,-1
 103 1344 l 2,52,53
 103 1362 103 1362 101.5 1383.5 c 128,-1,54
 100 1405 100 1405 100 1428 c 0,55,56
 100 1456 100 1456 104.5 1479.5 c 128,-1,57
 109 1503 109 1503 123 1514 c 1,58,59
 143 1515 143 1515 161.5 1515 c 128,-1,60
 180 1515 180 1515 200 1515 c 0,61,62
 239 1515 239 1515 278.5 1515 c 128,-1,63
 318 1515 318 1515 358 1514 c 2,64,-1
 489 1512 l 2,65,66
 491 1512 491 1512 516 1513.5 c 128,-1,67
 541 1515 541 1515 573 1515 c 0,68,69
 597 1515 597 1515 621.5 1513.5 c 128,-1,70
 646 1512 646 1512 666.5 1508 c 128,-1,71
 687 1504 687 1504 701 1497 c 128,-1,72
 715 1490 715 1490 717 1479 c 1,73,-1
 717 1478 l 1,74,75
 715 1337 715 1337 714 1201.5 c 128,-1,76
 713 1066 713 1066 713 925 c 1,77,78
 758 1013 758 1013 798 1099.5 c 128,-1,79
 838 1186 838 1186 881 1274 c 0,80,81
 893 1299 893 1299 906 1331.5 c 128,-1,82
 919 1364 919 1364 933 1396 c 128,-1,83
 947 1428 947 1428 962.5 1457.5 c 128,-1,84
 978 1487 978 1487 996 1507 c 1,85,86
 1047 1508 1047 1508 1098 1508 c 128,-1,87
 1149 1508 1149 1508 1201 1508 c 0,88,89
 1306 1508 1306 1508 1406.5 1505.5 c 128,-1,90
 1507 1503 1507 1503 1607 1501 c 1,91,92
 1624 1496 1624 1496 1624 1487 c 0,93,94
 1624 1484 1624 1484 1620 1484 c 1,95,96
 1522 1311 1522 1311 1426.5 1136.5 c 128,-1,97
 1331 962 1331 962 1226 788 c 1,98,-1
 1242 759 l 1,0,1
EndSplineSet
EndChar

StartChar: L
Encoding: 76 76 44
Width: 1265
Flags: W
LayerCount: 2
Fore
SplineSet
1265 387 m 1,0,1
 1262 387 1262 387 1260.5 376 c 128,-1,2
 1259 365 1259 365 1259 352.5 c 128,-1,3
 1259 340 1259 340 1259 329.5 c 128,-1,4
 1259 319 1259 319 1259 320 c 1,5,6
 1259 301 1259 301 1260 282 c 128,-1,7
 1261 263 1261 263 1266 245 c 1,8,9
 1266 185 1266 185 1266 127 c 128,-1,10
 1266 69 1266 69 1265 9 c 1,11,12
 1262 -3 1262 -3 1222.5 -10 c 128,-1,13
 1183 -17 1183 -17 1121 -21 c 128,-1,14
 1059 -25 1059 -25 980.5 -26.5 c 128,-1,15
 902 -28 902 -28 820.5 -28 c 128,-1,16
 739 -28 739 -28 661 -28 c 128,-1,17
 583 -28 583 -28 522 -29 c 1,18,19
 462 -31 462 -31 403 -32.5 c 128,-1,20
 344 -34 344 -34 284 -34 c 0,21,22
 245 -34 245 -34 206 -33.5 c 128,-1,23
 167 -33 167 -33 128 -32 c 1,24,25
 112 -9 112 -9 107.5 21.5 c 128,-1,26
 103 52 103 52 103 85 c 0,27,28
 103 106 103 106 104 127 c 128,-1,29
 105 148 105 148 105 167 c 2,30,-1
 105 369 l 2,31,32
 105 556 105 556 106 738 c 128,-1,33
 107 920 107 920 107 1108 c 0,34,35
 107 1148 107 1148 104.5 1210.5 c 128,-1,36
 102 1273 102 1273 102 1337 c 0,37,38
 102 1369 102 1369 103.5 1399 c 128,-1,39
 105 1429 105 1429 109 1453.5 c 128,-1,40
 113 1478 113 1478 119.5 1495 c 128,-1,41
 126 1512 126 1512 136 1518 c 1,42,43
 150 1517 150 1517 164.5 1517 c 128,-1,44
 179 1517 179 1517 196 1517 c 0,45,46
 244 1517 244 1517 297.5 1518 c 128,-1,47
 351 1519 351 1519 406 1519 c 0,48,49
 466 1519 466 1519 522.5 1517 c 128,-1,50
 579 1515 579 1515 624 1509.5 c 128,-1,51
 669 1504 669 1504 698.5 1493.5 c 128,-1,52
 728 1483 728 1483 734 1466 c 1,53,54
 734 1379 734 1379 730 1295 c 128,-1,55
 726 1211 726 1211 726 1124 c 2,56,-1
 723 839 l 2,57,58
 723 828 723 828 722.5 815 c 128,-1,59
 722 802 722 802 722 791 c 2,60,-1
 718 434 l 1,61,-1
 743 420 l 1,62,63
 791 423 791 423 830 425 c 128,-1,64
 869 427 869 427 912 428 c 128,-1,65
 955 429 955 429 1008.5 429.5 c 128,-1,66
 1062 430 1062 430 1138 430 c 0,67,68
 1165 430 1165 430 1188.5 429 c 128,-1,69
 1212 428 1212 428 1229.5 424 c 128,-1,70
 1247 420 1247 420 1256.5 412.5 c 128,-1,71
 1266 405 1266 405 1266 393 c 0,72,73
 1266 391 1266 391 1265.5 390 c 128,-1,74
 1265 389 1265 389 1265 387 c 1,0,1
EndSplineSet
EndChar

StartChar: M
Encoding: 77 77 45
Width: 2193
Flags: W
LayerCount: 2
Fore
SplineSet
1872 -33 m 0,0,1
 1800 -34 1800 -34 1730 -34 c 128,-1,2
 1660 -34 1660 -34 1588 -34 c 1,3,4
 1572 -22 1572 -22 1562.5 7 c 128,-1,5
 1553 36 1553 36 1548 75 c 128,-1,6
 1543 114 1543 114 1541.5 159 c 128,-1,7
 1540 204 1540 204 1540 248 c 0,8,9
 1540 309 1540 309 1540.5 360.5 c 128,-1,10
 1541 412 1541 412 1541 458 c 128,-1,11
 1541 504 1541 504 1541.5 546.5 c 128,-1,12
 1542 589 1542 589 1542 633 c 0,13,14
 1542 667 1542 667 1542 702 c 128,-1,15
 1542 737 1542 737 1541 775 c 1,16,17
 1489 582 1489 582 1448 387.5 c 128,-1,18
 1407 193 1407 193 1362 -1 c 1,19,20
 1357 -13 1357 -13 1343 -19 c 128,-1,21
 1329 -25 1329 -25 1310.5 -27.5 c 128,-1,22
 1292 -30 1292 -30 1270 -30 c 128,-1,23
 1248 -30 1248 -30 1227 -30 c 1,24,25
 1165 -27 1165 -27 1105 -27 c 0,26,27
 1057 -27 1057 -27 1011.5 -28 c 128,-1,28
 966 -29 966 -29 915 -29 c 0,29,30
 891 -29 891 -29 870 -23 c 128,-1,31
 849 -17 849 -17 841 6 c 1,32,-1
 771 308 l 2,33,34
 757 366 757 366 744 424 c 128,-1,35
 731 482 731 482 719 540 c 1,36,-1
 649 845 l 1,37,38
 644 724 644 724 640.5 603 c 128,-1,39
 637 482 637 482 637 356 c 0,40,41
 637 268 637 268 637 180.5 c 128,-1,42
 637 93 637 93 638 2 c 1,43,44
 635 -20 635 -20 617 -20 c 0,45,46
 594 -20 594 -20 570 -19.5 c 128,-1,47
 546 -19 546 -19 522 -19 c 0,48,49
 434 -19 434 -19 349 -20.5 c 128,-1,50
 264 -22 264 -22 176 -22 c 0,51,52
 155 -22 155 -22 138.5 -19 c 128,-1,53
 122 -16 122 -16 122 -5 c 0,54,55
 122 -1 122 -1 123.5 6 c 128,-1,56
 125 13 125 13 127 24 c 1,57,58
 125 66 125 66 123.5 109 c 128,-1,59
 122 152 122 152 122 195 c 2,60,-1
 122 197 l 1,61,62
 124 469 124 469 124 738.5 c 128,-1,63
 124 1008 124 1008 126 1282 c 0,64,65
 126 1333 126 1333 125 1381.5 c 128,-1,66
 124 1430 124 1430 124 1481 c 0,67,68
 124 1490 124 1490 128.5 1496.5 c 128,-1,69
 133 1503 133 1503 147 1513 c 1,70,71
 175 1513 175 1513 198.5 1513.5 c 128,-1,72
 222 1514 222 1514 246 1514 c 128,-1,73
 270 1514 270 1514 298.5 1514 c 128,-1,74
 327 1514 327 1514 365 1514 c 0,75,76
 458 1514 458 1514 524 1513.5 c 128,-1,77
 590 1513 590 1513 636.5 1511.5 c 128,-1,78
 683 1510 683 1510 713.5 1508.5 c 128,-1,79
 744 1507 744 1507 766 1505.5 c 128,-1,80
 788 1504 788 1504 804.5 1503 c 128,-1,81
 821 1502 821 1502 840 1500.5 c 128,-1,82
 859 1499 859 1499 883.5 1498.5 c 128,-1,83
 908 1498 908 1498 945 1498 c 1,84,85
 980 1297 980 1297 1019.5 1100 c 128,-1,86
 1059 903 1059 903 1097 702 c 1,87,-1
 1218 1321 l 2,88,89
 1219 1325 1219 1325 1221 1340.5 c 128,-1,90
 1223 1356 1223 1356 1226.5 1376.5 c 128,-1,91
 1230 1397 1230 1397 1234.5 1420 c 128,-1,92
 1239 1443 1239 1443 1244.5 1462.5 c 128,-1,93
 1250 1482 1250 1482 1256.5 1494.5 c 128,-1,94
 1263 1507 1263 1507 1269 1507 c 0,95,96
 1271 1507 1271 1507 1272 1506.5 c 128,-1,97
 1273 1506 1273 1506 1275 1506 c 0,98,99
 1436 1507 1436 1507 1592 1509.5 c 128,-1,100
 1748 1512 1748 1512 1907 1512 c 0,101,102
 1945 1512 1945 1512 1982 1511.5 c 128,-1,103
 2019 1511 2019 1511 2057 1511 c 1,104,105
 2071 1509 2071 1509 2077.5 1497.5 c 128,-1,106
 2084 1486 2084 1486 2084 1455 c 0,107,108
 2090 1193 2090 1193 2097 920.5 c 128,-1,109
 2104 648 2104 648 2109 374 c 1,110,111
 2109 186 2109 186 2103 5 c 1,112,113
 2100 -16 2100 -16 2083.5 -22.5 c 128,-1,114
 2067 -29 2067 -29 2045 -29 c 2,115,-1
 2001 -31 l 2,116,117
 1969 -33 1969 -33 1936.5 -33 c 128,-1,118
 1904 -33 1904 -33 1872 -33 c 0,0,1
EndSplineSet
EndChar

StartChar: N
Encoding: 78 78 46
Width: 1727
Flags: W
LayerCount: 2
Fore
SplineSet
1614 300 m 2,0,1
 1614 228 1614 228 1615 154.5 c 128,-1,2
 1616 81 1616 81 1617 8 c 1,3,4
 1614 -9 1614 -9 1593.5 -13.5 c 128,-1,5
 1573 -18 1573 -18 1550 -18 c 2,6,-1
 1524 -18 l 2,7,8
 1446 -18 1446 -18 1371 -20 c 128,-1,9
 1296 -22 1296 -22 1218 -22 c 0,10,11
 1143 -22 1143 -22 1070.5 -22 c 128,-1,12
 998 -22 998 -22 925 -21 c 1,13,14
 919 -19 919 -19 909.5 -1 c 128,-1,15
 900 17 900 17 889 44 c 128,-1,16
 878 71 878 71 866 104 c 128,-1,17
 854 137 854 137 842.5 169.5 c 128,-1,18
 831 202 831 202 821 230 c 128,-1,19
 811 258 811 258 805 276 c 2,20,-1
 622 759 l 1,21,22
 622 671 622 671 621.5 584 c 128,-1,23
 621 497 621 497 621 409 c 0,24,25
 621 343 621 343 622.5 276.5 c 128,-1,26
 624 210 624 210 624 144 c 2,27,-1
 624 44 l 2,28,29
 624 30 624 30 624 17.5 c 128,-1,30
 624 5 624 5 620.5 -5.5 c 128,-1,31
 617 -16 617 -16 609 -23 c 128,-1,32
 601 -30 601 -30 585 -31 c 1,33,34
 511 -28 511 -28 442 -28 c 1,35,36
 382 -27 382 -27 323 -28.5 c 128,-1,37
 264 -30 264 -30 204 -32 c 2,38,-1
 125 -34 l 1,39,40
 112 -21 112 -21 96 -4.5 c 128,-1,41
 80 12 80 12 80 33 c 0,42,43
 80 51 80 51 80.5 68.5 c 128,-1,44
 81 86 81 86 81 103 c 2,45,-1
 84 449 l 1,46,47
 84 687 84 687 85.5 921 c 128,-1,48
 87 1155 87 1155 96 1394 c 1,49,-1
 98 1475 l 2,50,51
 98 1492 98 1492 104 1497 c 128,-1,52
 110 1502 110 1502 123 1502 c 0,53,54
 291 1503 291 1503 456.5 1507 c 128,-1,55
 622 1511 622 1511 791 1511 c 1,56,57
 799 1510 799 1510 805.5 1501.5 c 128,-1,58
 812 1493 812 1493 816.5 1481.5 c 128,-1,59
 821 1470 821 1470 825 1457 c 128,-1,60
 829 1444 829 1444 833 1433 c 0,61,62
 898 1246 898 1246 967.5 1066 c 128,-1,63
 1037 886 1037 886 1107 701 c 1,64,65
 1107 898 1107 898 1108.5 1089.5 c 128,-1,66
 1110 1281 1110 1281 1111 1480 c 0,67,68
 1111 1489 1111 1489 1124 1494.5 c 128,-1,69
 1137 1500 1137 1500 1159.5 1503 c 128,-1,70
 1182 1506 1182 1506 1211 1507 c 128,-1,71
 1240 1508 1240 1508 1273 1508 c 0,72,73
 1307 1508 1307 1508 1342 1507 c 128,-1,74
 1377 1506 1377 1506 1409.5 1505.5 c 128,-1,75
 1442 1505 1442 1505 1469.5 1504 c 128,-1,76
 1497 1503 1497 1503 1516 1503 c 2,77,-1
 1592 1503 l 2,78,79
 1600 1503 1600 1503 1603.5 1501.5 c 128,-1,80
 1607 1500 1607 1500 1609 1498 c 1,81,82
 1613 1289 1613 1289 1614 1094 c 128,-1,83
 1615 899 1615 899 1615 702 c 0,84,85
 1615 621 1615 621 1614 541 c 128,-1,86
 1613 461 1613 461 1614 380 c 1,87,-1
 1614 300 l 2,0,1
1610 1498 m 1,88,-1
 1610 1497 l 2,89,90
 1610 1498 1610 1498 1609 1498 c 1,91,-1
 1609 1501 l 1,92,93
 1610 1499 1610 1499 1610 1499 c 1,94,-1
 1610 1498 l 1,88,-1
EndSplineSet
EndChar

StartChar: O
Encoding: 79 79 47
Width: 1645
Flags: W
LayerCount: 2
Fore
SplineSet
821 1147 m 0,0,1
 774 1147 774 1147 742.5 1127.5 c 128,-1,2
 711 1108 711 1108 690 1076.5 c 128,-1,3
 669 1045 669 1045 657.5 1004 c 128,-1,4
 646 963 646 963 639.5 920 c 128,-1,5
 633 877 633 877 630 835 c 128,-1,6
 627 793 627 793 624 760 c 0,7,8
 622 742 622 742 620.5 720 c 128,-1,9
 619 698 619 698 619 673 c 0,10,11
 619 620 619 620 626 561 c 128,-1,12
 633 502 633 502 652 452 c 128,-1,13
 671 402 671 402 705 368 c 128,-1,14
 739 334 739 334 794 331 c 1,15,16
 847 331 847 331 884 350 c 128,-1,17
 921 369 921 369 945 402 c 128,-1,18
 969 435 969 435 982.5 479.5 c 128,-1,19
 996 524 996 524 1002.5 574.5 c 128,-1,20
 1009 625 1009 625 1010.5 679.5 c 128,-1,21
 1012 734 1012 734 1012 788 c 0,22,23
 1012 824 1012 824 1010 865 c 128,-1,24
 1008 906 1008 906 1001 946 c 128,-1,25
 994 986 994 986 981 1022.5 c 128,-1,26
 968 1059 968 1059 947 1086.5 c 128,-1,27
 926 1114 926 1114 895 1130.5 c 128,-1,28
 864 1147 864 1147 821 1147 c 0,0,1
1404 173 m 1,29,30
 1355 110 1355 110 1284.5 66.5 c 128,-1,31
 1214 23 1214 23 1133 -4 c 128,-1,32
 1052 -31 1052 -31 967 -43 c 128,-1,33
 882 -55 882 -55 804 -56 c 1,34,35
 673 -56 673 -56 557 -30 c 128,-1,36
 441 -4 441 -4 337 64 c 0,37,38
 242 126 242 126 181.5 206 c 128,-1,39
 121 286 121 286 86 376 c 128,-1,40
 51 466 51 466 38 562 c 128,-1,41
 25 658 25 658 25 752 c 1,42,43
 30 809 30 809 35 862.5 c 128,-1,44
 40 916 40 916 50 967.5 c 128,-1,45
 60 1019 60 1019 77.5 1070 c 128,-1,46
 95 1121 95 1121 124 1174 c 0,47,48
 179 1273 179 1273 256 1344 c 128,-1,49
 333 1415 333 1415 426 1461 c 128,-1,50
 519 1507 519 1507 625 1528.5 c 128,-1,51
 731 1550 731 1550 845 1550 c 0,52,53
 904 1550 904 1550 980.5 1539.5 c 128,-1,54
 1057 1529 1057 1529 1135 1503.5 c 128,-1,55
 1213 1478 1213 1478 1285 1434.5 c 128,-1,56
 1357 1391 1357 1391 1407 1325 c 1,57,58
 1461 1259 1461 1259 1499 1196 c 128,-1,59
 1537 1133 1537 1133 1560 1055 c 0,60,61
 1569 1025 1569 1025 1575.5 989.5 c 128,-1,62
 1582 954 1582 954 1586.5 917.5 c 128,-1,63
 1591 881 1591 881 1593.5 844.5 c 128,-1,64
 1596 808 1596 808 1596 776 c 0,65,66
 1596 698 1596 698 1588.5 623 c 128,-1,67
 1581 548 1581 548 1563.5 478.5 c 128,-1,68
 1546 409 1546 409 1517.5 346.5 c 128,-1,69
 1489 284 1489 284 1448 232 c 1,70,-1
 1404 173 l 1,29,30
EndSplineSet
EndChar

StartChar: P
Encoding: 80 80 48
Width: 1527
Flags: W
LayerCount: 2
Fore
SplineSet
731 123 m 0,0,1
 731 94 731 94 731.5 66.5 c 128,-1,2
 732 39 732 39 732 12 c 1,3,4
 730 -4 730 -4 722.5 -13.5 c 128,-1,5
 715 -23 715 -23 698 -25 c 1,6,-1
 130 -34 l 1,7,8
 113 11 113 11 109 51 c 128,-1,9
 105 91 105 91 105 136 c 2,10,-1
 105 443 l 1,11,12
 104 599 104 599 105.5 752.5 c 128,-1,13
 107 906 107 906 107 1064 c 2,14,-1
 107 1469 l 2,15,16
 107 1479 107 1479 118 1483.5 c 128,-1,17
 129 1488 129 1488 145 1489.5 c 128,-1,18
 161 1491 161 1491 179 1491 c 128,-1,19
 197 1491 197 1491 211 1492 c 2,20,-1
 333 1497 l 2,21,22
 364 1499 364 1499 393.5 1499 c 128,-1,23
 423 1499 423 1499 453 1499 c 2,24,-1
 534 1499 l 1,25,-1
 534 1501 l 1,26,27
 533 1503 533 1503 533 1503 c 1,28,29
 533 1506 533 1506 540 1508 c 128,-1,30
 547 1510 547 1510 558 1510.5 c 128,-1,31
 569 1511 569 1511 582.5 1511.5 c 128,-1,32
 596 1512 596 1512 609 1512 c 0,33,34
 705 1512 705 1512 795 1510.5 c 128,-1,35
 885 1509 885 1509 976 1501 c 1,36,37
 989 1502 989 1502 1000.5 1502.5 c 128,-1,38
 1012 1503 1012 1503 1024 1503 c 0,39,40
 1122 1503 1122 1503 1212 1470.5 c 128,-1,41
 1302 1438 1302 1438 1370.5 1374 c 128,-1,42
 1439 1310 1439 1310 1480 1216 c 128,-1,43
 1521 1122 1521 1122 1521 999 c 0,44,45
 1521 893 1521 893 1494 814.5 c 128,-1,46
 1467 736 1467 736 1421 679.5 c 128,-1,47
 1375 623 1375 623 1315 586 c 128,-1,48
 1255 549 1255 549 1189.5 526.5 c 128,-1,49
 1124 504 1124 504 1057.5 492.5 c 128,-1,50
 991 481 991 481 932 476 c 1,51,-1
 817 471 l 1,52,-1
 741 467 l 1,53,54
 738 379 738 379 735.5 294.5 c 128,-1,55
 733 210 733 210 731 123 c 0,0,1
958 1073 m 1,56,57
 944 1110 944 1110 916 1130 c 128,-1,58
 888 1150 888 1150 853 1159 c 128,-1,59
 818 1168 818 1168 778.5 1169.5 c 128,-1,60
 739 1171 739 1171 702 1171 c 1,61,62
 694 1167 694 1167 688.5 1147 c 128,-1,63
 683 1127 683 1127 679.5 1097.5 c 128,-1,64
 676 1068 676 1068 674 1032 c 128,-1,65
 672 996 672 996 671 960 c 128,-1,66
 670 924 670 924 669.5 891.5 c 128,-1,67
 669 859 669 859 668 837 c 1,68,-1
 699 793 l 1,69,70
 748 794 748 794 797 803.5 c 128,-1,71
 846 813 846 813 884.5 836 c 128,-1,72
 923 859 923 859 947 899 c 128,-1,73
 971 939 971 939 971 1001 c 0,74,75
 971 1046 971 1046 958 1073 c 1,56,57
EndSplineSet
EndChar

StartChar: Q
Encoding: 81 81 49
Width: 1642
Flags: W
LayerCount: 2
Fore
SplineSet
1564 398 m 0,0,1
 1592 397 1592 397 1609 391.5 c 128,-1,2
 1626 386 1626 386 1635 377.5 c 128,-1,3
 1644 369 1644 369 1647 358 c 128,-1,4
 1650 347 1650 347 1650 336 c 256,5,6
 1650 325 1650 325 1649 313.5 c 128,-1,7
 1648 302 1648 302 1648 291 c 0,8,9
 1648 279 1648 279 1648.5 267.5 c 128,-1,10
 1649 256 1649 256 1649 243 c 2,11,-1
 1650 148 l 2,12,13
 1650 110 1650 110 1649 72 c 128,-1,14
 1648 34 1648 34 1649 -4 c 1,15,16
 1647 -21 1647 -21 1637.5 -29.5 c 128,-1,17
 1628 -38 1628 -38 1609 -44 c 1,18,19
 1596 -42 1596 -42 1567 -39.5 c 128,-1,20
 1538 -37 1538 -37 1500 -35 c 128,-1,21
 1462 -33 1462 -33 1418.5 -31.5 c 128,-1,22
 1375 -30 1375 -30 1333 -30 c 0,23,24
 1258 -30 1258 -30 1188.5 -36 c 128,-1,25
 1119 -42 1119 -42 1053 -49 c 128,-1,26
 987 -56 987 -56 922.5 -62 c 128,-1,27
 858 -68 858 -68 792 -68 c 0,28,29
 682 -68 682 -68 592 -46 c 128,-1,30
 502 -24 502 -24 429.5 16.5 c 128,-1,31
 357 57 357 57 299 115 c 128,-1,32
 241 173 241 173 195 245 c 1,33,-1
 185 243 l 1,34,35
 179 249 179 249 172 255 c 128,-1,36
 165 261 165 261 160 270 c 0,37,38
 94 376 94 376 66.5 499.5 c 128,-1,39
 39 623 39 623 39 747 c 0,40,41
 39 893 39 893 71.5 1009.5 c 128,-1,42
 104 1126 104 1126 160.5 1215 c 128,-1,43
 217 1304 217 1304 295 1367.5 c 128,-1,44
 373 1431 373 1431 463.5 1471.5 c 128,-1,45
 554 1512 554 1512 654.5 1531 c 128,-1,46
 755 1550 755 1550 857 1550 c 0,47,48
 1035 1550 1035 1550 1174 1491 c 128,-1,49
 1313 1432 1313 1432 1409 1329.5 c 128,-1,50
 1505 1227 1505 1227 1555 1087.5 c 128,-1,51
 1605 948 1605 948 1605 787 c 0,52,53
 1605 734 1605 734 1597 681 c 128,-1,54
 1589 628 1589 628 1573.5 577.5 c 128,-1,55
 1558 527 1558 527 1536 480.5 c 128,-1,56
 1514 434 1514 434 1486 396 c 1,57,58
 1506 397 1506 397 1525 397.5 c 128,-1,59
 1544 398 1544 398 1564 398 c 0,0,1
823 1167 m 0,60,61
 779 1167 779 1167 747 1146.5 c 128,-1,62
 715 1126 715 1126 692.5 1092 c 128,-1,63
 670 1058 670 1058 656 1013 c 128,-1,64
 642 968 642 968 634 919 c 128,-1,65
 626 870 626 870 623 820.5 c 128,-1,66
 620 771 620 771 620 727 c 0,67,68
 620 691 620 691 621 647.5 c 128,-1,69
 622 604 622 604 627.5 558.5 c 128,-1,70
 633 513 633 513 644 470 c 128,-1,71
 655 427 655 427 676 394 c 128,-1,72
 697 361 697 361 728.5 340.5 c 128,-1,73
 760 320 760 320 806 320 c 0,74,75
 808 320 808 320 809 320.5 c 128,-1,76
 810 321 810 321 812 321 c 1,77,-1
 809 343 l 2,78,79
 809 349 809 349 816 349 c 0,80,81
 824 349 824 349 833 346 c 128,-1,82
 842 343 842 343 850 343 c 0,83,84
 886 343 886 343 912 359 c 128,-1,85
 938 375 938 375 955.5 401.5 c 128,-1,86
 973 428 973 428 983.5 462 c 128,-1,87
 994 496 994 496 999.5 531.5 c 128,-1,88
 1005 567 1005 567 1007 602 c 128,-1,89
 1009 637 1009 637 1010 666 c 0,90,91
 1011 698 1011 698 1012 734 c 128,-1,92
 1013 770 1013 770 1013 810 c 0,93,94
 1013 868 1013 868 1007.5 931 c 128,-1,95
 1002 994 1002 994 982.5 1046.5 c 128,-1,96
 963 1099 963 1099 925 1133 c 128,-1,97
 887 1167 887 1167 823 1167 c 0,60,61
EndSplineSet
EndChar

StartChar: R
Encoding: 82 82 50
Width: 1561
Flags: W
LayerCount: 2
Fore
SplineSet
1561 17 m 1,0,1
 1561 -5 1561 -5 1552 -5 c 1,2,-1
 1546 -8 l 1,3,-1
 1543 -11 l 1,4,5
 1452 -17 1452 -17 1361 -19.5 c 128,-1,6
 1270 -22 1270 -22 1177 -22 c 0,7,8
 1126 -22 1126 -22 1077.5 -20 c 128,-1,9
 1029 -18 1029 -18 978 -16 c 1,10,11
 966 -13 966 -13 956.5 7.5 c 128,-1,12
 947 28 947 28 939 59.5 c 128,-1,13
 931 91 931 91 924.5 128.5 c 128,-1,14
 918 166 918 166 912.5 203.5 c 128,-1,15
 907 241 907 241 903 274.5 c 128,-1,16
 899 308 899 308 896 330 c 1,17,18
 894 381 894 381 886 413 c 128,-1,19
 878 445 878 445 862.5 463 c 128,-1,20
 847 481 847 481 822.5 487 c 128,-1,21
 798 493 798 493 762 493 c 0,22,23
 750 493 750 493 739 492.5 c 128,-1,24
 728 492 728 492 718 492 c 1,25,-1
 718 306 l 2,26,27
 718 276 718 276 718.5 246 c 128,-1,28
 719 216 719 216 719 186 c 2,29,-1
 719 4 l 1,30,31
 717 -10 717 -10 709 -17 c 128,-1,32
 701 -24 701 -24 684 -25 c 0,33,34
 545 -30 545 -30 403.5 -29 c 128,-1,35
 262 -28 262 -28 123 -30 c 1,36,37
 108 -24 108 -24 93 -15 c 1,38,39
 93 153 93 153 94 320 c 128,-1,40
 95 487 95 487 97 659 c 2,41,-1
 98 818 l 2,42,43
 98 850 98 850 98.5 881 c 128,-1,44
 99 912 99 912 99 944 c 0,45,46
 98 998 98 998 97 1052.5 c 128,-1,47
 96 1107 96 1107 96 1165 c 0,48,49
 96 1243 96 1243 98 1320.5 c 128,-1,50
 100 1398 100 1398 100 1476 c 0,51,52
 100 1494 100 1494 122 1499 c 128,-1,53
 144 1504 144 1504 175 1504 c 0,54,55
 238 1504 238 1504 298 1503 c 128,-1,56
 358 1502 358 1502 421 1502 c 2,57,-1
 555 1504 l 1,58,59
 633 1504 633 1504 711.5 1505.5 c 128,-1,60
 790 1507 790 1507 868 1507 c 0,61,62
 913 1507 913 1507 957.5 1506 c 128,-1,63
 1002 1505 1002 1505 1047 1503 c 0,64,65
 1276 1497 1276 1497 1393.5 1394.5 c 128,-1,66
 1511 1292 1511 1292 1511 1109 c 0,67,68
 1511 1043 1511 1043 1494.5 989 c 128,-1,69
 1478 935 1478 935 1446.5 892 c 128,-1,70
 1415 849 1415 849 1370 815 c 128,-1,71
 1325 781 1325 781 1268 754 c 1,72,73
 1331 734 1331 734 1372 698 c 128,-1,74
 1413 662 1413 662 1439 616 c 128,-1,75
 1465 570 1465 570 1478.5 516.5 c 128,-1,76
 1492 463 1492 463 1499.5 407.5 c 128,-1,77
 1507 352 1507 352 1511 297 c 128,-1,78
 1515 242 1515 242 1522 193 c 1,79,80
 1531 148 1531 148 1539.5 105 c 128,-1,81
 1548 62 1548 62 1561 17 c 1,0,1
907 1149 m 0,82,83
 873 1163 873 1163 835.5 1167.5 c 128,-1,84
 798 1172 798 1172 759 1172 c 2,85,-1
 736 1172 l 1,86,87
 719 1165 719 1165 715.5 1141.5 c 128,-1,88
 712 1118 712 1118 712 1080 c 0,89,90
 712 1051 712 1051 712.5 1017 c 128,-1,91
 713 983 713 983 717 950.5 c 128,-1,92
 721 918 721 918 729.5 891 c 128,-1,93
 738 864 738 864 754 849 c 1,94,95
 792 850 792 850 832.5 858 c 128,-1,96
 873 866 873 866 906 886.5 c 128,-1,97
 939 907 939 907 960.5 943.5 c 128,-1,98
 982 980 982 980 982 1039 c 0,99,100
 982 1084 982 1084 960.5 1109.5 c 128,-1,101
 939 1135 939 1135 907 1149 c 0,82,83
EndSplineSet
EndChar

StartChar: S
Encoding: 83 83 51
Width: 1484
Flags: W
LayerCount: 2
Fore
SplineSet
810 996 m 0,0,1
 835 988 835 988 867.5 980.5 c 128,-1,2
 900 973 900 973 936.5 964.5 c 128,-1,3
 973 956 973 956 1012.5 946 c 128,-1,4
 1052 936 1052 936 1091 923 c 0,5,6
 1168 897 1168 897 1236 861.5 c 128,-1,7
 1304 826 1304 826 1354.5 775 c 128,-1,8
 1405 724 1405 724 1434.5 653 c 128,-1,9
 1464 582 1464 582 1464 486 c 0,10,11
 1464 371 1464 371 1431.5 287 c 128,-1,12
 1399 203 1399 203 1344 144.5 c 128,-1,13
 1289 86 1289 86 1216 48.5 c 128,-1,14
 1143 11 1143 11 1061 -11 c 128,-1,15
 979 -33 979 -33 893.5 -44 c 128,-1,16
 808 -55 808 -55 728 -61 c 1,17,18
 690 -59 690 -59 644.5 -57.5 c 128,-1,19
 599 -56 599 -56 550 -50 c 0,20,21
 482 -42 482 -42 415 -24 c 128,-1,22
 348 -6 348 -6 290 22 c 128,-1,23
 232 50 232 50 188 87 c 128,-1,24
 144 124 144 124 121 171 c 1,25,26
 96 207 96 207 82 233.5 c 128,-1,27
 68 260 68 260 60.5 287 c 128,-1,28
 53 314 53 314 49 345.5 c 128,-1,29
 45 377 45 377 41 422 c 1,30,31
 41 443 41 443 60 444 c 1,32,33
 69 442 69 442 79 442 c 128,-1,34
 89 442 89 442 99 442 c 0,35,36
 223 442 223 442 341 446 c 128,-1,37
 459 450 459 450 585 450 c 0,38,39
 605 450 605 450 615 440 c 128,-1,40
 625 430 625 430 631.5 415.5 c 128,-1,41
 638 401 638 401 644.5 384 c 128,-1,42
 651 367 651 367 663.5 352.5 c 128,-1,43
 676 338 676 338 697.5 328 c 128,-1,44
 719 318 719 318 756 318 c 0,45,46
 778 318 778 318 800.5 324.5 c 128,-1,47
 823 331 823 331 840 344 c 128,-1,48
 857 357 857 357 868 376 c 128,-1,49
 879 395 879 395 879 421 c 0,50,51
 879 451 879 451 856 471 c 128,-1,52
 833 491 833 491 799 504.5 c 128,-1,53
 765 518 765 518 725.5 526.5 c 128,-1,54
 686 535 686 535 653 543 c 1,55,56
 618 554 618 554 580.5 561 c 128,-1,57
 543 568 543 568 507 578 c 0,58,59
 388 610 388 610 302.5 649 c 128,-1,60
 217 688 217 688 161.5 740 c 128,-1,61
 106 792 106 792 79.5 858 c 128,-1,62
 53 924 53 924 53 1010 c 0,63,64
 53 1114 53 1114 83.5 1195 c 128,-1,65
 114 1276 114 1276 167 1336.5 c 128,-1,66
 220 1397 220 1397 290.5 1439 c 128,-1,67
 361 1481 361 1481 442 1507 c 128,-1,68
 523 1533 523 1533 609.5 1544.5 c 128,-1,69
 696 1556 696 1556 780 1556 c 0,70,71
 835 1556 835 1556 894.5 1551 c 128,-1,72
 954 1546 954 1546 1012.5 1534 c 128,-1,73
 1071 1522 1071 1522 1126.5 1502 c 128,-1,74
 1182 1482 1182 1482 1229 1452 c 0,75,76
 1230 1452 1230 1452 1230 1450 c 1,77,78
 1287 1409 1287 1409 1323 1369 c 128,-1,79
 1359 1329 1359 1329 1380 1287 c 128,-1,80
 1401 1245 1401 1245 1410.5 1200.5 c 128,-1,81
 1420 1156 1420 1156 1425 1105 c 1,82,-1
 1387 1068 l 1,83,84
 1272 1064 1272 1064 1159 1061.5 c 128,-1,85
 1046 1059 1046 1059 927 1059 c 0,86,87
 892 1059 892 1059 875 1066.5 c 128,-1,88
 858 1074 858 1074 850.5 1084.5 c 128,-1,89
 843 1095 843 1095 839.5 1108 c 128,-1,90
 836 1121 836 1121 829 1131.5 c 128,-1,91
 822 1142 822 1142 806 1149.5 c 128,-1,92
 790 1157 790 1157 757 1157 c 1,93,94
 750 1156 750 1156 730 1153.5 c 128,-1,95
 710 1151 710 1151 689 1144.5 c 128,-1,96
 668 1138 668 1138 651 1125.5 c 128,-1,97
 634 1113 634 1113 633 1092 c 1,98,99
 633 1068 633 1068 654 1052 c 128,-1,100
 675 1036 675 1036 704 1025.5 c 128,-1,101
 733 1015 733 1015 762.5 1008.5 c 128,-1,102
 792 1002 792 1002 810 996 c 0,0,1
EndSplineSet
EndChar

StartChar: T
Encoding: 84 84 52
Width: 1318
Flags: W
LayerCount: 2
Fore
SplineSet
1328 1092 m 0,0,1
 1324 1073 1324 1073 1304 1073 c 0,2,3
 1219 1073 1219 1073 1138 1074.5 c 128,-1,4
 1057 1076 1057 1076 972 1076 c 1,5,6
 970 959 970 959 970 845 c 128,-1,7
 970 731 970 731 970 614 c 0,8,9
 970 591 970 591 970.5 568 c 128,-1,10
 971 545 971 545 971 522 c 2,11,-1
 974 4 l 1,12,13
 969 -26 969 -26 937 -29 c 1,14,15
 886 -29 886 -29 834.5 -27.5 c 128,-1,16
 783 -26 783 -26 732 -26 c 0,17,18
 730 -26 730 -26 729.5 -26.5 c 128,-1,19
 729 -27 729 -27 728 -27 c 0,20,21
 665 -27 665 -27 605.5 -26.5 c 128,-1,22
 546 -26 546 -26 486 -26 c 0,23,24
 456 -26 456 -26 426.5 -26 c 128,-1,25
 397 -26 397 -26 367 -27 c 1,26,-1
 348 -6 l 2,27,28
 342 1 342 1 337.5 7.5 c 128,-1,29
 333 14 333 14 329 20 c 1,30,31
 329 246 329 246 337.5 470.5 c 128,-1,32
 346 695 346 695 347 923 c 1,33,34
 345 950 345 950 342.5 977 c 128,-1,35
 340 1004 340 1004 340 1032 c 0,36,37
 340 1052 340 1052 327.5 1057.5 c 128,-1,38
 315 1063 315 1063 298 1063 c 0,39,40
 286 1063 286 1063 273.5 1062 c 128,-1,41
 261 1061 261 1061 250 1061 c 2,42,-1
 12 1065 l 1,43,44
 4 1067 4 1067 -1.5 1079 c 128,-1,45
 -7 1091 -7 1091 -10 1109.5 c 128,-1,46
 -13 1128 -13 1128 -14 1151 c 128,-1,47
 -15 1174 -15 1174 -15 1198 c 0,48,49
 -15 1227 -15 1227 -14 1254.5 c 128,-1,50
 -13 1282 -13 1282 -13 1301 c 0,51,52
 -13 1312 -13 1312 -14 1336.5 c 128,-1,53
 -15 1361 -15 1361 -15 1390 c 0,54,55
 -15 1409 -15 1409 -14.5 1428.5 c 128,-1,56
 -14 1448 -14 1448 -12 1463 c 128,-1,57
 -10 1478 -10 1478 -6.5 1487.5 c 128,-1,58
 -3 1497 -3 1497 3 1497 c 0,59,60
 7 1497 7 1497 18 1494 c 1,61,62
 330 1494 330 1494 636.5 1499.5 c 128,-1,63
 943 1505 943 1505 1252 1505 c 0,64,65
 1279 1505 1279 1505 1294.5 1502.5 c 128,-1,66
 1310 1500 1310 1500 1318 1494.5 c 128,-1,67
 1326 1489 1326 1489 1328 1480.5 c 128,-1,68
 1330 1472 1330 1472 1330 1460 c 2,69,-1
 1330 1433 l 2,70,71
 1330 1355 1330 1355 1330.5 1279 c 128,-1,72
 1331 1203 1331 1203 1331 1125 c 0,73,74
 1331 1107 1331 1107 1328 1092 c 0,0,1
EndSplineSet
EndChar

StartChar: U
Encoding: 85 85 53
Width: 1615
Flags: W
LayerCount: 2
Fore
SplineSet
821 -60 m 0,0,1
 737 -60 737 -60 651.5 -50.5 c 128,-1,2
 566 -41 566 -41 487 -17 c 128,-1,3
 408 7 408 7 338 48 c 128,-1,4
 268 89 268 89 215 151 c 128,-1,5
 162 213 162 213 129.5 298.5 c 128,-1,6
 97 384 97 384 92 498 c 1,7,8
 94 682 94 682 95.5 862.5 c 128,-1,9
 97 1043 97 1043 97 1232 c 1,10,11
 97 1232 97 1232 96 1243 c 128,-1,12
 95 1254 95 1254 94 1272.5 c 128,-1,13
 93 1291 93 1291 92.5 1315.5 c 128,-1,14
 92 1340 92 1340 92 1366 c 0,15,16
 92 1388 92 1388 93 1410 c 128,-1,17
 94 1432 94 1432 96 1450.5 c 128,-1,18
 98 1469 98 1469 101.5 1482.5 c 128,-1,19
 105 1496 105 1496 111 1502 c 1,20,21
 119 1502 119 1502 126.5 1501.5 c 128,-1,22
 134 1501 134 1501 142 1501 c 0,23,24
 236 1506 236 1506 333.5 1507.5 c 128,-1,25
 431 1509 431 1509 531 1509 c 0,26,27
 549 1509 549 1509 573 1507.5 c 128,-1,28
 597 1506 597 1506 621.5 1504 c 128,-1,29
 646 1502 646 1502 669 1500 c 128,-1,30
 692 1498 692 1498 708 1497 c 1,31,-1
 708 1498 l 1,32,33
 713 1360 713 1360 715.5 1223.5 c 128,-1,34
 718 1087 718 1087 718 946 c 1,35,-1
 715 750 l 2,36,37
 715 725 715 725 714.5 702.5 c 128,-1,38
 714 680 714 680 713.5 657.5 c 128,-1,39
 713 635 713 635 712.5 610.5 c 128,-1,40
 712 586 712 586 712 556 c 0,41,42
 712 528 712 528 715 497 c 128,-1,43
 718 466 718 466 727.5 440 c 128,-1,44
 737 414 737 414 755.5 397 c 128,-1,45
 774 380 774 380 806 380 c 0,46,47
 827 380 827 380 844.5 390 c 128,-1,48
 862 400 862 400 874.5 416.5 c 128,-1,49
 887 433 887 433 893.5 454 c 128,-1,50
 900 475 900 475 900 498 c 1,51,-1
 904 507 l 1,52,-1
 907 747 l 2,53,54
 907 776 907 776 907.5 805.5 c 128,-1,55
 908 835 908 835 908 865 c 0,56,57
 908 976 908 976 906.5 1082.5 c 128,-1,58
 905 1189 905 1189 902 1301 c 2,59,-1
 900 1372 l 2,60,61
 899 1387 899 1387 898.5 1404.5 c 128,-1,62
 898 1422 898 1422 898 1440 c 0,63,64
 898 1467 898 1467 903 1488.5 c 128,-1,65
 908 1510 908 1510 925 1515 c 1,66,67
 1072 1515 1072 1515 1214 1514.5 c 128,-1,68
 1356 1514 1356 1514 1500 1512 c 1,69,70
 1505 1509 1505 1509 1510 1505 c 128,-1,71
 1515 1501 1515 1501 1521 1497 c 2,72,-1
 1543 1483 l 1,73,74
 1538 1362 1538 1362 1536.5 1241.5 c 128,-1,75
 1535 1121 1535 1121 1535 1000 c 0,76,77
 1535 943 1535 943 1535.5 887.5 c 128,-1,78
 1536 832 1536 832 1536 775 c 0,79,80
 1536 706 1536 706 1534.5 637.5 c 128,-1,81
 1533 569 1533 569 1533 500 c 0,82,83
 1533 388 1533 388 1504 303 c 128,-1,84
 1475 218 1475 218 1425 155.5 c 128,-1,85
 1375 93 1375 93 1306.5 52 c 128,-1,86
 1238 11 1238 11 1159 -14 c 128,-1,87
 1080 -39 1080 -39 993.5 -49.5 c 128,-1,88
 907 -60 907 -60 821 -60 c 0,0,1
EndSplineSet
EndChar

StartChar: V
Encoding: 86 86 54
Width: 1555
Flags: W
LayerCount: 2
Fore
SplineSet
857 -22 m 1,0,1
 839 -24 839 -24 818.5 -25 c 128,-1,2
 798 -26 798 -26 778 -26 c 0,3,4
 682 -26 682 -26 590.5 -27.5 c 128,-1,5
 499 -29 499 -29 405 -31 c 1,6,7
 384 -20 384 -20 368.5 18 c 128,-1,8
 353 56 353 56 340.5 104 c 128,-1,9
 328 152 328 152 318 200.5 c 128,-1,10
 308 249 308 249 299 282 c 0,11,12
 217 582 217 582 131 878 c 128,-1,13
 45 1174 45 1174 -31 1476 c 1,14,15
 -31 1493 -31 1493 -23.5 1498.5 c 128,-1,16
 -16 1504 -16 1504 -2 1504 c 0,17,18
 141 1504 141 1504 280 1506 c 128,-1,19
 419 1508 419 1508 561 1508 c 0,20,21
 572 1508 572 1508 583.5 1503 c 128,-1,22
 595 1498 595 1498 607 1481 c 1,23,24
 649 1232 649 1232 692.5 985 c 128,-1,25
 736 738 736 738 781 485 c 1,26,-1
 788 443 l 1,27,-1
 796 484 l 1,28,29
 837 735 837 735 889.5 986 c 128,-1,30
 942 1237 942 1237 990 1486 c 0,31,32
 992 1492 992 1492 1018 1496 c 128,-1,33
 1044 1500 1044 1500 1085.5 1502.5 c 128,-1,34
 1127 1505 1127 1505 1179.5 1506.5 c 128,-1,35
 1232 1508 1232 1508 1288.5 1509 c 128,-1,36
 1345 1510 1345 1510 1401 1510 c 128,-1,37
 1457 1510 1457 1510 1504 1510 c 0,38,39
 1523 1510 1523 1510 1541 1509 c 128,-1,40
 1559 1508 1559 1508 1559 1506 c 2,41,-1
 1559 1504 l 1,42,43
 1571 1500 1571 1500 1576.5 1492 c 128,-1,44
 1582 1484 1582 1484 1584 1476 c 1,45,-1
 1402 815 l 2,46,47
 1391 777 1391 777 1380 740 c 128,-1,48
 1369 703 1369 703 1361 666 c 1,49,-1
 1340 589 l 2,50,51
 1330 550 1330 550 1316 490 c 128,-1,52
 1302 430 1302 430 1285 362.5 c 128,-1,53
 1268 295 1268 295 1249.5 227 c 128,-1,54
 1231 159 1231 159 1212 103.5 c 128,-1,55
 1193 48 1193 48 1175 12 c 128,-1,56
 1157 -24 1157 -24 1142 -27 c 1,57,58
 1088 -26 1088 -26 1035 -24 c 128,-1,59
 982 -22 982 -22 928 -22 c 2,60,-1
 857 -22 l 1,0,1
EndSplineSet
EndChar

StartChar: W
Encoding: 87 87 55
Width: 2130
Flags: W
LayerCount: 2
Fore
SplineSet
2004 719 m 2,0,1
 1995 680 1995 680 1983 640 c 1,2,-1
 1915 336 l 1,3,4
 1897 248 1897 248 1879.5 163.5 c 128,-1,5
 1862 79 1862 79 1846 -9 c 1,6,7
 1840 -21 1840 -21 1831 -21 c 0,8,9
 1828 -21 1828 -21 1821 -18 c 1,10,11
 1770 -21 1770 -21 1718.5 -21.5 c 128,-1,12
 1667 -22 1667 -22 1615 -22 c 0,13,14
 1564 -22 1564 -22 1513.5 -21.5 c 128,-1,15
 1463 -21 1463 -21 1411 -21 c 0,16,17
 1360 -21 1360 -21 1309 -22 c 128,-1,18
 1258 -23 1258 -23 1207 -25 c 1,19,20
 1187 -20 1187 -20 1187 -14 c 1,21,22
 1188 -14 1188 -14 1188 -13 c 0,23,24
 1174 89 1174 89 1159 188 c 128,-1,25
 1144 287 1144 287 1129 385 c 128,-1,26
 1114 483 1114 483 1099 581 c 128,-1,27
 1084 679 1084 679 1071 780 c 1,28,29
 1039 610 1039 610 1015.5 440 c 128,-1,30
 992 270 992 270 975 98 c 0,31,32
 973 75 973 75 969 52.5 c 128,-1,33
 965 30 965 30 958.5 11 c 128,-1,34
 952 -8 952 -8 941 -20 c 128,-1,35
 930 -32 930 -32 914 -33 c 1,36,37
 851 -31 851 -31 787.5 -29.5 c 128,-1,38
 724 -28 724 -28 660 -28 c 0,39,40
 569 -28 569 -28 482 -30 c 128,-1,41
 395 -32 395 -32 305 -35 c 1,42,43
 285 -25 285 -25 274.5 -5 c 128,-1,44
 264 15 264 15 258 39 c 128,-1,45
 252 63 252 63 248.5 89 c 128,-1,46
 245 115 245 115 241 137 c 0,47,48
 208 305 208 305 172 472 c 128,-1,49
 136 639 136 639 99 806.5 c 128,-1,50
 62 974 62 974 25.5 1141 c 128,-1,51
 -11 1308 -11 1308 -45 1476 c 1,52,53
 -45 1490 -45 1490 -38.5 1498.5 c 128,-1,54
 -32 1507 -32 1507 -15 1514 c 1,55,56
 3 1512 3 1512 22 1512 c 128,-1,57
 41 1512 41 1512 60 1511 c 1,58,-1
 139 1514 l 2,59,60
 209 1517 209 1517 274 1517 c 0,61,62
 300 1517 300 1517 326 1516.5 c 128,-1,63
 352 1516 352 1516 378 1514 c 1,64,-1
 437 1514 l 2,65,66
 451 1514 451 1514 466 1513 c 128,-1,67
 481 1512 481 1512 497 1511 c 1,68,69
 506 1509 506 1509 515 1482.5 c 128,-1,70
 524 1456 524 1456 533 1412.5 c 128,-1,71
 542 1369 542 1369 550.5 1312.5 c 128,-1,72
 559 1256 559 1256 567 1193.5 c 128,-1,73
 575 1131 575 1131 583 1066.5 c 128,-1,74
 591 1002 591 1002 598 942.5 c 128,-1,75
 605 883 605 883 610.5 833 c 128,-1,76
 616 783 616 783 621 750 c 2,77,-1
 627 707 l 1,78,79
 648 839 648 839 667.5 965 c 128,-1,80
 687 1091 687 1091 706 1222 c 1,81,82
 705 1220 705 1220 705 1220 c 1,83,-1
 705 1219 l 1,84,-1
 705 1220 l 2,85,86
 705 1225 705 1225 707.5 1248 c 128,-1,87
 710 1271 710 1271 714 1302 c 128,-1,88
 718 1333 718 1333 724 1368 c 128,-1,89
 730 1403 730 1403 737 1433 c 128,-1,90
 744 1463 744 1463 752 1484 c 128,-1,91
 760 1505 760 1505 769 1508 c 1,92,93
 800 1506 800 1506 830.5 1506 c 128,-1,94
 861 1506 861 1506 892 1506 c 0,95,96
 1011 1506 1011 1506 1125.5 1506.5 c 128,-1,97
 1240 1507 1240 1507 1356 1507 c 0,98,99
 1368 1507 1368 1507 1374 1502 c 128,-1,100
 1380 1497 1380 1497 1382 1493 c 1,101,102
 1411 1298 1411 1298 1439 1105 c 128,-1,103
 1467 912 1467 912 1499 710 c 2,104,-1
 1506 665 l 1,105,106
 1524 879 1524 879 1553.5 1081.5 c 128,-1,107
 1583 1284 1583 1284 1614 1487 c 1,108,109
 1619 1502 1619 1502 1640 1506.5 c 128,-1,110
 1661 1511 1661 1511 1685 1511 c 0,111,112
 1698 1511 1698 1511 1731 1511 c 128,-1,113
 1764 1511 1764 1511 1806 1510.5 c 128,-1,114
 1848 1510 1848 1510 1893.5 1509.5 c 128,-1,115
 1939 1509 1939 1509 1976.5 1508 c 128,-1,116
 2014 1507 2014 1507 2038 1505.5 c 128,-1,117
 2062 1504 2062 1504 2062 1503 c 2,118,-1
 2090 1501 l 1,119,-1
 2143 1493 l 1,120,121
 2164 1492 2164 1492 2169 1448 c 1,122,123
 2134 1280 2134 1280 2092 1106.5 c 128,-1,124
 2050 933 2050 933 2012 756 c 2,125,-1
 2004 719 l 2,0,1
EndSplineSet
EndChar

StartChar: X
Encoding: 88 88 56
Width: 1600
Flags: W
LayerCount: 2
Fore
SplineSet
1187 712 m 1,0,-1
 1299 541 l 2,1,2
 1316 514 1316 514 1333 486 c 128,-1,3
 1350 458 1350 458 1368 432 c 2,4,-1
 1467 279 l 1,5,6
 1502 227 1502 227 1534 176 c 128,-1,7
 1566 125 1566 125 1600 74 c 2,8,-1
 1633 24 l 1,9,10
 1638 14 1638 14 1638 5 c 0,11,12
 1638 -16 1638 -16 1619.5 -23 c 128,-1,13
 1601 -30 1601 -30 1570 -32 c 1,14,15
 1463 -32 1463 -32 1356 -33 c 128,-1,16
 1249 -34 1249 -34 1145 -34 c 0,17,18
 1125 -34 1125 -34 1100.5 -35 c 128,-1,19
 1076 -36 1076 -36 1052.5 -35.5 c 128,-1,20
 1029 -35 1029 -35 1008 -30.5 c 128,-1,21
 987 -26 987 -26 973 -15 c 1,22,23
 931 76 931 76 887 165 c 128,-1,24
 843 254 843 254 800 347 c 1,25,-1
 786 375 l 1,26,27
 773 351 773 351 755.5 313.5 c 128,-1,28
 738 276 738 276 717.5 233 c 128,-1,29
 697 190 697 190 675.5 145.5 c 128,-1,30
 654 101 654 101 633.5 64 c 128,-1,31
 613 27 613 27 594.5 1.5 c 128,-1,32
 576 -24 576 -24 562 -30 c 1,33,34
 478 -28 478 -28 398 -27 c 128,-1,35
 318 -26 318 -26 234 -26 c 0,36,37
 171 -26 171 -26 111 -26.5 c 128,-1,38
 51 -27 51 -27 -12 -27 c 1,39,40
 -35 -19 -35 -19 -35 -1 c 0,41,42
 -35 14 -35 14 -25 36 c 128,-1,43
 -15 58 -15 58 0 84 c 128,-1,44
 15 110 15 110 33.5 137 c 128,-1,45
 52 164 52 164 69 189 c 2,46,-1
 187 374 l 1,47,-1
 429 752 l 1,48,-1
 347 891 l 1,49,50
 266 1035 266 1035 182 1173.5 c 128,-1,51
 98 1312 98 1312 17 1450 c 1,52,-1
 1 1476 l 2,53,54
 0 1478 0 1478 0 1486 c 0,55,56
 0 1499 0 1499 13 1506 c 1,57,58
 109 1506 109 1506 202 1503.5 c 128,-1,59
 295 1501 295 1501 391 1501 c 0,60,61
 437 1501 437 1501 481 1498 c 1,62,63
 516 1498 516 1498 550.5 1498 c 128,-1,64
 585 1498 585 1498 620 1499 c 1,65,66
 630 1497 630 1497 645 1474.5 c 128,-1,67
 660 1452 660 1452 677.5 1418 c 128,-1,68
 695 1384 695 1384 713.5 1343 c 128,-1,69
 732 1302 732 1302 749 1262 c 128,-1,70
 766 1222 766 1222 779.5 1188 c 128,-1,71
 793 1154 793 1154 801 1135 c 1,72,-1
 815 1106 l 1,73,-1
 829 1135 l 2,74,75
 836 1150 836 1150 850.5 1182 c 128,-1,76
 865 1214 865 1214 883.5 1254 c 128,-1,77
 902 1294 902 1294 921.5 1337 c 128,-1,78
 941 1380 941 1380 959 1415.5 c 128,-1,79
 977 1451 977 1451 991 1475 c 128,-1,80
 1005 1499 1005 1499 1011 1501 c 1,81,82
 1015 1501 1015 1501 1024 1495 c 1,83,84
 1166 1500 1166 1500 1306.5 1505.5 c 128,-1,85
 1447 1511 1447 1511 1591 1511 c 1,86,87
 1620 1505 1620 1505 1620 1468 c 0,88,89
 1620 1465 1620 1465 1619.5 1461.5 c 128,-1,90
 1619 1458 1619 1458 1619 1455 c 1,91,-1
 1493 1255 l 2,92,93
 1411 1124 1411 1124 1330 997.5 c 128,-1,94
 1249 871 1249 871 1170 741 c 1,95,-1
 1187 712 l 1,0,-1
EndSplineSet
EndChar

StartChar: Y
Encoding: 89 89 57
Width: 1524
Flags: W
LayerCount: 2
Fore
SplineSet
1072 0 m 1,0,1
 1069 -16 1069 -16 1060 -24.5 c 128,-1,2
 1051 -33 1051 -33 1032 -33 c 0,3,4
 888 -33 888 -33 749 -35 c 128,-1,5
 610 -37 610 -37 467 -37 c 1,6,7
 452 -20 452 -20 445 -6 c 128,-1,8
 438 8 438 8 435.5 21.5 c 128,-1,9
 433 35 433 35 433.5 48.5 c 128,-1,10
 434 62 434 62 434 79 c 0,11,12
 434 116 434 116 434.5 152.5 c 128,-1,13
 435 189 435 189 436 225 c 2,14,-1
 437 296 l 1,15,16
 437 383 437 383 424 456 c 128,-1,17
 411 529 411 529 388.5 595.5 c 128,-1,18
 366 662 366 662 335 726.5 c 128,-1,19
 304 791 304 791 269 862 c 2,20,-1
 169 1063 l 1,21,-1
 150 1102 l 2,22,23
 130 1142 130 1142 109.5 1180 c 128,-1,24
 89 1218 89 1218 71 1258 c 1,25,26
 60 1279 60 1279 41 1309.5 c 128,-1,27
 22 1340 22 1340 4 1371.5 c 128,-1,28
 -14 1403 -14 1403 -27.5 1432.5 c 128,-1,29
 -41 1462 -41 1462 -41 1481 c 0,30,31
 -41 1495 -41 1495 -26 1500.5 c 128,-1,32
 -11 1506 -11 1506 9 1506 c 2,33,-1
 260 1506 l 2,34,35
 338 1506 338 1506 416.5 1505.5 c 128,-1,36
 495 1505 495 1505 573 1503 c 1,37,38
 586 1501 586 1501 604.5 1465.5 c 128,-1,39
 623 1430 623 1430 643 1375 c 128,-1,40
 663 1320 663 1320 684 1253.5 c 128,-1,41
 705 1187 705 1187 723.5 1123.5 c 128,-1,42
 742 1060 742 1060 757.5 1006.5 c 128,-1,43
 773 953 773 953 782 924 c 1,44,45
 833 1062 833 1062 877.5 1204 c 128,-1,46
 922 1346 922 1346 970 1487 c 0,47,48
 973 1498 973 1498 1002.5 1502.5 c 128,-1,49
 1032 1507 1032 1507 1070 1508.5 c 128,-1,50
 1108 1510 1108 1510 1147 1509.5 c 128,-1,51
 1186 1509 1186 1509 1207 1509 c 0,52,53
 1240 1509 1240 1509 1268.5 1509 c 128,-1,54
 1297 1509 1297 1509 1333 1507 c 1,55,-1
 1400 1507 l 2,56,57
 1433 1507 1433 1507 1467 1507.5 c 128,-1,58
 1501 1508 1501 1508 1534 1508 c 1,59,60
 1548 1506 1548 1506 1555 1497 c 128,-1,61
 1562 1488 1562 1488 1568 1462 c 1,62,-1
 1552 1430 l 2,63,64
 1547 1421 1547 1421 1544 1413.5 c 128,-1,65
 1541 1406 1541 1406 1536 1398 c 0,66,67
 1482 1298 1482 1298 1430 1199 c 128,-1,68
 1378 1100 1378 1100 1324 997 c 2,69,-1
 1306 962 l 2,70,71
 1246 847 1246 847 1188.5 732.5 c 128,-1,72
 1131 618 1131 618 1074 500 c 1,73,74
 1072 460 1072 460 1072 421.5 c 128,-1,75
 1072 383 1072 383 1072 344 c 2,76,-1
 1072 241 l 1,77,-1
 1072 68 l 1,78,-1
 1072 0 l 1,0,1
EndSplineSet
EndChar

StartChar: Z
Encoding: 90 90 58
Width: 1395
Flags: W
LayerCount: 2
Fore
SplineSet
770 401 m 2,0,1
 784 401 784 401 818 401.5 c 128,-1,2
 852 402 852 402 898.5 403 c 128,-1,3
 945 404 945 404 1001 405 c 128,-1,4
 1057 406 1057 406 1115 407 c 128,-1,5
 1173 408 1173 408 1230 408.5 c 128,-1,6
 1287 409 1287 409 1336 409 c 0,7,8
 1347 409 1347 409 1353.5 391 c 128,-1,9
 1360 373 1360 373 1363.5 345 c 128,-1,10
 1367 317 1367 317 1368 282.5 c 128,-1,11
 1369 248 1369 248 1369 215 c 2,12,-1
 1369 125 l 2,13,14
 1369 107 1369 107 1370 87 c 128,-1,15
 1371 67 1371 67 1371 44 c 0,16,17
 1371 20 1371 20 1366.5 6 c 128,-1,18
 1362 -8 1362 -8 1353 -14.5 c 128,-1,19
 1344 -21 1344 -21 1329.5 -23 c 128,-1,20
 1315 -25 1315 -25 1296 -25 c 2,21,-1
 1271 -25 l 2,22,23
 977 -25 977 -25 687 -30 c 128,-1,24
 397 -35 397 -35 103 -35 c 0,25,26
 87 -35 87 -35 75.5 -33.5 c 128,-1,27
 64 -32 64 -32 54 -27 c 128,-1,28
 44 -22 44 -22 34.5 -12 c 128,-1,29
 25 -2 25 -2 14 15 c 1,30,31
 14 19 14 19 14 47 c 128,-1,32
 14 75 14 75 14.5 114.5 c 128,-1,33
 15 154 15 154 16 198.5 c 128,-1,34
 17 243 17 243 18 281 c 128,-1,35
 19 319 19 319 20 344 c 128,-1,36
 21 369 21 369 23 369 c 0,37,38
 24 369 24 369 24 368.5 c 128,-1,39
 24 368 24 368 25 368 c 0,40,41
 173 552 173 552 315.5 730 c 128,-1,42
 458 908 458 908 607 1086 c 1,43,44
 471 1085 471 1085 339 1082 c 128,-1,45
 207 1079 207 1079 73 1079 c 1,46,47
 61 1082 61 1082 55.5 1089.5 c 128,-1,48
 50 1097 50 1097 48.5 1108.5 c 128,-1,49
 47 1120 47 1120 47.5 1134 c 128,-1,50
 48 1148 48 1148 47 1163 c 0,51,52
 47 1171 47 1171 47.5 1177 c 128,-1,53
 48 1183 48 1183 48 1191 c 2,54,-1
 48 1248 l 2,55,56
 48 1258 48 1258 47 1277 c 128,-1,57
 46 1296 46 1296 44.5 1319.5 c 128,-1,58
 43 1343 43 1343 42 1368.5 c 128,-1,59
 41 1394 41 1394 41 1417 c 0,60,61
 41 1459 41 1459 45 1478 c 128,-1,62
 49 1497 49 1497 60 1497 c 0,63,64
 68 1497 68 1497 75 1493 c 1,65,66
 321 1494 321 1494 564 1496.5 c 128,-1,67
 807 1499 807 1499 1051 1503 c 2,68,-1
 1263 1506 l 2,69,70
 1291 1506 1291 1506 1308 1505 c 128,-1,71
 1325 1504 1325 1504 1333.5 1497 c 128,-1,72
 1342 1490 1342 1490 1344.5 1473.5 c 128,-1,73
 1347 1457 1347 1457 1347 1427 c 0,74,75
 1347 1409 1347 1409 1346 1392.5 c 128,-1,76
 1345 1376 1345 1376 1345 1367 c 1,77,78
 1346 1366 1346 1366 1346 1362 c 0,79,80
 1346 1287 1346 1287 1344.5 1235 c 128,-1,81
 1343 1183 1343 1183 1342 1154 c 0,82,83
 1339 1107 1339 1107 1306.5 1053.5 c 128,-1,84
 1274 1000 1274 1000 1229 946.5 c 128,-1,85
 1184 893 1184 893 1135 841.5 c 128,-1,86
 1086 790 1086 790 1050 748 c 0,87,88
 978 663 978 663 907 577.5 c 128,-1,89
 836 492 836 492 761 401 c 1,90,-1
 770 401 l 2,0,1
EndSplineSet
EndChar

StartChar: bracketleft
Encoding: 91 91 59
Width: 1035
Flags: W
LayerCount: 2
Fore
SplineSet
958 1147 m 0,0,1
 953 1147 953 1147 952 1148 c 1,2,3
 931 1147 931 1147 909 1146.5 c 128,-1,4
 887 1146 887 1146 866 1146 c 0,5,6
 812 1146 812 1146 759.5 1148.5 c 128,-1,7
 707 1151 707 1151 653 1155 c 1,8,9
 651 1005 651 1005 649 858.5 c 128,-1,10
 647 712 647 712 647 562 c 0,11,12
 647 433 647 433 647.5 309.5 c 128,-1,13
 648 186 648 186 652 65 c 1,14,15
 718 65 718 65 781.5 67 c 128,-1,16
 845 69 845 69 911 69 c 2,17,-1
 950 69 l 1,18,19
 961 67 961 67 967.5 52.5 c 128,-1,20
 974 38 974 38 978 16 c 128,-1,21
 982 -6 982 -6 983 -33.5 c 128,-1,22
 984 -61 984 -61 984 -88 c 0,23,24
 984 -111 984 -111 983.5 -131 c 128,-1,25
 983 -151 983 -151 983 -166 c 0,26,27
 982 -184 982 -184 982 -198 c 0,28,29
 982 -207 982 -207 983 -216.5 c 128,-1,30
 984 -226 984 -226 984 -236 c 0,31,32
 984 -249 984 -249 983.5 -263 c 128,-1,33
 983 -277 983 -277 979 -289 c 128,-1,34
 975 -301 975 -301 966.5 -309 c 128,-1,35
 958 -317 958 -317 943 -318 c 1,36,37
 757 -318 757 -318 571.5 -322 c 128,-1,38
 386 -326 386 -326 203 -326 c 1,39,-1
 159 -275 l 1,40,41
 158 -253 158 -253 158 -231 c 128,-1,42
 158 -209 158 -209 158 -186 c 0,43,44
 157 -155 157 -155 158 -124.5 c 128,-1,45
 159 -94 159 -94 159 -62 c 2,46,-1
 159 -37 l 2,47,48
 159 341 159 341 161 722.5 c 128,-1,49
 163 1104 163 1104 182 1484 c 0,50,51
 182 1497 182 1497 191 1503 c 128,-1,52
 200 1509 200 1509 213.5 1510.5 c 128,-1,53
 227 1512 227 1512 242 1511 c 128,-1,54
 257 1510 257 1510 268 1510 c 0,55,56
 295 1510 295 1510 322 1509.5 c 128,-1,57
 349 1509 349 1509 376 1509 c 0,58,59
 448 1509 448 1509 503.5 1510 c 128,-1,60
 559 1511 559 1511 612 1512.5 c 128,-1,61
 665 1514 665 1514 722 1515.5 c 128,-1,62
 779 1517 779 1517 854 1517 c 0,63,64
 894 1517 894 1517 919 1508 c 128,-1,65
 944 1499 944 1499 957.5 1481 c 128,-1,66
 971 1463 971 1463 975.5 1435 c 128,-1,67
 980 1407 980 1407 980 1369 c 0,68,69
 980 1348 980 1348 979.5 1311 c 128,-1,70
 979 1274 979 1274 976.5 1237.5 c 128,-1,71
 974 1201 974 1201 969.5 1174 c 128,-1,72
 965 1147 965 1147 958 1147 c 0,0,1
EndSplineSet
EndChar

StartChar: backslash
Encoding: 92 92 60
Width: 809
Flags: W
LayerCount: 2
Fore
SplineSet
775 -70 m 2,0,1
 754 -70 754 -70 734 -70.5 c 128,-1,2
 714 -71 714 -71 694 -71 c 0,3,4
 668 -71 668 -71 640 -70.5 c 128,-1,5
 612 -70 612 -70 584 -70 c 0,6,7
 561 -70 561 -70 538.5 -71 c 128,-1,8
 516 -72 516 -72 496 -77 c 1,9,10
 365 321 365 321 234 717.5 c 128,-1,11
 103 1114 103 1114 -32 1512 c 1,12,13
 -36 1517 -36 1517 -36 1523 c 0,14,15
 -36 1537 -36 1537 -18 1548 c 1,16,17
 84 1542 84 1542 188 1542 c 0,18,19
 208 1542 208 1542 228 1542.5 c 128,-1,20
 248 1543 248 1543 268 1544 c 0,21,22
 277 1544 277 1544 280.5 1537 c 128,-1,23
 284 1530 284 1530 286 1504 c 1,24,25
 428 1118 428 1118 570.5 737.5 c 128,-1,26
 713 357 713 357 851 -22 c 1,27,28
 851 -25 851 -25 852 -28.5 c 128,-1,29
 853 -32 853 -32 853 -34 c 0,30,31
 853 -51 853 -51 843 -59.5 c 128,-1,32
 833 -68 833 -68 816 -70 c 1,33,-1
 775 -70 l 2,0,1
EndSplineSet
EndChar

StartChar: bracketright
Encoding: 93 93 61
Width: 1036
Flags: W
LayerCount: 2
Fore
SplineSet
852 -236 m 1,0,-1
 852 -262 l 2,1,2
 852 -276 852 -276 848 -288 c 128,-1,3
 844 -300 844 -300 829 -314 c 1,4,5
 784 -316 784 -316 739.5 -317 c 128,-1,6
 695 -318 695 -318 649 -318 c 2,7,-1
 623 -318 l 1,8,9
 488 -316 488 -316 357 -315 c 128,-1,10
 226 -314 226 -314 91 -312 c 1,11,12
 70 -308 70 -308 67 -294.5 c 128,-1,13
 64 -281 64 -281 63 -267 c 0,14,15
 61 -207 61 -207 59.5 -143 c 128,-1,16
 58 -79 58 -79 58 -16 c 0,17,18
 58 10 58 10 60.5 25.5 c 128,-1,19
 63 41 63 41 68 49 c 128,-1,20
 73 57 73 57 82 59 c 128,-1,21
 91 61 91 61 105 61 c 2,22,-1
 135 61 l 2,23,24
 198 61 198 61 262 61.5 c 128,-1,25
 326 62 326 62 389 64 c 1,26,-1
 389 154 l 2,27,28
 389 401 389 401 385 641 c 128,-1,29
 381 881 381 881 376 1128 c 1,30,-1
 343 1128 l 1,31,-1
 252 1128 l 2,32,33
 210 1128 210 1128 168 1126.5 c 128,-1,34
 126 1125 126 1125 84 1125 c 1,35,36
 68 1140 68 1140 50 1164 c 1,37,-1
 50 1213 l 2,38,39
 50 1264 50 1264 50.5 1312 c 128,-1,40
 51 1360 51 1360 51 1411 c 0,41,42
 51 1421 51 1421 50.5 1432 c 128,-1,43
 50 1443 50 1443 50 1454 c 0,44,45
 50 1476 50 1476 54.5 1496 c 128,-1,46
 59 1516 59 1516 75 1527 c 1,47,-1
 102 1527 l 2,48,49
 162 1527 162 1527 222.5 1526 c 128,-1,50
 283 1525 283 1525 344 1525 c 0,51,52
 413 1525 413 1525 480.5 1526 c 128,-1,53
 548 1527 548 1527 617 1527 c 0,54,55
 677 1527 677 1527 736.5 1522 c 128,-1,56
 796 1517 796 1517 856 1517 c 0,57,58
 865 1517 865 1517 873 1521 c 1,59,60
 874 1498 874 1498 874 1475 c 128,-1,61
 874 1452 874 1452 874 1429 c 0,62,63
 874 1381 874 1381 873.5 1336 c 128,-1,64
 873 1291 873 1291 873 1243 c 2,65,-1
 873 1214 l 2,66,67
 873 866 873 866 863.5 516 c 128,-1,68
 854 166 854 166 852 -186 c 1,69,-1
 852 -236 l 1,0,-1
EndSplineSet
EndChar

StartChar: asciicircum
Encoding: 94 94 62
Width: 1275
Flags: W
LayerCount: 2
Fore
SplineSet
453 761 m 1,0,1
 440 745 440 745 427 741 c 0,2,3
 426 741 426 741 425.5 741.5 c 128,-1,4
 425 742 425 742 423 742 c 0,5,6
 357 741 357 741 293 740.5 c 128,-1,7
 229 740 229 740 163 740 c 1,8,9
 151 742 151 742 146 748 c 128,-1,10
 141 754 141 754 140 758 c 0,11,12
 140 759 140 759 140.5 760 c 128,-1,13
 141 761 141 761 141 762 c 0,14,15
 228 949 228 949 317 1131.5 c 128,-1,16
 406 1314 406 1314 497 1504 c 1,17,18
 502 1512 502 1512 510 1517 c 1,19,20
 559 1516 559 1516 606.5 1516 c 128,-1,21
 654 1516 654 1516 700 1516 c 0,22,23
 715 1516 715 1516 729.5 1516 c 128,-1,24
 744 1516 744 1516 758 1518 c 1,25,26
 769 1517 769 1517 773.5 1511 c 128,-1,27
 778 1505 778 1505 782 1487 c 1,28,-1
 1146 777 l 1,29,30
 1146 745 1146 745 1102.5 736 c 128,-1,31
 1059 727 1059 727 981 727 c 0,32,33
 947 727 947 727 915.5 728 c 128,-1,34
 884 729 884 729 860 729 c 0,35,36
 849 729 849 729 841 738 c 128,-1,37
 833 747 833 747 825 754 c 1,38,39
 777 848 777 848 731.5 945 c 128,-1,40
 686 1042 686 1042 635 1145 c 1,41,-1
 453 761 l 1,0,1
EndSplineSet
EndChar

StartChar: underscore
Encoding: 95 95 63
Width: 1050
Flags: W
LayerCount: 2
Fore
SplineSet
1061 -251 m 1,0,1
 1058 -259 1058 -259 1051.5 -264 c 128,-1,2
 1045 -269 1045 -269 1035 -269 c 0,3,4
 993 -269 993 -269 952.5 -268 c 128,-1,5
 912 -267 912 -267 870 -267 c 0,6,7
 655 -267 655 -267 442.5 -273 c 128,-1,8
 230 -279 230 -279 14 -290 c 1,9,-1
 -18 -249 l 1,10,11
 -20 -237 -20 -237 -22.5 -223.5 c 128,-1,12
 -25 -210 -25 -210 -25 -194 c 0,13,14
 -25 -160 -25 -160 -18.5 -141 c 128,-1,15
 -12 -122 -12 -122 10 -122 c 2,16,-1
 222 -122 l 2,17,18
 273 -122 273 -122 330.5 -121.5 c 128,-1,19
 388 -121 388 -121 447 -121 c 128,-1,20
 506 -121 506 -121 566.5 -120.5 c 128,-1,21
 627 -120 627 -120 684 -120 c 0,22,23
 771 -120 771 -120 844.5 -120.5 c 128,-1,24
 918 -121 918 -121 972 -124 c 0,25,26
 1004 -126 1004 -126 1022.5 -128 c 128,-1,27
 1041 -130 1041 -130 1050 -137 c 128,-1,28
 1059 -144 1059 -144 1061.5 -159.5 c 128,-1,29
 1064 -175 1064 -175 1064 -203 c 0,30,31
 1064 -217 1064 -217 1063.5 -228.5 c 128,-1,32
 1063 -240 1063 -240 1061 -251 c 1,0,1
EndSplineSet
EndChar

StartChar: quoteleft
Encoding: 8216 8216 64
Width: 727
Flags: W
LayerCount: 2
Fore
SplineSet
512 846 m 0,0,1
 445 842 445 842 379 841 c 128,-1,2
 313 840 313 840 247 840 c 0,3,4
 198 840 198 840 149 840.5 c 128,-1,5
 100 841 100 841 51 841 c 1,6,7
 43 856 43 856 36 871 c 128,-1,8
 29 886 29 886 22 901 c 1,9,10
 58 995 58 995 92.5 1088 c 128,-1,11
 127 1181 127 1181 162 1275 c 1,12,-1
 252 1498 l 2,13,14
 255 1503 255 1503 265.5 1506.5 c 128,-1,15
 276 1510 276 1510 297 1511.5 c 128,-1,16
 318 1513 318 1513 350.5 1513.5 c 128,-1,17
 383 1514 383 1514 431 1514 c 0,18,19
 473 1514 473 1514 517.5 1512.5 c 128,-1,20
 562 1511 562 1511 598 1507 c 128,-1,21
 634 1503 634 1503 657.5 1496.5 c 128,-1,22
 681 1490 681 1490 681 1480 c 0,23,24
 681 1449 681 1449 674.5 1413 c 128,-1,25
 668 1377 668 1377 658.5 1339.5 c 128,-1,26
 649 1302 649 1302 639 1264 c 128,-1,27
 629 1226 629 1226 622 1192 c 0,28,29
 617 1167 617 1167 610 1131.5 c 128,-1,30
 603 1096 603 1096 595 1057.5 c 128,-1,31
 587 1019 587 1019 577.5 981 c 128,-1,32
 568 943 568 943 557.5 913 c 128,-1,33
 547 883 547 883 535.5 864.5 c 128,-1,34
 524 846 524 846 512 846 c 0,0,1
EndSplineSet
EndChar

StartChar: a
Encoding: 97 97 65
Width: 1482
Flags: W
LayerCount: 2
Fore
SplineSet
1069 1376 m 1,0,1
 1082 1375 1082 1375 1085.5 1372 c 128,-1,2
 1089 1369 1089 1369 1091 1360 c 128,-1,3
 1093 1351 1093 1351 1097 1334 c 128,-1,4
 1101 1317 1101 1317 1114 1289 c 1,5,-1
 1163 1139 l 1,6,-1
 1163 1140 l 1,7,8
 1181 1085 1181 1085 1198 1032.5 c 128,-1,9
 1215 980 1215 980 1238 915 c 1,10,-1
 1257 855 l 1,11,-1
 1257 856 l 1,12,-1
 1263 845 l 1,13,14
 1268 821 1268 821 1276 796 c 128,-1,15
 1284 771 1284 771 1293 745.5 c 128,-1,16
 1302 720 1302 720 1311.5 695 c 128,-1,17
 1321 670 1321 670 1330 648 c 1,18,-1
 1334 632 l 2,19,20
 1335 630 1335 630 1336.5 626 c 128,-1,21
 1338 622 1338 622 1339 614 c 1,22,-1
 1358 554 l 1,23,-1
 1369 511 l 2,24,25
 1371 506 1371 506 1373 498.5 c 128,-1,26
 1375 491 1375 491 1375 489 c 2,27,-1
 1393 433 l 2,28,29
 1401 410 1401 410 1408.5 384 c 128,-1,30
 1416 358 1416 358 1425 335 c 1,31,-1
 1478 178 l 1,32,-1
 1477 180 l 1,33,-1
 1485 160 l 1,34,35
 1490 140 1490 140 1497 122 c 128,-1,36
 1504 104 1504 104 1509 87 c 1,37,38
 1509 59 1509 59 1497 52 c 128,-1,39
 1485 45 1485 45 1453 45 c 2,40,-1
 1359 45 l 1,41,42
 1339 44 1339 44 1312.5 44 c 128,-1,43
 1286 44 1286 44 1266 44 c 256,44,45
 1246 44 1246 44 1226.5 44.5 c 128,-1,46
 1207 45 1207 45 1187 45 c 2,47,-1
 1076 45 l 2,48,49
 1059 45 1059 45 1035 44 c 128,-1,50
 1011 43 1011 43 988.5 44.5 c 128,-1,51
 966 46 966 46 949 52 c 128,-1,52
 932 58 932 58 930 73 c 1,53,-1
 891 224 l 2,54,55
 889 233 889 233 887.5 238 c 128,-1,56
 886 243 886 243 883 245 c 128,-1,57
 880 247 880 247 875 247.5 c 128,-1,58
 870 248 870 248 860 248 c 2,59,-1
 553 248 l 1,60,61
 540 209 540 209 529.5 160 c 128,-1,62
 519 111 519 111 508 69 c 1,63,64
 497 51 497 51 466.5 45.5 c 128,-1,65
 436 40 436 40 400 40 c 0,66,67
 389 40 389 40 379 40.5 c 128,-1,68
 369 41 369 41 360 41 c 2,69,-1
 322 41 l 1,70,71
 290 39 290 39 259 38.5 c 128,-1,72
 228 38 228 38 200 38 c 2,73,-1
 32 38 l 2,74,75
 21 38 21 38 8 37.5 c 128,-1,76
 -5 37 -5 37 -19 37 c 1,77,78
 -22 42 -22 42 -25.5 45.5 c 128,-1,79
 -29 49 -29 49 -32 53 c 1,80,-1
 -33 53 l 1,81,82
 -33 51 -33 51 -31 49 c 1,83,84
 -32 49 -32 49 -35 54 c 128,-1,85
 -38 59 -38 59 -47 73 c 1,86,87
 -22 151 -22 151 6.5 233.5 c 128,-1,88
 35 316 35 316 62 404 c 2,89,-1
 86 481 l 1,90,-1
 280 1058 l 1,91,-1
 280 1057 l 1,92,93
 291 1089 291 1089 301.5 1119.5 c 128,-1,94
 312 1150 312 1150 322 1181 c 2,95,-1
 380 1359 l 1,96,97
 384 1368 384 1368 386.5 1371.5 c 128,-1,98
 389 1375 389 1375 392 1380 c 1,99,-1
 400 1387 l 1,100,101
 426 1386 426 1386 454 1386 c 128,-1,102
 482 1386 482 1386 511 1386 c 2,103,-1
 654 1386 l 1,104,105
 662 1385 662 1385 669 1385 c 128,-1,106
 676 1385 676 1385 684 1385 c 2,107,-1
 781 1385 l 2,108,109
 815 1385 815 1385 850 1384 c 128,-1,110
 885 1383 885 1383 923 1383 c 2,111,-1
 939 1383 l 2,112,113
 984 1383 984 1383 1013.5 1379.5 c 128,-1,114
 1043 1376 1043 1376 1069 1376 c 1,0,1
601 604 m 1,115,-1
 604 582 l 1,116,117
 615 582 615 582 625.5 582.5 c 128,-1,118
 636 583 636 583 647 584 c 1,119,-1
 786 579 l 2,120,121
 791 579 791 579 795 579.5 c 128,-1,122
 799 580 799 580 804 580 c 2,123,-1
 809 580 l 2,124,125
 825 580 825 580 836 582.5 c 128,-1,126
 847 585 847 585 847 601 c 0,127,128
 847 618 847 618 842 637.5 c 128,-1,129
 837 657 837 657 831 678 c 1,130,-1
 831 677 l 1,131,132
 828 688 828 688 824.5 700 c 128,-1,133
 821 712 821 712 819 724 c 2,134,-1
 793 844 l 2,135,136
 788 868 788 868 783.5 891 c 128,-1,137
 779 914 779 914 774 938 c 2,138,-1
 768 966 l 1,139,140
 763 975 763 975 761.5 986 c 128,-1,141
 760 997 760 997 757 1010 c 2,142,-1
 746 1058 l 2,143,144
 743 1069 743 1069 740.5 1077 c 128,-1,145
 738 1085 738 1085 728 1087 c 1,146,-1
 727 1086 l 1,147,148
 720 1084 720 1084 713.5 1070.5 c 128,-1,149
 707 1057 707 1057 700.5 1037 c 128,-1,150
 694 1017 694 1017 689 994 c 128,-1,151
 684 971 684 971 680 950 c 1,152,-1
 680 951 l 1,153,-1
 671 903 l 2,154,155
 669 897 669 897 667.5 893 c 128,-1,156
 666 889 666 889 665 884 c 2,157,-1
 658 861 l 1,158,159
 646 804 646 804 634.5 752 c 128,-1,160
 623 700 623 700 610 648 c 1,161,162
 610 634 610 634 605.5 623.5 c 128,-1,163
 601 613 601 613 601 604 c 1,115,-1
601 600 m 1,164,-1
 600 603 l 1,165,-1
 601 600 l 1,164,-1
EndSplineSet
EndChar

StartChar: b
Encoding: 98 98 66
Width: 1409
Flags: W
LayerCount: 2
Fore
SplineSet
84 637 m 1,0,1
 86 739 86 739 86.5 834.5 c 128,-1,2
 87 930 87 930 91 1027 c 1,3,-1
 91 1051 l 2,4,5
 91 1059 91 1059 91.5 1066.5 c 128,-1,6
 92 1074 92 1074 92 1082 c 0,7,8
 92 1092 92 1092 90.5 1106.5 c 128,-1,9
 89 1121 89 1121 89 1133 c 2,10,-1
 89 1167 l 2,11,12
 89 1192 89 1192 88 1221 c 128,-1,13
 87 1250 87 1250 87 1276 c 2,14,-1
 87 1293 l 1,15,-1
 87 1333 l 1,16,17
 85 1333 85 1333 84.5 1333.5 c 128,-1,18
 84 1334 84 1334 83 1334 c 2,19,-1
 82 1334 l 1,20,21
 82 1351 82 1351 86.5 1359 c 128,-1,22
 91 1367 91 1367 101 1369 c 1,23,-1
 100 1369 l 1,24,25
 101 1370 101 1370 105 1370 c 0,26,27
 110 1370 110 1370 112 1369 c 1,28,29
 188 1375 188 1375 267 1380 c 128,-1,30
 346 1385 346 1385 425 1387 c 1,31,-1
 847 1387 l 2,32,33
 896 1387 896 1387 944 1383 c 128,-1,34
 992 1379 992 1379 1037 1368 c 128,-1,35
 1082 1357 1082 1357 1124.5 1338.5 c 128,-1,36
 1167 1320 1167 1320 1206 1291 c 1,37,-1
 1205 1292 l 1,38,39
 1235 1271 1235 1271 1257.5 1241.5 c 128,-1,40
 1280 1212 1280 1212 1295 1177.5 c 128,-1,41
 1310 1143 1310 1143 1317.5 1105 c 128,-1,42
 1325 1067 1325 1067 1325 1030 c 0,43,44
 1325 933 1325 933 1281 862.5 c 128,-1,45
 1237 792 1237 792 1152 754 c 1,46,-1
 1146 751 l 1,47,-1
 1142 749 l 1,48,-1
 1143 749 l 1,49,-1
 1142 748 l 1,50,-1
 1138 747 l 1,51,52
 1143 747 1143 747 1146 745 c 128,-1,53
 1149 743 1149 743 1154 742 c 0,54,55
 1254 702 1254 702 1307.5 625.5 c 128,-1,56
 1361 549 1361 549 1361 437 c 1,57,58
 1357 313 1357 313 1291.5 223.5 c 128,-1,59
 1226 134 1226 134 1117 94 c 2,60,-1
 1033 63 l 1,61,62
 982 49 982 49 928.5 44.5 c 128,-1,63
 875 40 875 40 823 40 c 1,64,65
 775 42 775 42 730 42.5 c 128,-1,66
 685 43 685 43 639 45 c 2,67,-1
 576 48 l 1,68,69
 574 43 574 43 569 43 c 2,70,-1
 568 43 l 2,71,72
 566 43 566 43 565 44 c 1,73,-1
 495 44 l 1,74,-1
 440 44 l 2,75,76
 419 44 419 44 398.5 44 c 128,-1,77
 378 44 378 44 357 42 c 1,78,-1
 111 37 l 1,79,-1
 109 50 l 1,80,-1
 109 47 l 1,81,82
 107 51 107 51 106 54.5 c 128,-1,83
 105 58 105 58 103 60 c 1,84,-1
 93 86 l 1,85,86
 92 112 92 112 90 139 c 128,-1,87
 88 166 88 166 88 194 c 2,88,-1
 84 431 l 1,89,-1
 84 637 l 1,0,1
621 1086 m 1,90,91
 610 1081 610 1081 606.5 1075 c 128,-1,92
 603 1069 603 1069 603 1061 c 0,93,94
 606 1035 606 1035 608.5 1009 c 128,-1,95
 611 983 611 983 611 957 c 2,96,-1
 611 935 l 2,97,98
 611 930 611 930 610.5 925.5 c 128,-1,99
 610 921 610 921 610 916 c 0,100,101
 610 907 610 907 610.5 897 c 128,-1,102
 611 887 611 887 611 877 c 2,103,-1
 611 844 l 2,104,105
 611 839 611 839 614.5 835.5 c 128,-1,106
 618 832 618 832 621 830 c 1,107,108
 647 830 647 830 682.5 832.5 c 128,-1,109
 718 835 718 835 750 847.5 c 128,-1,110
 782 860 782 860 804 888 c 128,-1,111
 826 916 826 916 826 967 c 0,112,113
 826 1004 826 1004 809 1027 c 128,-1,114
 792 1050 792 1050 765.5 1063 c 128,-1,115
 739 1076 739 1076 706 1081 c 128,-1,116
 673 1086 673 1086 642 1086 c 0,117,118
 636 1086 636 1086 630.5 1086 c 128,-1,119
 625 1086 625 1086 620 1085 c 1,120,-1
 621 1086 l 1,90,91
608 368 m 1,121,122
 609 358 609 358 622 354 c 1,123,-1
 701 354 l 1,124,125
 728 356 728 356 753.5 362.5 c 128,-1,126
 779 369 779 369 799 383 c 128,-1,127
 819 397 819 397 831.5 420 c 128,-1,128
 844 443 844 443 845 478 c 1,129,130
 845 532 845 532 822 560.5 c 128,-1,131
 799 589 799 589 765 602.5 c 128,-1,132
 731 616 731 616 692.5 618 c 128,-1,133
 654 620 654 620 623 620 c 1,134,135
 621 616 621 616 617.5 612.5 c 128,-1,136
 614 609 614 609 611 606 c 2,137,-1
 599 588 l 1,138,-1
 599 579 l 2,139,140
 599 576 599 576 600 573 c 128,-1,141
 601 570 601 570 601 566 c 2,142,-1
 608 467 l 1,143,-1
 608 368 l 1,121,122
EndSplineSet
EndChar

StartChar: c
Encoding: 99 99 67
Width: 1390
Flags: W
LayerCount: 2
Fore
SplineSet
743 1028 m 0,0,1
 714 1028 714 1028 694.5 1019 c 128,-1,2
 675 1010 675 1010 662 995 c 128,-1,3
 649 980 649 980 641 959.5 c 128,-1,4
 633 939 633 939 628 915 c 1,5,-1
 628 916 l 1,6,7
 620 865 620 865 618.5 815.5 c 128,-1,8
 617 766 617 766 617 715 c 2,9,-1
 617 681 l 2,10,11
 617 648 617 648 617.5 605 c 128,-1,12
 618 562 618 562 625 523 c 1,13,-1
 625 524 l 1,14,15
 630 506 630 506 636.5 486.5 c 128,-1,16
 643 467 643 467 654 451 c 128,-1,17
 665 435 665 435 681.5 424 c 128,-1,18
 698 413 698 413 724 411 c 1,19,20
 756 411 756 411 772 431.5 c 128,-1,21
 788 452 788 452 797.5 480 c 128,-1,22
 807 508 807 508 815 537 c 128,-1,23
 823 566 823 566 839 582 c 1,24,25
 899 581 899 581 959 580.5 c 128,-1,26
 1019 580 1019 580 1080 580 c 0,27,28
 1122 580 1122 580 1163 581 c 128,-1,29
 1204 582 1204 582 1246 582 c 2,30,-1
 1319 582 l 2,31,32
 1338 582 1338 582 1346 571 c 128,-1,33
 1354 560 1354 560 1356 542 c 1,34,-1
 1353 504 l 2,35,36
 1351 484 1351 484 1350 467 c 128,-1,37
 1349 450 1349 450 1345.5 433 c 128,-1,38
 1342 416 1342 416 1336 397.5 c 128,-1,39
 1330 379 1330 379 1319 357 c 1,40,-1
 1320 357 l 1,41,42
 1295 287 1295 287 1251.5 231.5 c 128,-1,43
 1208 176 1208 176 1151.5 134.5 c 128,-1,44
 1095 93 1095 93 1029.5 66.5 c 128,-1,45
 964 40 964 40 895 28 c 1,46,-1
 875 22 l 1,47,48
 840 14 840 14 803 11 c 128,-1,49
 766 8 766 8 728 8 c 0,50,51
 689 8 689 8 635.5 11.5 c 128,-1,52
 582 15 582 15 524.5 26.5 c 128,-1,53
 467 38 467 38 409.5 59 c 128,-1,54
 352 80 352 80 305 115 c 0,55,56
 226 173 226 173 174 244 c 128,-1,57
 122 315 122 315 91 395.5 c 128,-1,58
 60 476 60 476 47.5 564.5 c 128,-1,59
 35 653 35 653 35 746 c 2,60,-1
 35 760 l 1,61,62
 38 800 38 800 41.5 838 c 128,-1,63
 45 876 45 876 52.5 913.5 c 128,-1,64
 60 951 60 951 72 989 c 128,-1,65
 84 1027 84 1027 104 1068 c 1,66,-1
 104 1066 l 1,67,68
 151 1166 151 1166 220.5 1232.5 c 128,-1,69
 290 1299 290 1299 373 1339.5 c 128,-1,70
 456 1380 456 1380 548 1397 c 128,-1,71
 640 1414 640 1414 731 1414 c 0,72,73
 893 1414 893 1414 1003.5 1377 c 128,-1,74
 1114 1340 1114 1340 1184 1278.5 c 128,-1,75
 1254 1217 1254 1217 1290 1137 c 128,-1,76
 1326 1057 1326 1057 1339 970 c 1,77,-1
 1348 884 l 1,78,79
 1345 862 1345 862 1319 856 c 128,-1,80
 1293 850 1293 850 1260 850 c 0,81,82
 1238 850 1238 850 1217 851 c 128,-1,83
 1196 852 1196 852 1181 852 c 2,84,-1
 1041 852 l 1,85,86
 1018 851 1018 851 995.5 852 c 128,-1,87
 973 853 973 853 947 853 c 2,88,-1
 851 853 l 1,89,90
 839 856 839 856 833 867.5 c 128,-1,91
 827 879 827 879 823.5 897 c 128,-1,92
 820 915 820 915 816 937.5 c 128,-1,93
 812 960 812 960 804 984 c 1,94,-1
 805 984 l 1,95,96
 797 1003 797 1003 783 1015.5 c 128,-1,97
 769 1028 769 1028 743 1028 c 0,0,1
EndSplineSet
EndChar

StartChar: d
Encoding: 100 100 68
Width: 1457
Flags: W
LayerCount: 2
Fore
SplineSet
745 42 m 2,0,1
 736 41 736 41 723.5 40.5 c 128,-1,2
 711 40 711 40 701 40 c 0,3,4
 674 40 674 40 648.5 40.5 c 128,-1,5
 623 41 623 41 597 43 c 1,6,-1
 563 43 l 2,7,8
 554 43 554 43 544.5 43.5 c 128,-1,9
 535 44 535 44 526 44 c 0,10,11
 447 45 447 45 368 43.5 c 128,-1,12
 289 42 289 42 207 40 c 2,13,-1
 121 38 l 1,14,15
 113 54 113 54 108.5 65.5 c 128,-1,16
 104 77 104 77 102 86.5 c 128,-1,17
 100 96 100 96 99.5 104.5 c 128,-1,18
 99 113 99 113 99 122 c 2,19,-1
 99 253 l 1,20,21
 101 345 101 345 101 434 c 128,-1,22
 101 523 101 523 102 625 c 2,23,-1
 103 787 l 2,24,25
 103 826 103 826 101.5 865.5 c 128,-1,26
 100 905 100 905 100 947 c 1,27,-1
 97 1025 l 1,28,-1
 97 1104 l 1,29,30
 94 1152 94 1152 91.5 1203 c 128,-1,31
 89 1254 89 1254 89 1299 c 2,32,-1
 89 1335 l 1,33,34
 84 1338 84 1338 84 1343 c 0,35,36
 84 1360 84 1360 89.5 1365 c 128,-1,37
 95 1370 95 1370 112 1370 c 1,38,-1
 112 1371 l 1,39,40
 115 1371 115 1371 118 1370.5 c 128,-1,41
 121 1370 121 1370 124 1370 c 0,42,43
 132 1370 132 1370 139 1371 c 128,-1,44
 146 1372 146 1372 155 1374 c 0,45,46
 215 1381 215 1381 271.5 1384 c 128,-1,47
 328 1387 328 1387 385.5 1388 c 128,-1,48
 443 1389 443 1389 505.5 1388.5 c 128,-1,49
 568 1388 568 1388 642 1388 c 0,50,51
 720 1388 720 1388 808 1380 c 128,-1,52
 896 1372 896 1372 979.5 1350 c 128,-1,53
 1063 1328 1063 1328 1135 1288 c 128,-1,54
 1207 1248 1207 1248 1254 1185 c 0,55,56
 1270 1165 1270 1165 1296.5 1127 c 128,-1,57
 1323 1089 1323 1089 1348.5 1031.5 c 128,-1,58
 1374 974 1374 974 1392.5 896.5 c 128,-1,59
 1411 819 1411 819 1411 720 c 0,60,61
 1411 602 1411 602 1384 507 c 128,-1,62
 1357 412 1357 412 1311 337.5 c 128,-1,63
 1265 263 1265 263 1203.5 208.5 c 128,-1,64
 1142 154 1142 154 1072.5 118 c 128,-1,65
 1003 82 1003 82 929.5 63 c 128,-1,66
 856 44 856 44 787 41 c 1,67,-1
 779 44 l 1,68,-1
 781 43 l 1,69,-1
 745 42 l 2,0,1
654 355 m 2,70,71
 677 355 677 355 698.5 358 c 128,-1,72
 720 361 720 361 743 366 c 1,73,-1
 742 366 l 1,74,75
 775 377 775 377 798 400.5 c 128,-1,76
 821 424 821 424 836 455.5 c 128,-1,77
 851 487 851 487 859.5 523 c 128,-1,78
 868 559 868 559 872 595 c 128,-1,79
 876 631 876 631 877.5 664.5 c 128,-1,80
 879 698 879 698 880 723 c 1,81,-1
 880 796 l 1,82,83
 877 815 877 815 876 834.5 c 128,-1,84
 875 854 875 854 873 875 c 128,-1,85
 871 896 871 896 866.5 919 c 128,-1,86
 862 942 862 942 852 968 c 1,87,-1
 854 968 l 1,88,89
 835 1008 835 1008 810.5 1031.5 c 128,-1,90
 786 1055 786 1055 757.5 1067 c 128,-1,91
 729 1079 729 1079 698 1082.5 c 128,-1,92
 667 1086 667 1086 635 1086 c 2,93,-1
 625 1086 l 1,94,-1
 618 1065 l 1,95,-1
 605 1044 l 1,96,97
 605 1030 605 1030 606 1017.5 c 128,-1,98
 607 1005 607 1005 607 992 c 2,99,-1
 607 935 l 2,100,101
 607 918 607 918 606.5 902 c 128,-1,102
 606 886 606 886 606 869 c 2,103,-1
 606 853 l 1,104,-1
 609 652 l 2,105,106
 609 617 609 617 608.5 567.5 c 128,-1,107
 608 518 608 518 608.5 472 c 128,-1,108
 609 426 609 426 612.5 392.5 c 128,-1,109
 616 359 616 359 624 355 c 1,110,-1
 654 355 l 2,70,71
EndSplineSet
EndChar

StartChar: e
Encoding: 101 101 69
Width: 1167
Flags: W
LayerCount: 2
Fore
SplineSet
685 998 m 0,0,1
 674 998 674 998 658.5 998.5 c 128,-1,2
 643 999 643 999 631 1000 c 1,3,4
 629 992 629 992 629 985.5 c 128,-1,5
 629 979 629 979 629 974 c 2,6,-1
 629 959 l 1,7,-1
 628 933 l 2,8,9
 628 929 628 929 627.5 925.5 c 128,-1,10
 627 922 627 922 627 919 c 2,11,-1
 627 886 l 1,12,13
 626 879 626 879 626 877.5 c 128,-1,14
 626 876 626 876 626 870 c 1,15,16
 632 870 632 870 636.5 869.5 c 128,-1,17
 641 869 641 869 646 869 c 2,18,-1
 671 869 l 2,19,20
 759 869 759 869 848.5 872 c 128,-1,21
 938 875 938 875 1032 875 c 0,22,23
 1062 875 1062 875 1070.5 863 c 128,-1,24
 1079 851 1079 851 1079 834 c 0,25,26
 1079 826 1079 826 1078 817 c 128,-1,27
 1077 808 1077 808 1077 801 c 2,28,-1
 1077 762 l 2,29,30
 1077 753 1077 753 1077.5 744 c 128,-1,31
 1078 735 1078 735 1078 725 c 2,32,-1
 1078 696 l 2,33,34
 1078 681 1078 681 1078.5 670.5 c 128,-1,35
 1079 660 1079 660 1080 651.5 c 128,-1,36
 1081 643 1081 643 1081.5 634.5 c 128,-1,37
 1082 626 1082 626 1082 614 c 2,38,-1
 1082 587 l 1,39,40
 1079 577 1079 577 1075.5 572.5 c 128,-1,41
 1072 568 1072 568 1064 568 c 0,42,43
 1058 568 1058 568 1055 569 c 1,44,-1
 1057 569 l 2,45,46
 1056 569 1056 569 1055.5 569.5 c 128,-1,47
 1055 570 1055 570 1054 570 c 0,48,49
 995 570 995 570 932 565.5 c 128,-1,50
 869 561 869 561 792 561 c 2,51,-1
 686 561 l 2,52,53
 672 561 672 561 660 561 c 128,-1,54
 648 561 648 561 633 562 c 1,55,56
 633 557 633 557 632.5 553 c 128,-1,57
 632 549 632 549 632 544 c 2,58,-1
 632 431 l 1,59,60
 636 431 636 431 639.5 430.5 c 128,-1,61
 643 430 643 430 647 430 c 0,62,63
 719 430 719 430 794.5 433.5 c 128,-1,64
 870 437 870 437 939 437 c 1,65,-1
 1069 440 l 2,66,67
 1080 440 1080 440 1091.5 439 c 128,-1,68
 1103 438 1103 438 1113 435 c 128,-1,69
 1123 432 1123 432 1130.5 426 c 128,-1,70
 1138 420 1138 420 1141 411 c 1,71,-1
 1141 342 l 2,72,73
 1141 331 1141 331 1141.5 321.5 c 128,-1,74
 1142 312 1142 312 1142 303 c 2,75,-1
 1142 143 l 2,76,77
 1142 137 1142 137 1142.5 129.5 c 128,-1,78
 1143 122 1143 122 1143 115 c 2,79,-1
 1143 92 l 2,80,81
 1143 72 1143 72 1136 58 c 128,-1,82
 1129 44 1129 44 1103 42 c 1,83,-1
 1090 42 l 2,84,85
 1073 42 1073 42 1057.5 43.5 c 128,-1,86
 1042 45 1042 45 1025 45 c 2,87,-1
 1000 45 l 2,88,89
 989 45 989 45 978 45.5 c 128,-1,90
 967 46 967 46 956 46 c 2,91,-1
 945 46 l 1,92,-1
 896 46 l 2,93,94
 890 46 890 46 883.5 46.5 c 128,-1,95
 877 47 877 47 870 47 c 2,96,-1
 821 47 l 2,97,98
 749 47 749 47 678.5 48 c 128,-1,99
 608 49 608 49 532 49 c 0,100,101
 475 49 475 49 420 47.5 c 128,-1,102
 365 46 365 46 311 45 c 2,103,-1
 114 41 l 1,104,-1
 84 74 l 1,105,-1
 87 594 l 1,106,107
 90 642 90 642 89.5 683 c 128,-1,108
 89 724 89 724 91 772 c 1,109,-1
 91 905 l 2,110,111
 91 928 91 928 90 954 c 128,-1,112
 89 980 89 980 87 1006 c 1,113,-1
 85 1013 l 1,114,-1
 85 1010 l 1,115,116
 82 1020 82 1020 82 1032 c 0,117,118
 82 1046 82 1046 83 1059.5 c 128,-1,119
 84 1073 84 1073 84 1086 c 0,120,121
 84 1116 84 1116 83 1148.5 c 128,-1,122
 82 1181 82 1181 82 1218 c 2,123,-1
 82 1292 l 2,124,125
 82 1313 82 1313 82.5 1329 c 128,-1,126
 83 1345 83 1345 86 1355.5 c 128,-1,127
 89 1366 89 1366 96.5 1371 c 128,-1,128
 104 1376 104 1376 118 1376 c 0,129,130
 129 1376 129 1376 141.5 1376 c 128,-1,131
 154 1376 154 1376 163 1374 c 1,132,-1
 216 1374 l 2,133,134
 367 1374 367 1374 522.5 1378 c 128,-1,135
 678 1382 678 1382 829 1382 c 2,136,-1
 880 1382 l 2,137,138
 903 1382 903 1382 925 1382.5 c 128,-1,139
 947 1383 947 1383 969 1383 c 2,140,-1
 1094 1383 l 1,141,142
 1119 1379 1119 1379 1119 1358 c 2,143,-1
 1119 1242 l 2,144,145
 1119 1232 1119 1232 1119.5 1222.5 c 128,-1,146
 1120 1213 1120 1213 1120 1203 c 2,147,-1
 1121 1025 l 1,148,149
 1119 1014 1119 1014 1112.5 1006.5 c 128,-1,150
 1106 999 1106 999 1092 990 c 1,151,152
 1078 990 1078 990 1064.5 991 c 128,-1,153
 1051 992 1051 992 1039 992 c 2,154,-1
 856 994 l 2,155,156
 811 995 811 995 770.5 995.5 c 128,-1,157
 730 996 730 996 685 998 c 0,0,1
EndSplineSet
EndChar

StartChar: f
Encoding: 102 102 70
Width: 1126
Flags: W
LayerCount: 2
Fore
SplineSet
655 512 m 1,0,-1
 662 169 l 2,1,2
 662 150 662 150 661.5 131 c 128,-1,3
 661 112 661 112 663 93 c 1,4,-1
 663 86 l 2,5,6
 663 84 663 84 663.5 81.5 c 128,-1,7
 664 79 664 79 664 74 c 0,8,9
 660 54 660 54 649 48 c 128,-1,10
 638 42 638 42 621 39 c 1,11,-1
 535 39 l 2,12,13
 527 39 527 39 518 38.5 c 128,-1,14
 509 38 509 38 500 38 c 0,15,16
 495 38 495 38 491 38.5 c 128,-1,17
 487 39 487 39 482 39 c 2,18,-1
 114 40 l 1,19,-1
 87 85 l 1,20,-1
 87 122 l 2,21,22
 87 218 87 218 88.5 328.5 c 128,-1,23
 90 439 90 439 91.5 548 c 128,-1,24
 93 657 93 657 94.5 757.5 c 128,-1,25
 96 858 96 858 96 935 c 0,26,27
 96 955 96 955 94 975.5 c 128,-1,28
 92 996 92 996 92 1014 c 1,29,-1
 85 1052 l 1,30,31
 85 1068 85 1068 86 1083.5 c 128,-1,32
 87 1099 87 1099 87 1113 c 2,33,-1
 87 1181 l 2,34,35
 87 1199 87 1199 87.5 1217 c 128,-1,36
 88 1235 88 1235 88 1253 c 2,37,-1
 88 1353 l 2,38,39
 88 1365 88 1365 93 1371.5 c 128,-1,40
 98 1378 98 1378 106 1380.5 c 128,-1,41
 114 1383 114 1383 125 1383.5 c 128,-1,42
 136 1384 136 1384 147 1384 c 2,43,-1
 191 1384 l 2,44,45
 202 1384 202 1384 210.5 1384 c 128,-1,46
 219 1384 219 1384 229 1385 c 1,47,-1
 307 1385 l 2,48,49
 338 1385 338 1385 379.5 1386.5 c 128,-1,50
 421 1388 421 1388 463 1388 c 2,51,-1
 639 1388 l 2,52,53
 648 1388 648 1388 657.5 1387.5 c 128,-1,54
 667 1387 667 1387 677 1387 c 2,55,-1
 770 1387 l 1,56,57
 818 1386 818 1386 865.5 1385.5 c 128,-1,58
 913 1385 913 1385 965 1384 c 2,59,-1
 1093 1382 l 2,60,61
 1113 1381 1113 1381 1115.5 1369.5 c 128,-1,62
 1118 1358 1118 1358 1118 1345 c 2,63,-1
 1119 1204 l 2,64,65
 1119 1193 1119 1193 1118.5 1183 c 128,-1,66
 1118 1173 1118 1173 1118 1162 c 2,67,-1
 1118 1123 l 2,68,69
 1118 1102 1118 1102 1119 1086 c 128,-1,70
 1120 1070 1120 1070 1120 1050 c 0,71,72
 1120 1033 1120 1033 1116.5 1019.5 c 128,-1,73
 1113 1006 1113 1006 1102 1004 c 0,74,75
 1097 1004 1097 1004 1093 1007 c 1,76,77
 1072 1005 1072 1005 1048 1004.5 c 128,-1,78
 1024 1004 1024 1004 1001 1003 c 2,79,-1
 956 1001 l 2,80,81
 943 1000 943 1000 926.5 999.5 c 128,-1,82
 910 999 910 999 896 999 c 2,83,-1
 778 997 l 1,84,-1
 721 993 l 1,85,-1
 650 993 l 1,86,-1
 650 968 l 2,87,88
 650 953 650 953 651 938.5 c 128,-1,89
 652 924 652 924 654 905 c 1,90,91
 696 909 696 909 749 912 c 128,-1,92
 802 915 802 915 857 915 c 2,93,-1
 899 915 l 2,94,95
 916 915 916 915 938 915 c 128,-1,96
 960 915 960 915 981 918 c 1,97,98
 1026 918 1026 918 1056 909 c 128,-1,99
 1086 900 1086 900 1091 886 c 1,100,-1
 1091 827 l 2,101,102
 1091 798 1091 798 1090 768.5 c 128,-1,103
 1089 739 1089 739 1089 710 c 2,104,-1
 1089 652 l 1,105,106
 1088 635 1088 635 1089 620.5 c 128,-1,107
 1090 606 1090 606 1090 591 c 2,108,-1
 1090 553 l 1,109,110
 1088 537 1088 537 1078.5 530 c 128,-1,111
 1069 523 1069 523 1056.5 521 c 128,-1,112
 1044 519 1044 519 1030 520 c 128,-1,113
 1016 521 1016 521 1004 521 c 2,114,-1
 965 521 l 2,115,116
 914 521 914 521 866 518 c 128,-1,117
 818 515 818 515 767 515 c 1,118,-1
 687 513 l 2,119,120
 682 513 682 513 678 512.5 c 128,-1,121
 674 512 674 512 669 512 c 2,122,-1
 655 512 l 1,0,-1
EndSplineSet
EndChar

StartChar: g
Encoding: 103 103 71
Width: 1502
Flags: W
LayerCount: 2
Fore
SplineSet
1421 194 m 1,0,-1
 1422 133 l 1,1,2
 1419 115 1419 115 1387.5 99.5 c 128,-1,3
 1356 84 1356 84 1308.5 72 c 128,-1,4
 1261 60 1261 60 1203 50.5 c 128,-1,5
 1145 41 1145 41 1089.5 34 c 128,-1,6
 1034 27 1034 27 987 22.5 c 128,-1,7
 940 18 940 18 914 16 c 0,8,9
 881 13 881 13 844 12 c 128,-1,10
 807 11 807 11 772 11 c 0,11,12
 714 11 714 11 650 17 c 128,-1,13
 586 23 586 23 520.5 40 c 128,-1,14
 455 57 455 57 390.5 86 c 128,-1,15
 326 115 326 115 268 162 c 1,16,-1
 226 198 l 2,17,18
 206 215 206 215 192 234 c 128,-1,19
 178 253 178 253 162 273 c 2,20,-1
 159 277 l 1,21,22
 98 371 98 371 68.5 477.5 c 128,-1,23
 39 584 39 584 39 716 c 0,24,25
 39 831 39 831 69 939 c 128,-1,26
 99 1047 99 1047 166 1140 c 1,27,-1
 182 1160 l 2,28,29
 188 1166 188 1166 194 1174 c 128,-1,30
 200 1182 200 1182 205 1187 c 1,31,-1
 205 1186 l 1,32,33
 261 1258 261 1258 332.5 1303 c 128,-1,34
 404 1348 404 1348 481.5 1373 c 128,-1,35
 559 1398 559 1398 637.5 1406.5 c 128,-1,36
 716 1415 716 1415 787 1415 c 0,37,38
 815 1415 815 1415 856.5 1412.5 c 128,-1,39
 898 1410 898 1410 945 1403.5 c 128,-1,40
 992 1397 992 1397 1042 1385.5 c 128,-1,41
 1092 1374 1092 1374 1138 1357 c 0,42,43
 1201 1333 1201 1333 1246.5 1296.5 c 128,-1,44
 1292 1260 1292 1260 1322 1218 c 2,45,-1
 1332 1204 l 1,46,47
 1364 1162 1364 1162 1377 1103.5 c 128,-1,48
 1390 1045 1390 1045 1398 981 c 2,49,-1
 1399 973 l 1,50,51
 1398 961 1398 961 1391 954 c 128,-1,52
 1384 947 1384 947 1374.5 943.5 c 128,-1,53
 1365 940 1365 940 1354.5 939 c 128,-1,54
 1344 938 1344 938 1337 938 c 2,55,-1
 1254 938 l 2,56,57
 1206 938 1206 938 1139 940.5 c 128,-1,58
 1072 943 1072 943 1002 944 c 2,59,-1
 891 945 l 1,60,61
 882 947 882 947 878 952.5 c 128,-1,62
 874 958 874 958 871 966 c 128,-1,63
 868 974 868 974 864 984 c 128,-1,64
 860 994 860 994 851 1006 c 1,65,-1
 852 1005 l 1,66,67
 844 1021 844 1021 826.5 1032 c 128,-1,68
 809 1043 809 1043 771 1043 c 0,69,70
 729 1043 729 1043 705 1030.5 c 128,-1,71
 681 1018 681 1018 667 1001 c 1,72,-1
 668 1001 l 1,73,74
 651 981 651 981 640.5 954.5 c 128,-1,75
 630 928 630 928 624 898 c 128,-1,76
 618 868 618 868 616 836.5 c 128,-1,77
 614 805 614 805 614 777 c 0,78,79
 614 756 614 756 614.5 737 c 128,-1,80
 615 718 615 718 616 704 c 1,81,-1
 616 705 l 1,82,83
 617 698 617 698 617 690.5 c 128,-1,84
 617 683 617 683 617 674 c 2,85,-1
 617 628 l 2,86,87
 617 591 617 591 621.5 550 c 128,-1,88
 626 509 626 509 643 474.5 c 128,-1,89
 660 440 660 440 695 417.5 c 128,-1,90
 730 395 730 395 792 395 c 0,91,92
 837 395 837 395 873 398.5 c 128,-1,93
 909 402 909 402 946 414 c 1,94,-1
 946 458 l 2,95,96
 946 471 946 471 945.5 480 c 128,-1,97
 945 489 945 489 945 500 c 0,98,99
 945 505 945 505 945.5 510.5 c 128,-1,100
 946 516 946 516 946 523 c 1,101,102
 938 524 938 524 928.5 524 c 128,-1,103
 919 524 919 524 909 524 c 256,104,105
 899 524 899 524 889 523 c 128,-1,106
 879 522 879 522 871 522 c 2,107,-1
 787 522 l 1,108,-1
 754 561 l 1,109,110
 753 575 753 575 753 590.5 c 128,-1,111
 753 606 753 606 753 621 c 2,112,-1
 753 652 l 1,113,114
 752 672 752 672 753 690.5 c 128,-1,115
 754 709 754 709 754 730 c 2,116,-1
 754 758 l 2,117,118
 754 763 754 763 754.5 768 c 128,-1,119
 755 773 755 773 755 781 c 1,120,121
 754 782 754 782 754 787 c 0,122,123
 754 805 754 805 762 816 c 128,-1,124
 770 827 770 827 790 840 c 1,125,126
 795 840 795 840 799.5 839.5 c 128,-1,127
 804 839 804 839 807 839 c 2,128,-1
 821 839 l 1,129,-1
 857 839 l 2,130,131
 871 839 871 839 884.5 839 c 128,-1,132
 898 839 898 839 914 837 c 1,133,-1
 1003 834 l 2,134,135
 1041 832 1041 832 1080.5 831.5 c 128,-1,136
 1120 831 1120 831 1152 831 c 2,137,-1
 1249 831 l 2,138,139
 1278 831 1278 831 1307 830 c 128,-1,140
 1336 829 1336 829 1361 826 c 128,-1,141
 1386 823 1386 823 1404 817.5 c 128,-1,142
 1422 812 1422 812 1429 803 c 1,143,144
 1429 659 1429 659 1425 511.5 c 128,-1,145
 1421 364 1421 364 1421 221 c 2,146,-1
 1421 194 l 1,0,-1
EndSplineSet
EndChar

StartChar: h
Encoding: 104 104 72
Width: 1485
Flags: W
LayerCount: 2
Fore
SplineSet
657 476 m 2,0,1
 657 438 657 438 655.5 404 c 128,-1,2
 654 370 654 370 654 324 c 2,3,-1
 654 274 l 1,4,5
 652 254 652 254 652 234.5 c 128,-1,6
 652 215 652 215 652 196 c 2,7,-1
 652 147 l 1,8,-1
 652 76 l 1,9,10
 649 57 649 57 635.5 52 c 128,-1,11
 622 47 622 47 602 47 c 2,12,-1
 556 47 l 2,13,14
 483 47 483 47 407.5 45 c 128,-1,15
 332 43 332 43 257 43 c 2,16,-1
 155 43 l 1,17,-1
 140 43 l 2,18,19
 133 43 133 43 123 43 c 128,-1,20
 113 43 113 43 103.5 47 c 128,-1,21
 94 51 94 51 87 61.5 c 128,-1,22
 80 72 80 72 80 92 c 0,23,24
 80 103 80 103 80 113 c 128,-1,25
 80 123 80 123 82 133 c 1,26,-1
 82 249 l 2,27,28
 82 281 82 281 82.5 312.5 c 128,-1,29
 83 344 83 344 83 376 c 2,30,-1
 83 459 l 2,31,32
 83 485 83 485 84 512 c 128,-1,33
 85 539 85 539 85 565 c 0,34,35
 85 580 85 580 84 583 c 2,36,-1
 83 745 l 2,37,38
 83 753 83 753 83.5 760.5 c 128,-1,39
 84 768 84 768 84 776 c 2,40,-1
 84 809 l 2,41,42
 84 811 84 811 84.5 814 c 128,-1,43
 85 817 85 817 85 820 c 2,44,-1
 86 839 l 1,45,46
 86 893 86 893 87.5 954.5 c 128,-1,47
 89 1016 89 1016 91.5 1078 c 128,-1,48
 94 1140 94 1140 95.5 1199.5 c 128,-1,49
 97 1259 97 1259 97 1311 c 2,50,-1
 97 1348 l 2,51,52
 97 1350 97 1350 96.5 1350.5 c 128,-1,53
 96 1351 96 1351 96 1353 c 0,54,55
 96 1361 96 1361 100 1366 c 128,-1,56
 104 1371 104 1371 112 1378 c 1,57,-1
 209 1378 l 1,58,-1
 227 1380 l 1,59,-1
 320 1380 l 2,60,61
 340 1380 340 1380 358 1381 c 128,-1,62
 376 1382 376 1382 396 1382 c 2,63,-1
 409 1382 l 1,64,-1
 427 1382 l 2,65,66
 432 1382 432 1382 437 1382.5 c 128,-1,67
 442 1383 442 1383 448 1383 c 2,68,-1
 531 1382 l 2,69,70
 549 1382 549 1382 569 1380.5 c 128,-1,71
 589 1379 589 1379 605.5 1377 c 128,-1,72
 622 1375 622 1375 633.5 1371 c 128,-1,73
 645 1367 645 1367 647 1362 c 1,74,-1
 647 1346 l 2,75,76
 647 1310 647 1310 648.5 1269.5 c 128,-1,77
 650 1229 650 1229 650 1185 c 2,78,-1
 650 1166 l 1,79,-1
 649 1081 l 2,80,81
 649 1067 649 1067 648.5 1054 c 128,-1,82
 648 1041 648 1041 648 1029 c 2,83,-1
 648 947 l 1,84,-1
 788 943 l 2,85,86
 795 943 795 943 799.5 942.5 c 128,-1,87
 804 942 804 942 809 942 c 0,88,89
 816 942 816 942 819 948 c 128,-1,90
 822 954 822 954 822.5 962.5 c 128,-1,91
 823 971 823 971 822.5 980 c 128,-1,92
 822 989 822 989 822 996 c 2,93,-1
 822 1094 l 2,94,95
 822 1105 822 1105 822.5 1115 c 128,-1,96
 823 1125 823 1125 823 1135 c 2,97,-1
 823 1247 l 1,98,-1
 823 1291 l 1,99,-1
 823 1315 l 2,100,101
 823 1324 823 1324 823 1332.5 c 128,-1,102
 823 1341 823 1341 821 1350 c 1,103,104
 821 1362 821 1362 824.5 1368 c 128,-1,105
 828 1374 828 1374 833 1381 c 1,106,-1
 841 1387 l 1,107,108
 851 1388 851 1388 861.5 1388.5 c 128,-1,109
 872 1389 872 1389 881 1389 c 0,110,111
 895 1389 895 1389 908.5 1388.5 c 128,-1,112
 922 1388 922 1388 936 1387 c 1,113,-1
 1191 1387 l 2,114,115
 1229 1387 1229 1387 1263.5 1386 c 128,-1,116
 1298 1385 1298 1385 1334 1385 c 0,117,118
 1356 1385 1356 1385 1368 1377 c 128,-1,119
 1380 1369 1380 1369 1380 1334 c 0,120,121
 1380 1316 1380 1316 1379.5 1293.5 c 128,-1,122
 1379 1271 1379 1271 1379 1251 c 2,123,-1
 1379 1121 l 2,124,125
 1379 1102 1379 1102 1378 1083.5 c 128,-1,126
 1377 1065 1377 1065 1377 1045 c 0,127,128
 1377 1036 1377 1036 1377.5 1027 c 128,-1,129
 1378 1018 1378 1018 1378 1009 c 2,130,-1
 1378 961 l 2,131,132
 1378 935 1378 935 1381 913.5 c 128,-1,133
 1384 892 1384 892 1384 858 c 2,134,-1
 1384 797 l 1,135,136
 1383 780 1383 780 1384 766 c 128,-1,137
 1385 752 1385 752 1385 735 c 2,138,-1
 1385 705 l 2,139,140
 1385 692 1385 692 1385.5 679.5 c 128,-1,141
 1386 667 1386 667 1386 655 c 0,142,143
 1386 648 1386 648 1386 642 c 128,-1,144
 1386 636 1386 636 1384 629 c 2,145,-1
 1381 610 l 1,146,-1
 1381 611 l 1,147,148
 1380 598 1380 598 1380 586 c 128,-1,149
 1380 574 1380 574 1380 562 c 2,150,-1
 1380 447 l 2,151,152
 1380 432 1380 432 1380.5 421 c 128,-1,153
 1381 410 1381 410 1383 397 c 1,154,-1
 1383 392 l 1,155,-1
 1389 392 l 1,156,-1
 1389 331 l 2,157,158
 1389 300 1389 300 1390 270 c 128,-1,159
 1391 240 1391 240 1391 209 c 0,160,161
 1391 188 1391 188 1392.5 159 c 128,-1,162
 1394 130 1394 130 1392 104 c 128,-1,163
 1390 78 1390 78 1380.5 60 c 128,-1,164
 1371 42 1371 42 1350 41 c 0,165,166
 1275 38 1275 38 1207 37 c 128,-1,167
 1139 36 1139 36 1069 36 c 0,168,169
 1009 36 1009 36 951.5 36.5 c 128,-1,170
 894 37 894 37 839 39 c 1,171,-1
 823 58 l 2,172,173
 820 61 820 61 816 66.5 c 128,-1,174
 812 72 812 72 808 80 c 1,175,-1
 808 400 l 2,176,177
 808 420 808 420 809 441 c 128,-1,178
 810 462 810 462 810 484 c 0,179,180
 810 495 810 495 809.5 500.5 c 128,-1,181
 809 506 809 506 805.5 508.5 c 128,-1,182
 802 511 802 511 795 511.5 c 128,-1,183
 788 512 788 512 776 512 c 2,184,-1
 758 512 l 2,185,186
 733 512 733 512 707 512 c 128,-1,187
 681 512 681 512 657 509 c 1,188,-1
 657 476 l 2,0,1
EndSplineSet
EndChar

StartChar: i
Encoding: 105 105 73
Width: 745
Flags: W
LayerCount: 2
Fore
SplineSet
643 1078 m 1,0,-1
 643 1051 l 2,1,2
 643 1043 643 1043 643.5 1036 c 128,-1,3
 644 1029 644 1029 644 1022 c 2,4,-1
 644 800 l 2,5,6
 644 771 644 771 644.5 738.5 c 128,-1,7
 645 706 645 706 645 673 c 128,-1,8
 645 640 645 640 645.5 608.5 c 128,-1,9
 646 577 646 577 646 550 c 2,10,-1
 646 494 l 1,11,12
 648 475 648 475 648 456.5 c 128,-1,13
 648 438 648 438 648 421 c 2,14,-1
 648 381 l 1,15,-1
 648 272 l 2,16,17
 648 250 648 250 649 225 c 128,-1,18
 650 200 650 200 651 174 c 128,-1,19
 652 148 652 148 653 122 c 128,-1,20
 654 96 654 96 654 74 c 1,21,22
 649 54 649 54 639.5 48.5 c 128,-1,23
 630 43 630 43 620 43 c 2,24,-1
 592 43 l 1,25,26
 542 41 542 41 497 39.5 c 128,-1,27
 452 38 452 38 393 38 c 2,28,-1
 353 38 l 1,29,-1
 112 38 l 1,30,-1
 100 45 l 2,31,32
 95 49 95 49 89 51.5 c 128,-1,33
 83 54 83 54 72 56 c 1,34,-1
 73 209 l 2,35,36
 74 226 74 226 74.5 244.5 c 128,-1,37
 75 263 75 263 75 283 c 2,38,-1
 75 368 l 2,39,40
 75 382 75 382 75.5 395 c 128,-1,41
 76 408 76 408 77 421 c 1,42,-1
 77 426 l 2,43,44
 77 498 77 498 77.5 564.5 c 128,-1,45
 78 631 78 631 82 701 c 1,46,-1
 85 847 l 1,47,48
 85 901 85 901 86.5 948 c 128,-1,49
 88 995 88 995 88 1043 c 2,50,-1
 88 1351 l 1,51,52
 91 1370 91 1370 106 1387 c 1,53,54
 135 1385 135 1385 162.5 1384 c 128,-1,55
 190 1383 190 1383 222 1383 c 1,56,-1
 259 1381 l 1,57,58
 301 1376 301 1376 344.5 1375.5 c 128,-1,59
 388 1375 388 1375 433 1375 c 2,60,-1
 572 1375 l 2,61,62
 585 1375 585 1375 599 1375 c 128,-1,63
 613 1375 613 1375 626 1376 c 1,64,65
 636 1374 636 1374 639.5 1369 c 128,-1,66
 643 1364 643 1364 643 1343 c 2,67,-1
 643 1323 l 1,68,-1
 643 1078 l 1,0,-1
EndSplineSet
EndChar

StartChar: j
Encoding: 106 106 74
Width: 1229
Flags: W
LayerCount: 2
Fore
SplineSet
564 482 m 0,0,1
 565 493 565 493 565 508 c 128,-1,2
 565 523 565 523 566 531 c 1,3,-1
 567 531 l 1,4,-1
 567 598 l 2,5,6
 567 733 567 733 568.5 868.5 c 128,-1,7
 570 1004 570 1004 570 1143 c 2,8,-1
 570 1207 l 2,9,10
 570 1223 570 1223 569.5 1238 c 128,-1,11
 569 1253 569 1253 569 1268 c 2,12,-1
 569 1309 l 1,13,-1
 569 1328 l 2,14,15
 569 1348 569 1348 573.5 1364.5 c 128,-1,16
 578 1381 578 1381 599 1387 c 1,17,-1
 644 1387 l 2,18,19
 655 1387 655 1387 665.5 1386.5 c 128,-1,20
 676 1386 676 1386 687 1386 c 2,21,-1
 730 1386 l 2,22,23
 756 1386 756 1386 780.5 1385.5 c 128,-1,24
 805 1385 805 1385 831 1385 c 2,25,-1
 857 1385 l 1,26,-1
 941 1385 l 1,27,-1
 1009 1385 l 2,28,29
 1025 1385 1025 1385 1046 1386 c 128,-1,30
 1067 1387 1067 1387 1086.5 1385.5 c 128,-1,31
 1106 1384 1106 1384 1120.5 1377.5 c 128,-1,32
 1135 1371 1135 1371 1140 1355 c 1,33,34
 1135 1323 1135 1323 1135.5 1304.5 c 128,-1,35
 1136 1286 1136 1286 1136 1269 c 2,36,-1
 1136 1228 l 1,37,38
 1131 1131 1131 1131 1130 1008.5 c 128,-1,39
 1129 886 1129 886 1128 756 c 2,40,-1
 1127 560 l 2,41,42
 1127 540 1127 540 1127.5 520 c 128,-1,43
 1128 500 1128 500 1128 479 c 0,44,45
 1128 435 1128 435 1122.5 399 c 128,-1,46
 1117 363 1117 363 1105 330 c 128,-1,47
 1093 297 1093 297 1074.5 264.5 c 128,-1,48
 1056 232 1056 232 1031 197 c 1,49,50
 987 149 987 149 927.5 115.5 c 128,-1,51
 868 82 868 82 805 60.5 c 128,-1,52
 742 39 742 39 682.5 29 c 128,-1,53
 623 19 623 19 579 19 c 2,54,-1
 547 19 l 2,55,56
 536 19 536 19 523.5 18.5 c 128,-1,57
 511 18 511 18 499 18 c 0,58,59
 449 18 449 18 394.5 24 c 128,-1,60
 340 30 340 30 299 43 c 1,61,-1
 300 43 l 1,62,63
 237 58 237 58 184 88 c 128,-1,64
 131 118 131 118 86 167 c 1,65,-1
 86 166 l 1,66,67
 31 226 31 226 3 292.5 c 128,-1,68
 -25 359 -25 359 -25 444 c 2,69,-1
 -25 480 l 2,70,71
 -25 500 -25 500 -20.5 512 c 128,-1,72
 -16 524 -16 524 4 524 c 0,73,74
 9 524 9 524 13.5 523.5 c 128,-1,75
 18 523 18 523 23 523 c 2,76,-1
 77 523 l 2,77,78
 159 523 159 523 242 526 c 128,-1,79
 325 529 325 529 406 529 c 0,80,81
 432 529 432 529 444.5 520.5 c 128,-1,82
 457 512 457 512 462 498.5 c 128,-1,83
 467 485 467 485 468 470 c 128,-1,84
 469 455 469 455 472 441.5 c 128,-1,85
 475 428 475 428 483.5 419.5 c 128,-1,86
 492 411 492 411 513 411 c 0,87,88
 528 411 528 411 537.5 417 c 128,-1,89
 547 423 547 423 552 433 c 128,-1,90
 557 443 557 443 559.5 455.5 c 128,-1,91
 562 468 562 468 564 482 c 0,0,1
569 530 m 1,92,-1
 578 530 l 1,93,94
 578 535 578 535 577.5 536 c 128,-1,95
 577 537 577 537 573 537 c 1,96,-1
 569 530 l 1,92,-1
EndSplineSet
EndChar

StartChar: k
Encoding: 107 107 75
Width: 1471
Flags: W
LayerCount: 2
Fore
SplineSet
1102 743 m 1,0,1
 1109 735 1109 735 1114 727 c 128,-1,2
 1119 719 1119 719 1124 711 c 2,3,-1
 1140 687 l 1,4,5
 1161 647 1161 647 1184 607.5 c 128,-1,6
 1207 568 1207 568 1231 528 c 1,7,-1
 1234 522 l 1,8,9
 1263 474 1263 474 1290.5 428.5 c 128,-1,10
 1318 383 1318 383 1350 337 c 1,11,-1
 1386 278 l 2,12,13
 1388 276 1388 276 1390 272.5 c 128,-1,14
 1392 269 1392 269 1394 266 c 2,15,-1
 1421 223 l 1,16,-1
 1466 143 l 2,17,18
 1474 129 1474 129 1482 113.5 c 128,-1,19
 1490 98 1490 98 1495 88 c 1,20,21
 1495 62 1495 62 1473 44 c 1,22,23
 1403 48 1403 48 1333.5 49 c 128,-1,24
 1264 50 1264 50 1192 50 c 0,25,26
 1154 50 1154 50 1115.5 49.5 c 128,-1,27
 1077 49 1077 49 1038 49 c 2,28,-1
 902 48 l 1,29,30
 895 61 895 61 887 76.5 c 128,-1,31
 879 92 879 92 871 103 c 1,32,33
 811 200 811 200 756.5 306 c 128,-1,34
 702 412 702 412 645 521 c 1,35,-1
 646 282 l 2,36,37
 646 259 646 259 646 232.5 c 128,-1,38
 646 206 646 206 646.5 178.5 c 128,-1,39
 647 151 647 151 647 124.5 c 128,-1,40
 647 98 647 98 647 76 c 1,41,42
 644 64 644 64 633.5 56 c 128,-1,43
 623 48 623 48 607.5 43.5 c 128,-1,44
 592 39 592 39 573 37.5 c 128,-1,45
 554 36 554 36 534 36 c 0,46,47
 515 36 515 36 497.5 37 c 128,-1,48
 480 38 480 38 466 38 c 2,49,-1
 454 38 l 1,50,51
 410 36 410 36 373 36 c 128,-1,52
 336 36 336 36 294 36 c 0,53,54
 271 36 271 36 248.5 36 c 128,-1,55
 226 36 226 36 203 38 c 0,56,57
 196 38 196 38 186.5 37.5 c 128,-1,58
 177 37 177 37 172 37 c 2,59,-1
 111 37 l 1,60,61
 103 53 103 53 87 70 c 1,62,-1
 85 78 l 1,63,-1
 85 100 l 2,64,65
 85 123 85 123 85.5 147 c 128,-1,66
 86 171 86 171 86 195 c 2,67,-1
 86 268 l 2,68,69
 86 288 86 288 86.5 306 c 128,-1,70
 87 324 87 324 87 344 c 2,71,-1
 87 760 l 1,72,73
 88 774 88 774 88 788.5 c 128,-1,74
 88 803 88 803 88 818 c 2,75,-1
 88 876 l 2,76,77
 88 939 88 939 89 1005.5 c 128,-1,78
 90 1072 90 1072 90 1144 c 0,79,80
 90 1186 90 1186 87.5 1226 c 128,-1,81
 85 1266 85 1266 85 1314 c 0,82,83
 85 1339 85 1339 90 1360 c 128,-1,84
 95 1381 95 1381 109 1392 c 1,85,-1
 259 1392 l 1,86,-1
 279 1392 l 2,87,88
 320 1392 320 1392 359 1390.5 c 128,-1,89
 398 1389 398 1389 438 1389 c 2,90,-1
 467 1389 l 2,91,92
 510 1389 510 1389 544 1388 c 128,-1,93
 578 1387 578 1387 618 1385 c 0,94,95
 640 1384 640 1384 646 1350 c 1,96,-1
 646 1291 l 1,97,98
 644 1233 644 1233 644.5 1174.5 c 128,-1,99
 645 1116 645 1116 644 1058 c 2,100,-1
 643 970 l 2,101,102
 643 957 643 957 642.5 945.5 c 128,-1,103
 642 934 642 934 642 923 c 2,104,-1
 642 912 l 1,105,-1
 642 906 l 1,106,107
 645 914 645 914 649.5 922.5 c 128,-1,108
 654 931 654 931 658 938 c 2,109,-1
 777 1178 l 2,110,111
 801 1227 801 1227 824 1275.5 c 128,-1,112
 847 1324 847 1324 868 1370 c 1,113,-1
 879 1383 l 1,114,-1
 969 1383 l 2,115,116
 999 1383 999 1383 1029.5 1382 c 128,-1,117
 1060 1381 1060 1381 1089 1381 c 2,118,-1
 1164 1381 l 2,119,120
 1175 1381 1175 1381 1187 1381.5 c 128,-1,121
 1199 1382 1199 1382 1210 1382 c 2,122,-1
 1268 1382 l 2,123,124
 1269 1382 1269 1382 1282.5 1382.5 c 128,-1,125
 1296 1383 1296 1383 1316 1383 c 0,126,127
 1335 1383 1335 1383 1357.5 1382 c 128,-1,128
 1380 1381 1380 1381 1399 1378.5 c 128,-1,129
 1418 1376 1418 1376 1430.5 1371 c 128,-1,130
 1443 1366 1443 1366 1443 1359 c 0,131,132
 1443 1354 1443 1354 1438 1344 c 128,-1,133
 1433 1334 1433 1334 1425.5 1322 c 128,-1,134
 1418 1310 1418 1310 1410 1297.5 c 128,-1,135
 1402 1285 1402 1285 1396 1276 c 2,136,-1
 1224 984 l 2,137,138
 1193 932 1193 932 1159.5 872.5 c 128,-1,139
 1126 813 1126 813 1094 764 c 1,140,-1
 1102 743 l 1,0,1
EndSplineSet
EndChar

